<?xml version="1.0" standalone="no"?>
<!DOCTYPE svg PUBLIC "-//W3C//DTD SVG 20010904//EN"
 "http://www.w3.org/TR/2001/REC-SVG-20010904/DTD/svg10.dtd">
<svg version="1.0" xmlns="http://www.w3.org/2000/svg"
 width="64.000000pt" height="64.000000pt" viewBox="0 0 64.000000 64.000000"
 preserveAspectRatio="xMidYMid meet">

<g transform="translate(0.000000,64.000000) scale(0.100000,-0.100000)"
fill="#000000" stroke="none">
<path d="M293 614 c-3 -9 -1 -25 5 -35 21 -32 15 -49 -17 -49 -21 0 -32 -6
-36 -20 -9 -28 -32 -25 -85 10 -54 36 -70 38 -70 7 0 -12 -9 -30 -20 -40 -11
-9 -20 -26 -20 -37 0 -11 9 -28 20 -37 11 -10 20 -28 20 -40 0 -31 19 -29 69
8 24 17 44 29 46 27 2 -2 -5 -77 -16 -168 -10 -91 -19 -166 -19 -167 0 -2 -7
-3 -15 -3 -8 0 -23 -9 -32 -20 -10 -11 -30 -20 -45 -20 -16 0 -28 -4 -28 -10
0 -6 97 -10 270 -10 173 0 270 4 270 10 0 6 -12 10 -28 10 -15 0 -35 9 -45 20
-9 11 -23 20 -31 20 -9 0 -17 13 -20 33 -9 54 -36 301 -33 304 2 1 23 -11 47
-27 54 -36 70 -37 70 -7 0 12 9 30 20 40 11 9 20 26 20 37 0 11 -9 28 -20 37
-11 10 -20 28 -20 40 0 31 -16 29 -70 -7 -53 -35 -76 -38 -85 -10 -4 14 -15
20 -36 20 -32 0 -38 17 -17 49 15 24 4 51 -22 51 -11 0 -23 -7 -27 -16z m37
-14 c0 -5 -4 -10 -10 -10 -5 0 -10 5 -10 10 0 6 5 10 10 10 6 0 10 -4 10 -10z
m-175 -102 c24 -16 35 -30 35 -48 0 -18 -11 -32 -35 -47 -19 -13 -37 -23 -40
-23 -3 0 -5 32 -5 70 0 39 2 70 5 70 3 0 21 -10 40 -22z m375 -48 c0 -38 -2
-70 -5 -70 -3 0 -21 10 -40 23 -46 29 -47 64 -2 94 17 12 35 22 40 22 4 1 7
-30 7 -69z m-150 50 c0 -6 -27 -10 -60 -10 -33 0 -60 4 -60 10 0 6 27 10 60
10 33 0 60 -4 60 -10z m-290 -50 c0 -11 -4 -20 -10 -20 -5 0 -10 9 -10 20 0
11 5 20 10 20 6 0 10 -9 10 -20z m340 0 c0 -15 -7 -20 -29 -20 -16 0 -34 7
-41 15 -7 8 -25 15 -40 15 -15 0 -33 -7 -40 -15 -7 -8 -25 -15 -41 -15 -22 0
-29 5 -29 20 0 19 7 20 110 20 103 0 110 -1 110 -20z m140 0 c0 -11 -4 -20
-10 -20 -5 0 -10 9 -10 20 0 11 5 20 10 20 6 0 10 -9 10 -20z m-216 -26 c31
-30 9 -84 -34 -84 -24 0 -50 26 -50 50 0 24 26 50 50 50 10 0 26 -7 34 -16z
m-104 -33 c0 -19 -17 -38 -25 -29 -7 7 7 48 16 48 5 0 9 -9 9 -19z m163 -6 c3
-16 0 -24 -7 -22 -14 4 -21 47 -8 47 5 0 12 -11 15 -25z m-133 -50 c16 -19 50
-19 77 0 20 14 53 11 53 -4 0 -4 -20 -17 -45 -29 l-46 -22 -42 21 c-53 27 -54
28 -37 39 20 13 26 12 40 -5z m-21 -46 c17 -6 31 -14 31 -17 0 -4 -18 -15 -40
-24 l-40 -17 0 28 c0 23 7 41 15 41 1 0 16 -5 34 -11z m165 -5 c3 -9 6 -24 6
-34 0 -18 -2 -18 -40 -2 -47 20 -49 27 -12 40 37 14 39 14 46 -4z m-54 -49
l45 -24 -95 0 -95 0 45 24 c25 13 47 24 50 24 3 0 25 -11 50 -24z m-2 -71
l-48 -24 -48 24 -47 25 95 0 95 0 -47 -25z m-105 -16 c15 -5 27 -13 27 -16 0
-8 -89 -46 -94 -41 -2 2 -1 21 2 42 3 31 8 37 21 32 9 -4 28 -12 44 -17z m179
-18 c2 -22 1 -40 -2 -40 -12 0 -90 36 -90 41 0 6 64 35 81 38 4 1 9 -17 11
-39z m-72 -35 l45 -24 -95 0 -95 0 45 24 c25 13 47 24 50 24 3 0 25 -11 50
-24z m130 -55 c0 -6 -67 -10 -180 -10 -113 0 -180 4 -180 10 0 6 67 10 180 10
113 0 180 -4 180 -10z"/>
<path d="M294 406 c-10 -26 4 -48 28 -44 33 4 33 52 0 56 -13 2 -25 -3 -28
-12z m36 -16 c0 -5 -4 -10 -10 -10 -5 0 -10 5 -10 10 0 6 5 10 10 10 6 0 10
-4 10 -10z"/>
<path d="M10 20 c0 -5 5 -10 10 -10 6 0 10 5 10 10 0 6 -4 10 -10 10 -5 0 -10
-4 -10 -10z"/>
<path d="M610 20 c0 -5 5 -10 10 -10 6 0 10 5 10 10 0 6 -4 10 -10 10 -5 0
-10 -4 -10 -10z"/>
</g>
</svg>
