<?xml version="1.0" standalone="no"?>
<!DOCTYPE svg PUBLIC "-//W3C//DTD SVG 20010904//EN"
 "http://www.w3.org/TR/2001/REC-SVG-20010904/DTD/svg10.dtd">
<svg version="1.0" xmlns="http://www.w3.org/2000/svg"
 width="7001.000000pt" height="4001.000000pt" viewBox="0 0 7001.000000 4001.000000"
 preserveAspectRatio="xMidYMid meet">

<g transform="translate(0.000000,4001.000000) scale(0.100000,-0.100000)"
fill="#000000" stroke="none">
<path d="M10 20000 l0 -20000 35000 0 35000 0 0 20000 0 20000 -35000 0
-35000 0 0 -20000z m20811 13228 c1 -7 2 -21 2 -30 0 -10 4 -18 9 -18 6 0 8
14 6 30 -6 43 24 36 33 -8 l6 -32 -63 0 c-35 0 -64 1 -64 3 0 1 -4 17 -9 35
l-10 32 45 0 c28 0 45 -5 45 -12z m139 -373 c45 -23 73 -78 67 -131 -7 -66
-47 -100 -47 -41 0 18 -2 19 -10 7 -5 -8 -10 -25 -10 -37 0 -13 -6 -23 -13
-23 -7 0 -18 -5 -25 -12 -14 -14 -53 -18 -45 -5 4 6 0 8 -10 4 -10 -4 -17 -1
-17 5 0 6 -3 8 -6 5 -4 -3 -15 4 -25 18 -16 20 -17 28 -7 49 10 23 9 28 -8 41
-17 13 -17 17 2 14 14 -2 22 25 17 61 -5 34 -3 39 23 48 42 15 81 14 114 -3z
m-70 -275 c0 -5 -2 -10 -4 -10 -3 0 -8 5 -11 10 -3 6 -1 10 4 10 6 0 11 -4 11
-10z m277 -50 c8 -16 21 -25 35 -25 17 0 28 -11 41 -38 18 -35 21 -37 67 -37
32 0 55 -6 71 -18 l22 -19 -44 -7 c-43 -7 -43 -8 -20 -20 21 -12 7 -13 -95 -9
-65 3 -148 8 -184 11 l-65 7 0 40 c0 34 4 40 22 43 19 3 21 8 16 32 -4 25 -1
32 28 50 45 27 90 23 106 -10z m-307 -49 c-10 -20 -8 -21 35 -21 l46 0 -3 -37
-3 -38 -122 0 c-67 0 -125 3 -128 7 -4 3 1 20 10 37 14 28 20 31 65 31 46 0
49 2 52 27 2 19 10 29 28 33 29 7 37 -8 20 -39z m-330 -25 c0 -2 -19 -16 -41
-31 -32 -21 -38 -29 -28 -36 9 -5 -10 -9 -53 -9 -62 0 -67 2 -70 23 -2 17 -11
23 -43 28 -42 6 -34 15 20 22 40 5 215 8 215 3z m5 -601 c30 -29 32 -58 5 -85
-35 -35 -85 -20 -102 30 -8 24 9 60 34 70 34 13 37 12 63 -15z m5059 -210 c25
-20 46 -41 46 -46 0 -9 -17 -47 -26 -57 -3 -5 -114 66 -114 73 0 13 31 65 39
65 4 0 29 -16 55 -35z m-4796 -135 c43 0 43 0 38 -31 -7 -47 -17 -52 -84 -44
-58 7 -60 8 -56 33 8 48 13 55 37 48 12 -3 41 -6 65 -6z m-240 -37 l-3 -38
-67 -3 -68 -3 0 41 0 40 71 0 70 0 -3 -37z m533 26 c150 -10 155 -11 231 -50
44 -23 83 -37 90 -33 10 5 10 4 1 -6 -10 -11 -41 -11 -170 0 -153 12 -160 13
-238 52 -44 22 -82 42 -84 44 -6 6 -2 5 170 -7z m-1461 -81 c-30 -11 -104 -40
-165 -63 -60 -24 -190 -61 -287 -84 -246 -58 -429 -110 -661 -188 -193 -66
-199 -69 -216 -103 -27 -54 -45 -80 -57 -80 -6 0 -28 -9 -50 -19 -38 -19 -39
-19 -42 0 -2 10 -12 25 -24 33 -18 13 -27 11 -86 -14 -129 -54 -350 -161 -592
-287 -74 -38 -150 -75 -167 -81 -18 -6 -33 -17 -34 -24 0 -16 -83 -79 -127
-97 -26 -11 -41 -11 -73 -2 -45 14 -49 27 -14 43 29 13 31 21 10 38 -26 21
-17 48 25 76 43 28 69 26 77 -6 3 -11 8 -20 12 -20 3 0 78 41 166 91 170 96
494 259 515 259 31 0 240 86 235 97 -8 24 207 105 226 86 7 -7 56 7 152 44
421 160 555 201 887 267 217 43 277 53 315 54 25 1 20 -3 -25 -20z m2117 -14
c-3 -3 -12 -4 -19 -1 -8 3 -5 6 6 6 11 1 17 -2 13 -5z m423 -65 c52 -12 107
-24 122 -26 16 -3 25 -10 21 -16 -3 -6 -1 -7 5 -3 29 18 538 -140 832 -259
491 -199 996 -477 1417 -782 71 -51 151 -108 178 -128 28 -19 91 -69 141 -112
50 -43 128 -109 175 -148 118 -98 437 -413 586 -580 696 -775 1185 -1659 1468
-2649 180 -632 264 -1269 253 -1942 -4 -246 -2 -284 10 -279 27 10 52 -25 52
-70 0 -41 -2 -44 -40 -59 -25 -10 -40 -22 -40 -33 0 -84 -59 -506 -101 -728
-307 -1613 -1221 -3071 -2559 -4084 -155 -117 -369 -266 -375 -259 -1 2 -34
95 -71 207 l-69 205 -14 -73 -14 -73 -29 89 c-22 67 -28 100 -24 136 4 40 3
48 -9 43 -12 -4 -14 0 -9 19 4 17 -1 33 -15 51 -16 20 -19 35 -15 63 5 31 0
42 -35 85 -23 26 -38 53 -35 58 4 6 0 15 -7 20 -11 8 -11 11 -1 15 10 4 9 8
-4 17 -15 11 -14 15 12 35 l29 22 18 -22 c14 -18 15 -24 5 -30 -18 -12 -30
-11 -23 1 3 6 0 10 -7 11 -7 0 -4 4 7 9 16 7 17 9 3 9 -27 1 -32 -19 -9 -43
12 -12 19 -25 15 -28 -3 -3 -1 -9 4 -12 6 -3 9 4 8 18 -2 18 5 27 28 39 17 9
64 42 105 74 65 50 78 66 102 123 15 36 38 76 51 90 32 33 145 130 152 130 9
0 1 -30 -18 -74 -10 -21 -15 -41 -12 -44 14 -13 390 347 561 538 556 618 970
1332 1223 2110 387 1189 381 2474 -15 3660 -149 445 -385 935 -640 1325 -234
358 -432 602 -748 923 -533 542 -1137 961 -1823 1261 -1327 582 -2854 644
-4227 174 -183 -63 -326 -119 -434 -170 -42 -19 -94 -42 -115 -49 -53 -19
-341 -170 -501 -262 -177 -102 -334 -205 -498 -326 -182 -134 -197 -146 -318
-251 -162 -141 -197 -167 -210 -159 -8 5 -9 3 -4 -6 11 -17 -64 -82 -87 -76
-10 2 -16 -1 -15 -8 1 -6 -4 -10 -11 -8 -8 1 -11 -2 -7 -8 5 -8 11 -7 21 1 10
8 14 8 14 0 0 -6 -4 -11 -9 -11 -5 0 -24 -16 -42 -35 -18 -18 -36 -32 -41 -29
-5 3 -8 2 -7 -3 4 -20 -2 -27 -12 -13 -9 12 -10 12 -5 -4 5 -14 -21 -47 -111
-140 -65 -66 -122 -120 -126 -118 -5 1 -6 -2 -3 -7 3 -5 -1 -14 -9 -21 -14
-12 -16 -10 -14 6 0 4 -5 10 -13 15 -10 7 -10 11 0 21 7 7 17 13 23 13 11 0
14 19 2 22 -4 1 -16 -9 -26 -23 -17 -23 -18 -27 -2 -50 16 -25 15 -26 -51
-107 -76 -91 -82 -97 -100 -90 -7 2 -15 -5 -19 -16 -3 -12 -11 -18 -17 -15 -7
5 -8 2 -3 -6 6 -10 12 -7 26 11 10 13 19 20 19 15 0 -5 -17 -29 -37 -54 -21
-25 -41 -50 -45 -56 -4 -6 -10 -7 -14 -4 -3 4 5 18 19 32 14 14 22 28 19 30
-4 2 -18 -11 -31 -30 -20 -29 -26 -32 -39 -22 -10 9 -13 9 -9 1 4 -6 1 -13 -5
-16 -8 -2 -9 -8 -4 -13 5 -5 11 -4 13 4 4 10 8 10 21 0 13 -11 14 -11 7 1 -5
10 -4 12 3 7 8 -5 2 -20 -20 -46 -23 -30 -34 -37 -44 -29 -17 14 -30 -9 -15
-24 9 -9 11 -7 6 8 -5 16 -5 17 3 5 12 -16 11 -18 -34 -81 -18 -25 -40 -46
-49 -46 -19 0 -19 14 -1 33 8 7 12 22 9 33 -3 10 0 22 6 25 6 4 11 13 11 19 0
7 -9 -1 -20 -18 -11 -16 -20 -39 -20 -49 0 -15 -3 -17 -11 -9 -8 8 -3 22 16
51 28 43 63 67 51 35 -6 -14 -5 -15 5 -6 9 9 9 16 1 26 -14 16 -6 28 14 20 10
-4 13 2 12 18 -2 16 2 23 11 21 8 -2 11 3 8 12 -3 8 1 20 9 27 9 7 29 32 45
56 17 24 34 41 39 38 5 -3 12 0 16 6 4 8 3 9 -4 5 -26 -16 -10 19 31 68 59 72
78 86 99 75 10 -5 18 -6 18 -2 0 4 4 2 9 -6 6 -9 11 -10 15 -2 5 7 -4 14 -23
17 -17 4 -31 10 -31 15 0 12 7 11 30 -1 13 -7 21 -7 25 0 6 9 -8 14 -27 11
-15 -2 -7 11 39 64 44 52 47 54 60 35 8 -11 11 -26 8 -33 -4 -6 2 -1 13 13 11
13 18 28 16 32 -3 4 0 8 7 8 7 0 9 3 6 7 -4 3 -15 -1 -26 -11 -17 -16 -19 -16
-25 0 -7 19 64 107 121 152 20 15 40 33 47 41 40 48 131 129 139 124 6 -3 7
-1 3 5 -3 6 -2 13 4 17 6 4 8 10 6 14 -3 4 15 27 39 51 24 24 41 48 38 53 -3
6 -1 7 5 3 6 -4 30 10 54 32 51 47 127 97 148 97 8 1 14 6 13 12 -1 6 17 27
41 47 48 39 67 47 45 19 -13 -16 -12 -17 3 -5 10 8 14 20 11 30 -6 15 -5 16
12 2 17 -14 18 -13 12 2 -7 20 17 43 34 32 7 -4 9 -3 6 3 -9 14 19 37 34 27 7
-4 9 -3 6 3 -10 17 62 68 76 54 6 -6 15 -11 21 -11 5 0 2 6 -8 13 -18 13 -17
15 12 35 16 12 34 22 39 22 4 0 1 -5 -7 -10 -11 -7 -11 -10 -2 -10 7 0 16 9
20 20 8 20 204 162 327 236 39 23 111 67 160 98 50 31 146 84 215 117 69 33
189 92 266 131 78 38 148 70 155 72 8 1 61 20 119 43 203 80 246 96 350 130
465 151 962 247 1459 282 73 6 135 11 136 13 2 2 7 54 11 116 4 68 10 108 15
100 6 -9 9 -6 9 10 0 13 -4 20 -10 17 -5 -3 -10 1 -10 9 0 9 3 17 8 17 57 9
59 8 68 -29 8 -33 10 -34 16 -14 3 12 2 20 -3 16 -5 -3 -9 4 -9 15 0 14 5 19
16 14 11 -4 14 -13 9 -30 -4 -17 -2 -23 6 -17 9 5 11 -22 8 -107 l-4 -114 50
1 c96 3 491 -17 645 -32 972 -95 1907 -425 2694 -950 l79 -53 71 26 c39 14 74
29 78 32 7 6 -283 168 -502 279 -69 35 -132 70 -140 77 -8 7 -30 20 -48 29
-18 9 -30 21 -27 26 3 6 -1 7 -10 3 -10 -3 -20 -1 -24 4 -3 6 -28 20 -56 32
-44 19 -48 24 -32 33 11 5 33 8 50 5 18 -2 41 2 54 10 14 9 23 11 28 4 3 -6
14 -11 23 -11 15 0 15 2 2 10 -22 14 -11 12 47 -9 29 -10 73 -33 98 -50 25
-17 48 -31 51 -31 9 0 89 -55 97 -67 4 -7 13 -13 20 -13 7 0 6 4 -3 10 -8 5
-10 10 -4 10 5 0 15 -5 21 -11 6 -6 17 -9 23 -7 6 2 -29 40 -78 85 -49 45 -91
80 -94 78 -2 -2 -49 39 -104 93 -55 53 -110 104 -122 112 -16 11 -20 21 -16
38 4 12 11 22 16 22 5 0 6 -5 2 -11 -5 -9 1 -10 22 -5 19 4 24 3 15 -2 -16
-11 -8 -16 42 -30 36 -10 55 2 22 14 -8 4 -15 11 -15 17 0 7 4 7 12 -1 16 -16
31 -15 22 1 -5 6 16 -8 44 -32 29 -24 60 -58 69 -75 16 -31 35 -49 83 -76 26
-14 67 -48 184 -150 28 -25 71 -61 95 -80 23 -19 53 -44 65 -55 29 -25 66 -57
138 -118 46 -39 61 -47 82 -41 14 3 39 1 56 -5 28 -9 42 -5 136 42 57 28 104
54 104 57 0 3 -33 27 -73 53 -40 26 -101 69 -137 94 -36 26 -141 99 -235 163
-326 224 -350 241 -347 251 1 6 -2 8 -8 4 -6 -4 -27 7 -48 23 -20 16 -53 37
-72 47 -19 10 -78 50 -130 88 -101 76 -132 101 -87 74 19 -13 32 -15 45 -8 12
6 23 6 33 -1 12 -8 11 -9 -2 -5 -9 3 -22 1 -30 -4 -11 -7 -10 -9 4 -9 10 0 16
-4 13 -9 -3 -5 3 -11 13 -14 14 -3 18 -1 14 10 -3 8 0 18 6 22 7 5 -43 33
-126 71 -76 35 -181 83 -233 107 -119 56 -173 77 -385 148 -399 134 -541 174
-840 233 -110 23 -211 42 -225 44 l-25 4 30 15 c17 9 36 14 42 12 7 -3 19 2
27 10 13 13 30 12 133 -8 65 -13 161 -33 213 -46z m-1723 -311 c-3 -7 -5 -2
-5 12 0 14 2 19 5 13 2 -7 2 -19 0 -25z m4655 -7 c-1 -7 2 -10 7 -7 5 3 19 -2
32 -12 13 -10 37 -24 52 -32 16 -8 45 -28 64 -45 31 -27 34 -34 25 -52 -6 -11
-9 -30 -7 -42 4 -20 -1 -19 -46 14 -28 20 -75 56 -104 80 -30 24 -61 48 -71
53 -16 9 -16 11 2 36 19 26 51 31 46 7z m283 -261 c-9 -15 15 -42 31 -36 7 3
16 1 18 -3 3 -5 17 -6 31 -3 15 2 25 0 25 -7 0 -7 -6 -9 -12 -5 -10 5 -10 3 0
-7 11 -12 14 -12 22 1 7 12 12 11 32 -5 13 -10 34 -30 47 -45 13 -14 20 -18
16 -10 -5 8 8 -1 28 -19 21 -19 37 -41 37 -49 0 -7 5 -10 11 -7 14 10 49 -24
42 -41 -6 -17 -24 -19 -22 -1 3 25 -1 38 -13 36 -7 -1 -21 1 -31 6 -15 6 -16
10 -5 17 8 6 5 7 -12 2 -22 -6 -23 -5 -11 10 13 16 7 21 -20 18 -4 -1 -21 17
-39 39 -17 22 -35 38 -38 35 -3 -4 3 -13 14 -21 14 -11 15 -14 4 -15 -10 0 -6
-6 10 -18 14 -9 26 -26 26 -37 -1 -14 5 -19 18 -17 11 2 15 -1 11 -7 -4 -7 1
-8 12 -4 15 5 16 3 6 -8 -11 -11 -18 -9 -40 8 -16 12 -26 27 -25 35 2 7 0 10
-3 6 -11 -10 -47 11 -40 23 4 5 3 8 -2 7 -11 -4 -143 99 -143 111 0 8 10 21
17 21 2 0 1 -5 -2 -10z m90 -20 c3 -6 -1 -7 -9 -4 -18 7 -21 14 -7 14 6 0 13
-4 16 -10z m135 -141 c0 -4 -6 -9 -13 -12 -8 -3 -14 0 -14 7 0 7 6 13 14 13 7
0 13 -4 13 -8z m65 -58 c5 -1 10 -7 11 -14 3 -40 4 -40 24 -22 19 17 21 17 62
-17 24 -20 68 -59 98 -88 489 -462 864 -906 1196 -1414 120 -182 125 -190 181
-286 298 -506 502 -954 689 -1510 45 -135 86 -244 91 -243 6 1 8 -9 5 -22 -2
-13 1 -39 8 -58 6 -20 13 -48 16 -63 3 -15 21 -89 40 -165 18 -75 34 -143 34
-150 1 -34 14 -39 70 -25 30 7 82 19 115 26 33 7 69 18 80 23 44 22 220 52
238 40 7 -4 2 -10 -13 -14 l-25 -7 24 -1 c17 -1 22 -5 17 -17 -4 -11 3 -19 24
-27 17 -6 29 -16 27 -22 -2 -5 -41 -18 -88 -29 -119 -27 -421 -104 -425 -109
-3 -2 6 -65 20 -138 14 -74 28 -158 32 -187 4 -35 10 -49 15 -40 5 7 6 -3 2
-24 -3 -23 -1 -43 6 -52 6 -7 11 -29 11 -47 -1 -30 5 -84 9 -99 1 -3 10 6 21
20 l20 25 -10 -27 c-7 -21 -6 -27 3 -25 6 1 13 -8 15 -20 3 -19 10 -23 40 -23
51 0 57 -16 81 -209 5 -41 13 -68 24 -76 9 -7 17 -17 17 -24 0 -6 5 -11 10
-11 6 0 10 18 10 40 0 29 4 40 15 40 11 0 15 -12 15 -44 0 -26 6 -48 15 -56 8
-7 15 -18 15 -24 0 -11 45 -36 65 -36 13 0 38 -57 30 -70 -3 -5 -2 -10 3 -10
6 0 13 7 16 16 15 40 26 -6 26 -111 0 -69 4 -116 10 -120 6 -4 10 -16 8 -28
-4 -29 20 -26 132 18 47 18 102 38 123 45 l37 12 0 56 c0 70 -26 441 -40 577
-25 241 -106 759 -129 830 -6 17 -17 71 -26 120 -32 174 -120 498 -217 795
-181 553 -399 1041 -700 1570 -8 14 -25 43 -37 65 -46 80 -146 242 -193 312
-26 40 -48 76 -48 81 0 5 -9 17 -20 27 -11 10 -20 23 -19 29 0 6 3 6 6 -2 2
-6 9 -10 14 -6 5 3 9 -3 9 -13 1 -16 2 -16 10 -1 22 36 81 -13 73 -61 -3 -19
-1 -21 10 -13 10 9 14 8 14 -3 0 -8 -4 -12 -9 -9 -4 3 -8 1 -8 -4 0 -17 13
-22 29 -9 14 10 14 10 3 -5 -10 -12 -11 -22 -3 -37 6 -11 11 -23 11 -28 -1 -4
-8 6 -17 22 -9 17 -18 25 -20 19 -7 -20 31 -71 49 -68 15 2 16 -1 7 -18 -10
-18 -9 -20 5 -15 16 6 20 -3 17 -32 -2 -7 2 -10 8 -7 6 4 20 -8 32 -26 14 -23
19 -26 14 -10 -3 12 -2 22 3 22 16 0 44 -38 36 -51 -5 -8 -3 -10 6 -4 10 6 12
4 6 -11 -4 -10 -4 -15 0 -11 10 10 56 -61 48 -75 -4 -6 -3 -8 3 -5 5 3 32 -33
58 -81 27 -48 71 -127 98 -177 88 -160 232 -457 319 -661 333 -774 538 -1550
632 -2384 56 -498 68 -989 36 -1480 -68 -1025 -308 -1990 -726 -2923 -47 -105
-250 -514 -264 -532 -4 -5 -30 -54 -59 -107 -59 -111 -245 -415 -352 -574
-315 -470 -652 -879 -1058 -1284 -317 -316 -605 -565 -958 -827 -294 -219
-790 -536 -798 -511 -2 7 -62 191 -134 409 -72 217 -131 402 -131 410 0 8 57
51 126 94 146 93 450 309 600 427 956 748 1737 1744 2237 2850 370 817 589
1686 652 2583 18 252 21 802 5 1015 -119 1663 -709 3126 -1779 4411 -146 175
-545 585 -740 761 -50 45 -81 80 -77 87 5 7 13 8 24 2 9 -5 21 -10 27 -10z
m-2280 -41 c3 -5 2 -10 -4 -10 -5 0 -13 5 -16 10 -3 6 -2 10 4 10 5 0 13 -4
16 -10z m-10783 -67 c38 -34 12 -93 -41 -93 -34 0 -51 17 -51 49 0 52 54 78
92 44z m10478 -63 c-20 -13 -33 -13 -25 0 3 6 14 10 23 10 15 0 15 -2 2 -10z
m30 -16 c0 -8 -19 -13 -24 -6 -3 5 1 9 9 9 8 0 15 -2 15 -3z m75 -44 c-3 -5
-12 -10 -18 -10 -7 0 -6 4 3 10 19 12 23 12 15 0z m40 0 c3 -5 1 -10 -4 -10
-6 0 -11 5 -11 10 0 6 2 10 4 10 3 0 8 -4 11 -10z m4186 -560 c6 0 7 -5 3 -11
-7 -11 -44 37 -44 56 1 6 8 -2 16 -17 8 -16 19 -28 25 -28z m74 -33 c2 -22 -1
-25 -12 -16 -9 8 -10 15 -3 24 8 9 8 15 0 18 -6 3 -5 4 2 3 7 -1 13 -14 13
-29z m-25 -23 c0 -2 -9 0 -20 6 -11 6 -20 13 -20 16 0 2 9 0 20 -6 11 -6 20
-13 20 -16z m-6360 -30 c933 -85 1815 -436 2562 -1020 635 -497 1160 -1180
1477 -1921 208 -487 341 -1027 379 -1538 14 -197 7 -749 -12 -905 -38 -318
-107 -649 -189 -915 -39 -126 -131 -385 -148 -417 -10 -18 -8 -24 15 -41 33
-23 33 -44 0 -108 l-25 -51 -22 20 c-12 12 -27 18 -33 14 -9 -6 -174 -325
-174 -337 0 -2 16 3 35 11 45 18 42 19 61 -17 11 -22 18 -28 24 -20 5 9 9 5
13 -11 4 -12 8 -25 9 -27 2 -2 -8 -8 -22 -12 -23 -8 -23 -8 -7 5 10 8 15 16
10 19 -12 8 -44 -18 -35 -29 4 -4 -2 -2 -12 6 -18 14 -19 13 -13 -4 6 -16 5
-17 -8 -6 -13 11 -14 10 -9 -4 4 -10 1 -16 -9 -16 -8 0 -17 -5 -19 -10 -2 -6
-29 -21 -61 -34 -58 -23 -60 -25 -165 -182 -189 -284 -388 -528 -623 -762
-130 -130 -364 -341 -388 -350 -4 -1 -63 167 -131 373 -103 314 -126 375 -139
369 -50 -21 -58 -17 -75 32 -21 62 -21 61 19 75 24 9 34 18 30 28 -3 9 35 55
103 125 628 646 1000 1421 1119 2331 23 177 26 739 5 905 -39 302 -74 471
-154 735 -200 667 -580 1275 -1099 1762 -628 588 -1403 949 -2276 1060 -193
25 -725 24 -933 -1 -894 -107 -1697 -492 -2339 -1121 -249 -244 -439 -479
-612 -758 -426 -684 -634 -1484 -598 -2291 45 -976 441 -1897 1119 -2599 l130
-135 -147 -446 -148 -447 -120 103 c-503 431 -927 984 -1221 1593 -560 1159
-632 2521 -199 3740 193 543 484 1050 867 1510 134 162 440 466 606 603 380
315 740 537 1187 734 209 93 271 116 486 182 633 195 1257 260 1909 200z
m6430 -38 c0 -2 -6 -9 -14 -15 -11 -9 -16 -9 -22 0 -4 7 -3 9 4 5 6 -3 13 -2
17 4 6 10 15 14 15 6z m64 -61 c-3 -7 3 -15 13 -17 16 -3 16 -4 -3 -10 -17 -4
-21 -1 -19 16 0 11 -6 30 -14 41 -16 20 -16 20 6 2 12 -11 19 -25 17 -32z
m-10000 -51 c35 -35 12 -94 -37 -94 -41 0 -57 15 -57 55 0 17 5 36 12 43 17
17 64 15 82 -4z m10047 -1 c13 -16 12 -17 -3 -4 -17 13 -22 21 -14 21 2 0 10
-8 17 -17z m135 -204 c9 -18 10 -30 4 -34 -6 -4 -10 -3 -9 2 4 21 -2 34 -13
27 -7 -5 -8 -3 -4 5 5 7 0 22 -11 34 -17 20 -17 21 0 8 10 -8 25 -27 33 -42z
m40 -64 c18 -28 10 -53 -12 -34 -8 6 -14 16 -14 22 0 6 7 2 15 -9 15 -20 19
-16 9 10 -3 9 -13 16 -21 16 -8 0 -11 5 -8 10 9 15 13 13 31 -15z m-13478
-185 c22 -18 22 -20 7 -44 -19 -28 -37 -25 -55 9 -11 20 -11 27 0 40 16 19 20
19 48 -5z m1038 -232 c-8 -13 -28 -43 -43 -66 -39 -62 -66 -84 -126 -104 -39
-13 -45 -17 -22 -15 17 1 35 5 42 10 23 16 1 -33 -23 -52 -13 -10 -21 -20 -19
-23 2 -2 -6 -16 -18 -31 -19 -23 -27 -26 -59 -21 -21 4 -35 11 -32 16 3 5 13
7 23 3 12 -5 13 -3 4 6 -9 9 2 31 47 98 101 150 114 164 167 182 69 25 79 24
59 -3z m21 -94 c-3 -3 -12 -4 -19 -1 -8 3 -5 6 6 6 11 1 17 -2 13 -5z m-547
-82 c26 -21 30 -67 9 -87 -26 -25 -55 -26 -82 -4 -37 29 -37 73 1 93 36 20 45
20 72 -2z m5604 -245 c28 -21 18 -87 -16 -107 -40 -22 -82 2 -86 49 -6 58 54
93 102 58z m-6597 -229 c-39 -75 -45 -83 -89 -99 l-47 -18 16 34 c9 19 21 31
26 28 6 -3 7 -1 4 4 -14 22 30 86 74 109 24 13 47 23 51 24 4 0 -12 -37 -35
-82z m1915 -73 c2 -14 -3 -20 -16 -20 -11 0 -22 -7 -24 -15 -3 -8 -9 -18 -14
-21 -5 -3 -1 -12 8 -20 10 -8 15 -9 11 -2 -4 6 -3 22 2 35 9 20 16 10 12 -15
-1 -5 3 -6 9 -2 6 3 7 11 4 17 -5 7 -2 8 6 3 8 -5 11 -4 7 2 -4 6 0 16 8 23
25 21 17 -1 -26 -66 -37 -58 -76 -94 -62 -59 3 8 9 13 13 10 18 -11 17 35 -2
51 -19 18 -19 17 -9 -9 12 -32 3 -40 -24 -21 -17 13 -14 19 8 15 5 -1 6 3 3 8
-8 12 65 124 75 114 4 -4 9 -17 11 -28z m-87 -135 c0 -8 4 -21 9 -28 5 -8 -1
-25 -16 -45 -14 -18 -28 -40 -31 -51 -6 -15 -10 -16 -22 -6 -12 10 -16 9 -21
-4 -3 -9 -11 -16 -16 -16 -6 0 -7 7 -4 16 5 14 4 15 -9 4 -17 -14 -21 -35 -5
-25 12 8 13 -5 1 -24 -5 -7 -14 -10 -20 -7 -6 4 -11 2 -11 -3 0 -17 30 -13 36
4 4 8 10 13 14 10 4 -3 11 7 14 22 5 17 10 23 17 16 11 -11 -49 -125 -62 -118
-4 3 -6 -1 -5 -8 2 -21 -97 -197 -107 -190 -6 3 -7 1 -3 -5 5 -9 -94 -226
-111 -241 -3 -3 -3 -1 0 5 3 6 1 11 -6 11 -7 0 -13 -8 -13 -18 0 -10 5 -15 10
-12 11 7 13 13 -49 -132 -26 -60 -53 -113 -59 -117 -6 -4 -7 -8 -3 -8 5 0 5
-6 0 -12 -4 -7 -8 -19 -10 -27 -1 -8 -5 -17 -10 -20 -4 -3 -8 -10 -8 -16 0
-21 -27 -85 -33 -81 -4 2 -7 -8 -8 -22 -2 -38 -80 -252 -89 -244 -5 4 -5 2 -2
-5 4 -6 -9 -67 -29 -135 -323 -1118 -307 -2302 47 -3416 368 -1155 1132 -2212
2122 -2936 37 -28 67 -56 67 -64 0 -8 -62 -200 -137 -428 l-137 -413 -126 86
c-659 452 -1255 1043 -1713 1698 -171 245 -414 655 -401 676 4 8 3 9 -4 5 -18
-11 -45 52 -38 88 5 26 4 28 -6 12 -10 -18 -13 -15 -33 25 -18 34 -21 48 -12
64 9 17 8 18 -5 7 -13 -10 -17 -10 -22 3 -3 9 -2 13 4 10 6 -3 10 1 10 10 0
11 -5 15 -14 12 -10 -4 -13 -1 -9 8 3 8 9 12 14 9 5 -3 9 0 9 5 0 15 -13 14
-29 -1 -10 -11 -11 -9 -5 6 5 13 4 17 -3 13 -6 -4 -14 0 -17 9 -9 23 3 32 15
14 13 -19 1 28 -13 50 -7 11 -8 10 -3 -5 6 -20 6 -20 -13 1 -25 27 -45 64 -38
72 3 3 6 -1 6 -9 1 -10 4 -9 11 4 11 19 3 41 -12 31 -5 -3 -8 -2 -7 3 1 4 -1
17 -4 28 -3 11 -9 33 -13 50 -6 29 -7 29 -21 11 -18 -26 -18 -16 1 20 8 16 15
38 14 49 0 19 -1 19 -8 1 -7 -17 -8 -17 -14 -3 -4 10 -14 14 -27 12 -19 -4
-22 -1 -24 28 -1 6 -5 16 -11 20 -6 5 -3 7 7 4 9 -3 19 1 22 9 3 8 2 13 -3 10
-11 -7 -8 70 3 81 4 4 4 -1 0 -11 -5 -14 -4 -17 5 -12 9 6 10 0 6 -21 -5 -21
-4 -24 4 -13 9 13 11 13 11 -1 0 -15 38 -109 61 -151 14 -27 11 -34 -6 -12 -8
11 -14 14 -15 6 0 -7 9 -20 21 -30 24 -20 32 -33 58 -101 12 -28 17 -51 12
-51 -4 0 -16 26 -26 57 -10 32 -20 53 -22 46 -2 -6 3 -28 11 -48 19 -44 19
-45 6 -45 -5 0 -10 8 -10 17 0 13 -3 14 -11 6 -9 -9 -8 -16 3 -27 9 -8 18 -13
21 -10 14 15 55 -24 80 -77 25 -51 27 -62 15 -77 -11 -15 -11 -15 2 -5 13 10
25 -7 79 -110 136 -262 405 -688 555 -880 179 -230 262 -332 351 -432 215
-241 492 -509 735 -711 174 -145 536 -412 545 -402 7 8 215 667 214 679 0 8
-49 51 -108 97 -204 156 -366 297 -552 482 -102 102 -210 212 -240 246 -30 33
-70 78 -89 100 -111 123 -313 389 -437 574 -507 760 -820 1570 -952 2460 -45
304 -55 468 -56 866 l0 382 -32 -5 c-47 -8 -79 3 -113 39 -26 27 -28 33 -17
47 9 10 11 26 6 46 -6 29 -7 28 -8 -9 -1 -31 -4 -37 -13 -28 -16 16 5 82 37
114 33 33 76 41 125 24 l39 -13 5 36 c3 20 13 92 22 161 34 270 149 789 205
927 7 15 12 31 11 35 -1 6 20 74 35 108 3 8 8 23 10 33 1 10 10 31 18 47 8 16
15 35 15 42 0 7 6 25 14 40 8 15 17 40 21 57 4 17 11 29 16 26 5 -4 6 1 3 9
-3 8 2 28 11 45 8 17 29 68 45 113 42 114 161 349 173 341 6 -3 7 -1 3 5 -9
15 56 140 70 135 6 -2 16 8 22 22 13 29 6 33 -15 8 -7 -10 3 14 23 52 21 39
44 78 52 88 8 9 12 17 9 17 -4 0 11 28 33 63 57 90 71 109 78 103 3 -4 -4 -17
-16 -29 -12 -13 -19 -27 -15 -30 12 -12 22 -7 17 8 -4 8 -1 15 5 15 6 0 11 -4
11 -10 0 -24 21 -7 27 21 4 22 10 29 22 24 9 -3 5 3 -8 13 -15 13 -21 24 -16
32 6 9 4 11 -5 5 -9 -5 -11 -4 -6 4 10 16 41 9 41 -9z m-35 -51 c0 -16 -4 -29
-10 -29 -5 0 -7 7 -4 15 4 8 1 21 -5 29 -6 7 -8 16 -5 19 13 12 24 -4 24 -34z
m5318 -64 c356 -37 698 -135 1017 -291 329 -160 594 -353 856 -620 476 -487
771 -1101 853 -1769 47 -386 20 -775 -80 -1155 -90 -344 -266 -713 -482 -1013
-30 -42 -59 -74 -62 -70 -4 5 -87 253 -185 552 l-178 543 28 87 c15 47 38 129
51 181 l24 95 -21 16 c-17 12 -19 18 -9 24 9 5 11 4 6 -3 -10 -17 3 -15 21 3
10 10 14 28 11 50 -2 18 -1 32 3 29 27 -16 31 422 5 596 -58 393 -217 762
-455 1060 -140 176 -388 395 -576 510 -256 157 -586 272 -885 309 -127 16
-431 14 -562 -5 -725 -99 -1359 -560 -1679 -1219 -73 -151 -116 -267 -154
-412 -98 -376 -91 -790 21 -1159 19 -66 38 -131 41 -145 3 -18 -51 -197 -172
-565 -97 -297 -179 -541 -182 -544 -7 -7 -42 39 -128 167 -252 376 -414 797
-487 1263 -19 126 -22 183 -22 435 0 314 11 420 69 680 284 1264 1365 2229
2656 2369 172 19 479 19 657 1z m7081 -936 c-16 -10 -23 -4 -14 10 3 6 11 8
17 5 6 -4 5 -9 -3 -15z m18 -31 c-3 -8 -6 -5 -6 6 -1 11 2 17 5 13 3 -3 4 -12
1 -19z m-15 -17 c2 -17 1 -28 -4 -25 -8 5 -12 54 -4 54 2 0 6 -13 8 -29z m165
-185 c18 -13 30 -26 27 -29 -4 -4 1 -9 10 -13 9 -3 16 -10 16 -16 0 -9 -62 32
-114 77 -16 14 -33 25 -38 25 -4 0 -8 4 -8 10 0 10 48 -14 107 -54z m-4313
-22 c9 -3 16 -13 16 -20 0 -8 6 -17 14 -20 8 -3 12 -12 9 -20 -3 -8 0 -14 7
-14 6 0 8 -5 5 -10 -4 -6 -10 -8 -15 -5 -4 3 -16 -7 -25 -22 l-18 -27 -29 34
c-29 36 -35 50 -18 50 6 0 10 -6 10 -14 0 -7 7 -19 15 -26 12 -10 15 -10 15 3
0 8 -7 20 -15 27 -17 14 -21 35 -5 25 12 -7 42 20 33 29 -11 11 -34 6 -27 -6
4 -6 3 -8 -4 -4 -6 3 -15 -2 -21 -11 -6 -10 -11 -14 -11 -9 0 12 30 46 41 46
4 0 14 -3 23 -6z m4809 -91 c-7 -2 -19 -2 -25 0 -7 3 -2 5 12 5 14 0 19 -2 13
-5z m-4751 -18 c8 -12 1 -25 -15 -25 -7 0 -6 4 3 10 11 7 12 10 2 10 -8 0 -16
-9 -19 -20 -3 -11 -9 -20 -14 -20 -4 0 -3 13 2 30 10 29 27 35 41 15z m-3187
-575 c340 -39 660 -230 846 -507 224 -331 269 -739 124 -1109 -57 -143 -136
-265 -252 -385 -46 -47 -83 -90 -83 -95 0 -4 70 -222 156 -484 307 -936 658
-2003 809 -2460 84 -256 219 -667 300 -915 l147 -450 53 -50 c52 -50 67 -77
99 -184 l16 -53 -27 26 c-14 14 -30 26 -34 26 -5 0 -9 5 -9 12 0 6 10 3 23 -8
12 -10 17 -12 10 -5 -6 7 -9 21 -6 30 3 10 2 12 -4 5 -4 -6 -18 -10 -30 -9
-13 1 -23 1 -23 -1 0 -1 35 -107 79 -236 43 -128 131 -395 195 -593 101 -310
483 -1474 551 -1680 13 -38 87 -264 165 -502 l142 -431 34 14 34 14 0 -47 c0
-27 -7 -60 -14 -75 -13 -25 -12 -37 19 -135 37 -119 162 -496 249 -752 60
-175 63 -186 44 -175 -7 4 -4 -2 6 -14 11 -12 19 -36 19 -52 0 -17 3 -30 7
-30 4 0 7 -7 7 -16 0 -14 -2 -14 -14 2 -7 10 -13 21 -13 25 0 12 -40 -2 -41
-15 0 -6 -6 5 -12 24 -9 24 -9 37 -2 42 6 5 6 8 -2 8 -7 0 -13 6 -13 14 0 8
-5 16 -11 18 -6 2 -12 15 -12 30 -1 14 -4 24 -6 22 -3 -3 -28 18 -55 45 -59
57 -195 137 -201 118 -2 -6 -11 -157 -21 -334 l-16 -322 22 -28 c19 -24 31
-29 88 -34 106 -10 203 -31 199 -43 -2 -6 -30 -27 -63 -46 -56 -33 -63 -35
-143 -33 -60 1 -90 -2 -105 -12 -33 -24 -100 -19 -133 9 -25 22 -28 31 -30 91
-1 56 -8 79 -41 145 -54 106 -50 109 38 31 l45 -40 7 57 c14 131 40 630 33
643 -3 4 -29 21 -58 37 -28 16 -83 47 -122 69 -38 22 -105 59 -149 82 l-78 42
6 -36 c4 -20 18 -57 32 -82 13 -26 44 -90 68 -142 25 -53 67 -144 95 -204 28
-59 51 -109 51 -111 0 -2 24 -55 54 -117 30 -63 53 -116 51 -118 -8 -8 -95 24
-95 35 0 6 -10 33 -22 60 -20 46 -142 363 -193 502 -25 70 -41 93 -31 47 3
-16 8 -84 10 -151 4 -123 21 -239 38 -261 5 -7 7 -17 3 -23 -3 -5 -1 -10 5
-10 6 0 4 -7 -5 -16 -15 -15 -14 -19 16 -48 28 -27 70 -102 73 -131 1 -5 9
-36 19 -69 10 -32 16 -61 13 -64 -3 -3 -28 16 -55 41 -28 26 -53 47 -57 47 -3
0 -3 -60 1 -132 l6 -133 -64 185 c-69 201 -80 224 -117 255 -14 11 -61 53
-106 93 -45 39 -86 72 -91 72 -6 0 -18 -21 -28 -47 -14 -37 -16 -50 -6 -66 7
-10 8 -16 3 -13 -16 10 -39 -44 -108 -249 -35 -104 -68 -199 -74 -210 -5 -11
-32 -87 -60 -169 -27 -82 -53 -152 -56 -155 -4 -3 -3 5 1 19 6 20 5 23 -6 13
-17 -17 -50 11 -43 35 5 14 4 14 -6 0 -13 -20 -41 -24 -35 -5 2 6 46 143 99
302 52 160 98 311 102 335 4 30 14 52 31 66 l25 21 -28 22 c-27 21 -41 51 -24
51 11 0 31 -26 24 -32 -3 -3 -1 -9 5 -13 6 -3 11 -1 11 5 0 6 9 32 21 57 11
25 27 66 34 89 l13 44 -94 81 c-52 45 -179 155 -281 245 -103 90 -194 164
-203 164 -31 1 -380 -74 -380 -81 0 -4 66 -47 148 -95 81 -48 231 -138 335
-201 103 -62 192 -113 197 -113 6 0 10 -5 10 -12 0 -6 3 -9 6 -5 3 3 44 -19
90 -49 47 -30 89 -54 94 -54 5 0 11 -4 14 -8 7 -11 -65 -14 -82 -3 -8 4 -13
12 -13 17 1 5 -3 9 -8 9 -5 0 -13 3 -17 7 -11 12 -21 9 -21 -5 0 -9 10 -13 24
-11 18 2 22 -1 14 -10 -6 -7 -7 -16 -3 -20 4 -4 -7 0 -25 10 -17 10 -29 22
-26 27 3 5 -1 7 -8 5 -25 -5 -89 41 -83 60 5 14 4 15 -5 2 -9 -13 -14 -13 -32
-1 -13 7 -43 25 -68 39 -25 14 -47 29 -49 34 -2 4 -8 8 -14 8 -5 0 -51 24
-101 54 -129 76 -400 232 -477 276 -36 20 -96 56 -135 79 -38 24 -97 60 -130
79 -33 19 -93 55 -132 79 -40 23 -75 43 -79 43 -7 0 -147 82 -154 90 -3 4
-115 71 -250 149 -135 79 -309 182 -388 228 -79 47 -149 82 -157 79 -8 -3 -94
-52 -192 -109 -98 -58 -194 -114 -213 -125 -151 -86 -287 -166 -297 -174 -7
-5 -18 -6 -25 -2 -7 4 -10 4 -6 -1 8 -8 -63 -55 -146 -97 l-41 -21 19 21 c15
17 16 23 5 26 -41 13 -43 14 -22 15 12 1 25 5 28 11 4 6 -1 7 -12 4 -27 -9 77
55 422 261 170 102 313 189 318 194 8 8 -12 21 -253 162 -69 40 -168 98 -220
129 -52 31 -121 71 -152 89 l-58 32 -27 -18 c-16 -11 -109 -66 -208 -123 -352
-202 -391 -224 -462 -267 -40 -24 -75 -43 -79 -43 -3 0 -19 -9 -35 -21 -27
-19 -34 -18 -30 4 2 12 -34 -10 -50 -30 -13 -17 -13 -17 7 0 11 9 24 17 28 17
14 0 -6 -20 -34 -35 -28 -14 -29 -14 -25 6 3 12 2 19 -2 15 -9 -8 -34 14 -27
25 3 5 14 5 25 -1 24 -13 44 -4 30 14 -7 8 -4 15 9 24 11 6 22 8 25 3 3 -5 0
-12 -5 -14 -6 -3 -5 -4 2 -3 7 2 12 11 12 20 -1 9 3 16 8 16 5 0 16 7 25 16 9
8 22 13 30 10 9 -4 11 -2 7 6 -5 8 -2 9 10 5 9 -4 15 -3 12 2 -5 8 87 65 589
363 88 52 158 99 155 104 -5 10 -1151 686 -1155 682 -1 -2 -69 -204 -150 -451
-82 -246 -150 -445 -152 -443 -3 2 -6 10 -7 18 -1 7 -7 23 -14 35 -7 12 -12
29 -12 39 0 25 32 124 39 120 3 -2 6 8 7 22 1 15 45 161 99 326 62 192 93 301
87 305 -6 3 -88 51 -182 106 -234 137 -306 189 -361 261 l-46 61 -81 -246
c-116 -353 -133 -401 -145 -394 -6 3 -7 1 -3 -6 8 -13 -24 -130 -49 -177 l-15
-29 -1 25 c0 23 -1 23 -9 5 l-9 -20 0 20 c-1 16 -3 17 -11 5 -7 -12 -10 -11
-16 5 -5 11 -3 20 4 23 7 2 10 8 7 12 -3 5 8 44 25 87 16 43 30 83 30 89 0 6
26 91 58 190 33 98 82 249 109 334 28 85 119 362 201 615 83 253 277 845 431
1315 154 470 287 880 295 910 8 30 53 168 100 305 47 138 178 534 291 880 261
795 620 1890 690 2102 l53 163 -83 85 c-385 393 -452 986 -163 1453 98 159
309 351 477 436 77 39 243 92 331 105 155 23 203 24 325 11z m7505 -109 c0
-10 2 -34 5 -52 4 -28 4 -30 -3 -9 -18 53 -22 80 -12 80 5 0 10 -8 10 -19z
m190 -321 c0 -11 -7 -20 -15 -20 -13 0 -14 4 -5 20 6 11 13 20 15 20 3 0 5 -9
5 -20z m-9020 -1093 c-4 -5 -11 5 -15 22 -6 30 -20 41 -27 21 -1 -5 -3 21 -3
60 l-1 70 27 -83 c15 -45 23 -86 19 -90z m-96 115 c3 -5 -1 -9 -9 -9 -8 0 -12
4 -9 9 3 4 7 8 9 8 2 0 6 -4 9 -8z m21 -32 c-4 -11 -2 -20 4 -20 6 0 11 5 11
12 0 6 2 9 5 6 7 -7 -5 -38 -15 -38 -12 0 -20 28 -14 45 9 22 16 18 9 -5z
m-50 0 c-4 -6 1 -22 9 -35 9 -14 14 -25 11 -25 -11 0 -36 50 -30 60 3 5 8 10
11 10 3 0 2 -5 -1 -10z m5804 -1805 c1 20 4 26 11 19 7 -7 6 -21 -3 -43 -11
-26 -15 -30 -21 -16 -3 9 -5 31 -5 48 l2 32 7 -35 c7 -34 7 -34 9 -5z m229
-173 c18 -23 15 -56 -8 -85 -11 -14 -20 -30 -20 -35 0 -12 -28 -36 -46 -38 -8
-1 -14 3 -14 9 0 5 -3 7 -6 4 -4 -4 -1 -13 5 -21 17 -21 7 -33 -39 -47 -44
-13 -75 -6 -67 16 4 9 1 12 -9 8 -16 -6 -84 26 -84 39 0 5 4 16 9 26 6 9 12
29 15 43 3 14 17 31 30 39 14 7 23 18 19 23 -3 6 -1 7 5 3 7 -4 22 0 34 8 12
9 36 16 53 17 16 0 39 4 50 9 25 11 56 3 73 -18z m-10981 3 c0 -8 -4 -12 -9
-9 -5 3 -6 10 -3 15 9 13 12 11 12 -6z m3 -49 c0 -8 -8 -20 -17 -27 -16 -13
-17 -12 -4 3 7 10 11 25 7 33 -3 9 -2 13 4 10 6 -3 10 -12 10 -19z m45 -105
c3 -5 2 -12 -3 -15 -5 -3 -9 1 -9 9 0 17 3 19 12 6z m58 -207 c-4 -10 -9 -12
-15 -6 -12 12 -1 35 12 27 5 -3 6 -13 3 -21z m25 -70 c0 -17 -3 -22 -8 -13 -5
6 -6 18 -3 26 8 19 11 16 11 -13z m8236 -556 c28 -46 27 -72 -3 -120 -42 -66
-66 -70 -113 -20 -42 45 -50 89 -22 113 19 16 92 48 111 48 7 1 19 -9 27 -21z
m5306 -974 c0 -13 -42 -74 -51 -74 -15 0 -10 20 12 51 19 26 39 38 39 23z
m-12609 -1311 c13 -16 12 -17 -3 -4 -10 7 -18 15 -18 17 0 8 8 3 21 -13z
m7876 -110 c-8 22 37 19 62 -5 25 -22 26 -31 6 -48 -8 -7 -15 -23 -15 -36 0
-36 -36 -67 -70 -60 -18 3 -33 0 -40 -9 -7 -8 -18 -15 -25 -15 -16 0 -26 35
-13 48 7 7 3 17 -12 32 l-21 21 20 32 c29 47 59 60 90 40 21 -13 23 -13 18 0z
m-7767 -17 c0 -2 -8 -10 -17 -17 -16 -13 -17 -12 -4 4 13 16 21 21 21 13z m49
-20 c17 -19 20 -26 9 -32 -7 -4 -10 -3 -5 1 4 5 -3 19 -15 32 -12 13 -19 23
-16 23 2 0 15 -11 27 -24z m-34 -5 c3 -5 2 -12 -3 -15 -5 -3 -9 1 -9 9 0 17 3
19 12 6z m80 -41 c3 -6 -1 -7 -9 -4 -18 7 -21 14 -7 14 6 0 13 -4 16 -10z m84
-68 c16 -14 18 -20 8 -16 -13 5 -16 2 -11 -12 5 -18 5 -18 -10 0 -8 10 -13 23
-10 27 3 5 1 9 -5 9 -5 0 -11 -4 -13 -10 -2 -6 -8 -6 -18 0 -13 8 -12 10 3 10
20 0 22 11 5 30 -19 20 19 -7 51 -38z m130 -109 c27 -24 32 -33 19 -33 -10 0
-18 6 -18 13 0 7 -10 18 -22 26 -23 14 -23 13 -5 -7 11 -12 14 -22 8 -26 -5
-4 -14 2 -20 11 -6 10 -11 13 -11 8 0 -6 7 -21 16 -34 16 -22 15 -22 -4 -10
-16 10 -19 20 -15 53 4 39 3 40 -11 21 -16 -20 -16 -20 -31 -1 -13 17 -15 17
-15 3 0 -9 9 -21 21 -27 11 -7 18 -14 15 -18 -3 -3 -17 5 -31 18 -22 21 -23
25 -10 40 12 13 12 19 2 30 -9 10 -9 11 1 6 6 -4 12 -2 12 3 0 11 23 -7 99
-76z m21 -63 c13 -11 18 -21 12 -21 -31 -5 -35 -2 -37 19 -2 27 -3 27 25 2z
m44 -19 c-1 -17 1 -19 12 -10 8 6 11 16 7 23 -7 12 81 -57 109 -85 9 -9 14
-20 10 -25 -4 -4 0 -5 9 -2 9 4 30 -5 48 -19 73 -57 344 -244 454 -312 64 -40
120 -77 123 -82 6 -11 -66 -232 -77 -237 -4 -2 -5 -11 -2 -20 4 -10 -2 -7 -16
8 l-22 25 16 -33 c9 -18 12 -38 8 -45 -4 -7 -9 -20 -10 -31 -2 -10 -8 -26 -14
-35 -8 -13 -9 -12 -4 7 4 12 8 37 10 55 4 31 4 31 -9 9 -11 -21 -14 -21 -25
-8 -14 17 -5 80 10 70 5 -3 9 -3 9 0 0 2 3 13 6 23 5 15 4 16 -6 3 -9 -13 -10
-12 -6 5 3 11 8 32 12 47 3 16 9 26 13 24 3 -2 7 6 7 17 1 12 5 38 8 57 7 34
5 36 -45 65 -28 17 -59 37 -70 45 -10 8 -64 46 -121 83 -143 94 -193 133 -190
146 1 7 -3 11 -10 9 -14 -3 -78 32 -78 42 0 4 -22 21 -50 39 -27 18 -50 37
-50 42 0 5 -6 9 -13 9 -8 0 -22 9 -32 20 -22 25 -9 26 19 3 21 -18 21 -18 3 3
-9 11 -15 23 -12 26 3 3 -6 8 -20 10 -20 4 -25 2 -20 -10 5 -12 3 -13 -10 -2
-13 11 -13 15 -3 21 16 10 17 31 3 42 -6 5 -4 7 5 4 8 -2 14 -14 14 -26z
m10650 -456 c32 -30 32 -35 1 -82 -38 -58 -44 -63 -75 -63 -30 0 -60 30 -60
61 0 24 70 109 90 109 9 0 29 -11 44 -25z m-10046 -430 c-3 -3 -9 2 -12 12 -6
14 -5 15 5 6 7 -7 10 -15 7 -18z m-2 -27 c4 -7 3 -8 -4 -4 -7 4 -12 2 -12 -5
0 -7 -3 -10 -6 -6 -6 5 3 27 11 27 2 0 7 -5 11 -12z m7150 -730 c10 -29 17
-61 16 -70 0 -10 4 -18 10 -18 6 0 9 -2 6 -5 -8 -8 -39 6 -33 15 3 4 -6 11
-20 14 -14 4 -25 13 -25 22 0 8 4 12 10 9 6 -4 7 6 4 25 -4 19 -2 30 4 30 6 0
9 7 6 15 -4 8 -4 15 -1 15 3 0 13 -24 23 -52z m-6641 -110 c35 -38 36 -42 19
-48 -43 -15 -89 25 -77 68 8 31 15 28 58 -20z m7038 -55 c-6 -16 -5 -16 10 -5
18 15 37 8 37 -13 0 -7 7 -16 16 -19 8 -3 12 -11 9 -17 -4 -5 0 -18 8 -27 31
-36 29 -56 -10 -91 -32 -29 -43 -32 -76 -28 -50 7 -80 33 -72 64 4 16 0 25
-10 29 -19 8 -20 43 0 50 8 4 15 14 15 24 0 22 17 37 50 43 14 2 26 5 27 6 1
0 -1 -7 -4 -16z m2237 -250 c54 -31 63 -54 26 -71 -16 -7 -26 -22 -30 -46 -7
-36 -17 -42 -66 -37 -48 5 -60 12 -60 36 0 15 -6 25 -14 25 -15 0 -26 21 -26
50 0 21 33 45 81 58 19 6 35 11 36 11 2 1 25 -11 53 -26z m-8761 -251 c6 -13
9 -28 5 -33 -3 -5 -1 -8 3 -7 9 3 51 -40 197 -199 53 -57 55 -74 3 -20 -18 17
-46 42 -62 55 -17 13 -24 20 -17 17 22 -11 12 3 -40 57 -28 29 -48 47 -44 40
4 -7 3 -19 -3 -26 -9 -11 -8 -18 4 -30 21 -21 24 -20 18 4 -3 11 -1 20 5 20 5
0 12 -9 15 -20 3 -11 12 -20 21 -20 9 0 16 -4 16 -10 0 -5 -16 -9 -35 -8 -19
1 -35 5 -35 9 0 5 -6 6 -14 3 -16 -6 -29 21 -28 56 0 18 -1 20 -5 6 -4 -15 -7
-16 -14 -5 -6 11 -9 8 -9 -8 0 -31 -21 -29 -54 6 l-28 30 21 70 22 71 24 -17
c13 -10 28 -28 34 -41z m736 -160 c-3 -3 -5 0 -5 8 0 10 -3 10 -14 0 -13 -10
-13 -8 -3 14 12 24 12 24 20 4 4 -11 5 -23 2 -26z m-629 -41 c-3 -5 1 -14 9
-21 8 -7 15 -17 15 -23 0 -6 -10 1 -23 14 -14 15 -19 27 -12 31 14 10 17 10
11 -1z m-20 -50 c0 -16 -3 -17 -14 -9 -12 10 -7 19 13 28 1 0 1 -9 1 -19z m54
-61 l23 -35 -31 29 c-17 16 -29 33 -26 38 3 5 7 8 8 6 1 -2 13 -19 26 -38z
m157 -30 c13 -16 8 -30 -10 -30 -8 0 -8 3 2 9 17 11 -1 23 -22 15 -10 -3 -20
3 -28 18 -12 23 -12 23 10 4 22 -20 29 -9 9 14 -10 11 -9 11 7 0 11 -8 25 -22
32 -30z m-105 -24 c7 4 8 2 4 -5 -9 -13 -26 -5 -25 12 0 9 2 8 6 -1 2 -6 10
-9 15 -6z m53 4 c3 -6 -1 -7 -9 -4 -18 7 -21 14 -7 14 6 0 13 -4 16 -10z m89
-44 c-3 -9 -10 -13 -15 -10 -5 3 -3 11 4 19 15 16 19 13 11 -9z m1011 -94 c-3
-3 -11 0 -18 7 -9 10 -8 11 6 5 10 -3 15 -9 12 -12z m-1025 -2 c0 -5 -2 -10
-4 -10 -3 0 -8 5 -11 10 -3 6 -1 10 4 10 6 0 11 -4 11 -10z m890 -64 c0 -2 -7
-7 -16 -10 -8 -3 -12 -2 -9 4 6 10 25 14 25 6z m-621 -76 l22 -31 -21 -64
c-12 -36 -25 -65 -29 -65 -4 0 -19 16 -33 36 l-26 36 19 56 c23 65 22 65 7 56
-7 -4 -10 -4 -6 1 4 4 3 14 -3 21 -8 10 -4 10 18 -1 16 -8 39 -28 52 -45z
m-148 -7 c13 -16 12 -17 -3 -4 -17 13 -22 21 -14 21 2 0 10 -8 17 -17z m338
-202 c12 -16 21 -33 21 -39 0 -5 7 -15 15 -22 9 -7 13 -15 10 -18 -2 -3 -14 6
-26 19 -13 15 -19 18 -16 8 4 -13 1 -15 -15 -11 -14 3 -19 1 -14 -6 4 -8 2
-10 -7 -6 -8 3 -18 1 -22 -5 -12 -20 -41 -11 -63 18 l-22 30 48 30 c59 37 66
38 91 2z m-1100 -30 c19 -15 22 -23 16 -49 -3 -18 -11 -32 -15 -32 -5 0 -7 -8
-3 -17 3 -10 -5 -4 -18 12 -13 17 -27 31 -31 33 -4 2 -3 12 3 23 5 11 15 17
20 13 7 -4 7 1 0 15 -14 26 -4 27 28 2z m2501 -58 c-8 -4 -21 -13 -28 -22 -11
-14 -11 -13 -2 7 6 12 18 22 28 21 14 0 14 -2 2 -6z m-45 -55 c-9 -6 -19 -7
-22 -4 -4 3 -1 6 6 6 7 0 9 4 6 10 -4 6 1 7 11 3 15 -6 15 -7 -1 -15z m-1124
-125 c13 -16 12 -17 -3 -4 -17 13 -22 21 -14 21 2 0 10 -8 17 -17z m301 -313
c7 -11 21 -20 31 -20 27 0 13 -15 -49 -51 l-55 -31 -30 28 c-16 15 -29 31 -29
34 0 9 91 59 107 60 7 0 18 -9 25 -20z m1539 -71 c30 -30 22 -69 -19 -92 l-33
-19 -25 23 c-43 41 -24 109 32 109 13 0 33 -9 45 -21z m-1444 -40 c21 -34 10
-77 -21 -89 -34 -13 -60 -3 -86 33 l-23 30 32 29 c40 35 76 34 98 -3z m4028
-250 c11 -17 -1 -21 -15 -4 -8 9 -8 15 -2 15 6 0 14 -5 17 -11z m625 -85 c0
-8 -19 -13 -24 -6 -3 5 1 9 9 9 8 0 15 -2 15 -3z m747 -26 c-3 -8 -6 -5 -6 6
-1 11 2 17 5 13 3 -3 4 -12 1 -19z m87 -14 c3 -8 2 -12 -4 -9 -6 3 -10 10 -10
16 0 14 7 11 14 -7z m-1444 -4 c0 -5 -2 -10 -4 -10 -3 0 -8 5 -11 10 -3 6 -1
10 4 10 6 0 11 -4 11 -10z m-4749 -37 c13 -15 12 -15 -8 -4 -24 12 -29 21 -14
21 5 0 15 -7 22 -17z m4649 -69 c0 -3 -25 -16 -57 -30 l-56 -25 -26 25 c-14
14 -23 27 -20 29 2 2 28 15 58 28 l54 25 23 -23 c13 -13 24 -26 24 -29z m781
29 c13 -16 12 -17 -3 -4 -17 13 -22 21 -14 21 2 0 10 -8 17 -17z m833 -127 c9
-27 14 -51 11 -54 -3 -3 -5 0 -5 6 0 9 -7 8 -26 0 -23 -11 -28 -10 -41 7 -14
20 -15 20 -33 -2 -21 -26 -35 -30 -26 -8 7 20 -18 19 -39 -1 -10 -10 -26 -14
-41 -11 -27 5 -78 -15 -67 -26 3 -4 1 -7 -5 -7 -7 0 -12 -9 -12 -21 0 -15 -4
-19 -16 -15 -9 3 -34 6 -57 6 l-42 1 40 21 c22 11 58 37 80 58 31 30 62 46
145 73 58 19 108 31 112 28 3 -3 13 -28 22 -55z m-117 -80 c4 -5 -4 -6 -20 -2
-20 5 -27 3 -22 -5 5 -8 1 -9 -14 -4 -17 5 -20 3 -14 -12 6 -16 5 -16 -11 -4
-13 11 -20 11 -28 3 -15 -15 -28 -15 -28 -2 0 6 7 10 15 10 8 0 14 3 14 8 -1
4 -1 9 0 12 2 9 99 5 108 -4z m3145 -33 c27 -24 22 -55 -17 -109 -19 -27 -47
-68 -62 -91 -15 -23 -36 -44 -45 -46 -14 -4 -16 0 -11 27 3 17 14 38 24 47 17
15 17 18 3 30 -10 8 -13 22 -9 41 3 15 8 42 11 58 3 17 12 37 21 45 19 20 62
19 85 -2z m-8387 -72 l59 -27 -37 -26 -38 -26 -60 26 c-32 15 -59 30 -59 33 0
7 61 49 70 48 3 0 32 -13 65 -28z m5427 -30 c11 -10 47 -118 42 -124 -7 -6
-75 10 -84 20 -11 12 -40 91 -40 109 0 12 8 14 38 8 20 -3 40 -9 44 -13z
m-972 -150 c0 -5 3 -22 6 -38 6 -28 3 -31 -50 -56 -31 -15 -59 -27 -61 -27 -3
0 -5 18 -5 40 0 37 3 41 48 64 52 28 62 30 62 17z m2273 2 l39 -6 -6 -66 c-8
-101 -22 -140 -53 -147 -26 -7 -26 -7 -5 -15 16 -6 22 -17 22 -38 0 -16 5 -33
10 -36 19 -12 -1 -79 -32 -109 -39 -38 -81 -43 -109 -13 -41 43 -52 66 -40 81
9 11 9 15 0 18 -22 7 -1 38 26 38 21 0 25 5 25 30 0 17 5 30 10 30 16 0 12 77
-4 83 -31 12 -25 117 6 117 7 0 19 9 26 20 13 21 25 23 85 13z m-7119 -19 c8
-3 27 -21 41 -40 l26 -34 -47 -28 -46 -29 -22 21 c-14 13 -19 25 -14 33 6 7 4
14 -3 19 -8 4 -9 3 -5 -4 9 -15 -7 -15 -22 0 -8 8 -1 18 31 39 23 15 43 28 44
28 1 1 8 -2 17 -5z m2910 -63 l28 -29 -31 -16 -31 -17 38 -37 c21 -20 63 -61
95 -90 32 -30 54 -58 51 -64 -4 -7 -2 -8 4 -4 14 8 112 -80 112 -100 0 -8 6
-11 15 -7 10 3 15 0 13 -8 -2 -7 2 -13 7 -14 10 0 68 -55 59 -55 -11 0 -116
83 -121 96 -3 8 -10 14 -17 14 -6 0 -41 26 -77 58 -79 68 -155 132 -181 150
-10 7 -15 18 -12 24 4 6 2 8 -3 5 -12 -8 -65 17 -83 38 -7 8 -16 12 -21 9 -5
-3 -6 1 -3 9 3 8 33 26 67 40 34 14 62 26 63 26 0 1 13 -12 28 -28z m1119 -81
c-3 -11 -10 -23 -16 -27 -5 -3 -8 -2 -5 3 3 5 8 17 11 27 9 24 16 22 10 -3z
m-4229 -21 c38 -45 34 -69 -17 -101 -31 -19 -58 -27 -107 -30 l-64 -3 -10 33
c-14 50 3 78 53 85 22 3 53 14 68 26 37 27 47 26 77 -10z m4313 -31 c-3 -8 -6
-5 -6 6 -1 11 2 17 5 13 3 -3 4 -12 1 -19z m-3885 -45 c41 -40 47 -66 21 -95
-26 -29 -70 -23 -109 16 -41 41 -42 59 -6 91 37 33 50 31 94 -12z m3759 -30
c-12 -20 -14 -14 -5 12 4 9 9 14 11 11 3 -2 0 -13 -6 -23z m102 2 c-3 -9 -8
-14 -10 -11 -3 3 -2 9 2 15 9 16 15 13 8 -4z m1890 -84 c-4 -16 -2 -22 5 -17
8 5 10 1 5 -10 -6 -15 -7 -15 -15 1 -5 9 -7 23 -4 31 5 12 -1 14 -24 10 -17
-2 -30 0 -30 5 0 5 5 10 10 10 6 1 14 2 19 3 5 0 13 4 17 9 12 12 24 -16 17
-42z m-1921 -32 c-15 -46 -21 -53 -72 -79 -30 -15 -65 -30 -76 -34 l-22 -7 20
55 c19 52 23 56 87 85 36 16 69 30 73 30 3 1 -1 -22 -10 -50z m-6007 -9 c13
-24 13 -33 3 -50 -15 -24 -38 -34 -38 -17 0 8 -3 7 -9 -2 -8 -12 -13 -12 -35
3 -47 30 -22 96 35 96 21 0 32 -7 44 -30z m8001 -140 c5 -24 3 -28 -27 -34
-39 -7 -42 -5 -62 56 l-16 48 27 6 c15 3 32 7 37 9 11 3 33 -42 41 -85z
m-2739 -6 l28 -26 -35 23 c-46 29 -45 29 -32 29 6 0 24 -12 39 -26z m1913 12
c0 -3 -4 -8 -10 -11 -5 -3 -10 -1 -10 4 0 6 5 11 10 11 6 0 10 -2 10 -4z m217
-32 c-3 -3 -12 -4 -19 -1 -8 3 -5 6 6 6 11 1 17 -2 13 -5z m-107 -26 c-41 -11
-76 -21 -78 -22 -1 -2 5 -22 13 -46 8 -24 14 -44 13 -46 -2 -1 -19 -5 -39 -9
l-36 -7 -20 57 -21 56 25 10 c13 5 41 9 61 10 20 0 55 4 77 8 76 16 80 9 5
-11z m-1936 -27 c24 -26 37 -26 87 -1 l40 21 29 -21 c17 -12 30 -25 30 -29 0
-4 -25 -19 -55 -34 l-56 -27 -67 66 c-37 37 -58 62 -47 56 11 -5 29 -20 39
-31z m4813 -65 c0 0 4 -17 8 -38 6 -29 3 -40 -14 -57 -12 -12 -33 -21 -49 -21
-16 0 -32 -8 -39 -19 -11 -17 -16 -18 -38 -8 -13 7 -25 20 -25 30 0 10 -4 16
-9 13 -5 -3 -14 1 -21 9 -9 11 -5 23 22 59 l33 46 65 -6 c36 -4 66 -7 67 -8z
m403 -35 c0 -32 -28 -51 -76 -51 -42 0 -44 1 -44 28 0 39 5 42 67 42 46 0 53
-3 53 -19z m-4721 -148 c-8 -21 -6 -30 11 -48 11 -12 20 -25 20 -30 0 -10 -69
-75 -79 -75 -3 0 -27 20 -53 44 -45 41 -47 45 -38 76 13 45 17 48 70 53 25 2
53 4 62 5 15 2 16 -2 7 -25z m2321 -168 c13 -56 13 -56 -13 -81 -14 -13 -28
-24 -31 -24 -3 0 -8 16 -12 35 -3 19 -12 39 -20 46 -8 6 -14 17 -14 24 0 16
59 67 69 61 4 -3 14 -30 21 -61z m-90 -22 c-1 -14 -30 -47 -30 -34 0 7 -5 9
-10 6 -6 -4 -8 -10 -5 -15 3 -4 -25 -35 -62 -69 -46 -42 -70 -58 -78 -51 -7 5
-15 8 -19 5 -24 -18 23 25 98 89 84 72 106 86 106 69z m-313 -250 c-4 -3 0
-14 8 -23 13 -15 10 -21 -30 -60 -42 -41 -45 -43 -63 -27 -10 9 -22 14 -27 10
-4 -5 -4 -1 1 8 10 18 101 99 111 99 4 0 3 -3 0 -7z m2669 -38 c11 -16 14 -34
9 -55 -4 -16 -7 -30 -8 -30 -1 0 -25 -8 -54 -19 l-51 -19 -7 56 c-6 50 -5 58
15 74 32 26 76 23 96 -7z m-2912 -218 c8 -33 7 -38 -22 -65 l-31 -29 -15 44
c-15 44 -15 45 12 68 34 31 45 27 56 -18z m-943 -243 c30 -15 95 -46 145 -69
50 -23 105 -56 123 -74 32 -32 65 -44 41 -16 -16 19 -7 19 32 -1 25 -13 36
-14 50 -5 22 14 28 14 28 0 0 -5 -4 -7 -10 -4 -5 3 -10 2 -10 -3 0 -5 18 -8
41 -6 23 1 38 0 35 -3 -10 -10 23 -61 44 -68 29 -9 25 -21 -12 -34 -21 -8 -35
-8 -42 -1 -15 15 -26 12 -26 -8 0 -11 63 -68 167 -153 221 -177 494 -398 516
-417 9 -8 17 -10 17 -5 0 6 -43 46 -95 89 -92 76 -129 113 -61 60 62 -47 200
-146 267 -191 36 -25 78 -63 93 -85 39 -59 98 -110 119 -104 18 6 43 -7 86
-45 20 -17 22 -23 11 -36 -18 -21 -4 -32 22 -16 11 7 17 8 13 2 -12 -21 16
-11 41 14 l25 26 40 -32 c37 -29 48 -52 31 -63 -17 -10 -12 -71 6 -82 9 -6 80
-46 157 -89 77 -42 163 -93 192 -111 28 -19 54 -34 57 -34 3 0 8 22 12 48 6
47 8 49 48 60 22 6 48 13 56 16 13 5 14 -5 12 -64 -3 -55 -7 -70 -19 -70 -12
0 -13 -3 -3 -15 6 -8 13 -31 15 -51 2 -20 13 -46 25 -59 27 -29 14 -65 -31
-87 -32 -16 -32 -16 -88 29 -31 24 -72 59 -92 76 -20 18 -48 41 -64 52 -15 11
-47 34 -70 50 -24 17 -89 65 -145 108 -94 71 -103 76 -122 63 -18 -13 -25 -12
-63 8 -23 13 -61 38 -85 57 -37 30 -41 37 -36 65 6 28 2 34 -34 58 l-41 27 7
-28 7 -28 -29 25 c-58 51 -58 51 -45 59 18 12 -107 103 -131 95 -12 -3 -18 0
-18 9 0 15 -84 98 -165 162 -27 22 -64 55 -81 74 -17 18 -36 31 -42 27 -5 -3
-21 3 -33 15 l-24 20 30 -17 30 -18 -29 32 c-16 17 -38 34 -48 38 -11 3 -15
10 -11 17 4 7 -1 6 -11 -2 -13 -11 -19 -12 -29 -2 -9 10 -8 11 6 6 9 -4 17 -3
17 3 0 6 -11 9 -25 6 -14 -2 -25 0 -25 6 0 5 5 10 10 10 6 0 10 5 10 11 0 8
-6 7 -17 -2 -13 -11 -17 -11 -20 -1 -3 6 -9 12 -14 12 -8 0 -140 93 -191 135
-9 7 -39 29 -67 47 -28 19 -48 38 -43 42 4 4 2 6 -4 4 -17 -5 -156 91 -192
133 -33 37 -33 38 -17 69 9 18 15 33 13 35 -2 2 -41 22 -88 44 -69 34 -97 55
-148 111 -35 39 -62 70 -60 70 2 0 29 -12 59 -26z m1921 -251 c14 -16 52 -123
45 -128 -1 -1 -12 -8 -24 -14 -13 -6 -23 -22 -24 -34 0 -12 -3 -16 -6 -9 -5
13 -33 17 -33 4 0 -15 -42 -33 -62 -26 -18 5 -19 11 -14 47 4 24 3 43 -3 47
-7 3 1 20 19 41 16 19 29 46 30 62 0 23 4 27 28 27 16 0 36 -8 44 -17z m-9560
-60 c46 -41 -1 -118 -60 -97 -37 13 -50 55 -28 88 19 30 60 35 88 9z m9727
-453 c1 -21 -36 -70 -52 -70 -4 0 -37 92 -37 105 0 3 15 14 33 25 l32 20 12
-27 c7 -16 12 -39 12 -53z m-110 -77 c17 -10 30 -22 28 -27 -4 -13 -126 -96
-141 -96 -6 0 -17 4 -25 9 -16 10 -4 34 48 98 30 37 48 40 90 16z m-1782
-1191 c25 -34 19 -52 -31 -91 -43 -34 -80 -39 -108 -14 -38 34 -19 78 47 112
53 27 68 26 92 -7z m-6229 -315 c47 -44 14 -115 -50 -104 -65 11 -90 25 -83
48 4 13 1 27 -10 40 -15 16 -16 21 -4 35 18 22 115 10 147 -19z m9871 -143
c31 -12 40 -22 43 -45 7 -47 -12 -74 -54 -77 -47 -4 -71 26 -62 77 6 29 21 59
31 61 2 0 20 -7 42 -16z m8521 -2254 l0 -80 -315 0 c-173 0 -315 -3 -315 -8 0
-4 36 -34 80 -67 l79 -60 1 -402 0 -403 -165 0 -165 0 -2 468 -3 467 -232 3
-233 2 0 80 0 80 635 0 635 0 0 -80z m1570 0 l0 -80 -428 0 c-236 0 -431 -3
-435 -6 -3 -4 16 -24 44 -45 l49 -39 0 -120 0 -120 280 0 280 0 0 -85 0 -85
-280 0 -281 0 3 -137 3 -138 383 -3 382 -2 0 -80 0 -80 -550 0 -550 0 0 523 0
524 -37 26 -38 27 588 0 587 0 0 -80z m792 -387 l3 -468 383 -3 382 -2 0 -80
0 -80 -550 0 -550 0 0 523 -1 522 -36 28 -36 27 201 0 202 0 2 -467z m2258
387 l0 -80 -435 0 c-239 0 -435 -3 -435 -7 1 -5 23 -25 50 -46 l50 -38 0 -120
0 -119 280 0 280 0 0 -85 0 -85 -280 0 -280 0 0 -140 0 -140 385 0 385 0 0
-80 0 -80 -550 0 -550 0 0 525 c0 289 -3 525 -7 525 -5 1 -21 12 -38 25 l-30
25 588 0 587 0 0 -80z m1508 64 c47 -19 88 -58 113 -106 15 -30 19 -59 19
-143 l0 -105 -165 0 -165 0 0 65 c0 45 -5 74 -17 92 -33 50 -58 53 -383 53
-165 0 -300 -3 -300 -7 1 -5 23 -25 50 -46 l50 -38 0 -297 c0 -263 2 -301 18
-332 29 -58 42 -61 295 -58 l229 3 29 33 c26 29 29 39 29 102 l0 70 166 0 166
0 -4 -119 c-3 -114 -4 -121 -33 -162 -16 -23 -50 -53 -74 -66 l-44 -23 -473 0
c-268 0 -483 4 -497 9 -40 16 -99 73 -118 116 -17 36 -19 74 -19 415 0 236 4
389 11 414 13 47 82 118 129 133 23 7 187 11 493 12 393 1 463 -1 495 -15z
m1680 -10 c65 -32 108 -94 117 -167 4 -29 5 -209 3 -402 -3 -336 -4 -352 -25
-390 -27 -50 -58 -80 -105 -100 -32 -13 -105 -15 -505 -15 -527 0 -518 -1
-581 76 -50 60 -54 100 -50 504 l3 365 27 46 c26 44 84 92 124 102 10 2 226 5
480 6 l460 1 52 -26z m1058 -281 c110 -169 204 -308 209 -309 6 -2 99 136 209
306 l199 310 168 0 169 0 0 -550 0 -550 -170 0 -170 0 -2 392 -3 392 -189
-294 c-104 -162 -194 -301 -201 -308 -9 -10 -55 54 -211 295 l-199 308 -3
-393 -2 -392 -170 0 -170 0 0 522 0 522 -32 27 -33 28 201 1 202 0 198 -307z
m1825 177 c308 -477 320 -493 334 -479 7 8 99 147 203 309 l190 295 166 3 166
2 0 -550 0 -550 -165 0 -165 0 -2 393 -3 392 -194 -300 c-106 -165 -197 -304
-201 -308 -4 -4 -96 130 -206 299 l-199 307 -3 -391 -2 -392 -170 0 -170 0 0
522 0 522 -32 27 -33 28 201 1 200 0 85 -130z m1851 -290 c0 -231 1 -424 2
-429 1 -5 -21 -27 -49 -48 l-50 -38 274 -3 c249 -2 276 -1 305 16 53 31 55 48
55 505 l1 417 165 0 165 0 0 -456 c0 -313 -4 -469 -11 -495 -16 -50 -62 -105
-110 -130 -38 -19 -56 -19 -488 -17 l-449 3 -44 30 c-23 17 -54 51 -68 75
l-25 45 -5 447 -5 447 -34 26 -35 25 202 0 202 0 2 -420z m1962 13 c160 -221
294 -402 299 -402 4 -1 7 181 7 404 l0 405 165 0 165 0 0 -550 0 -550 -168 0
-168 0 -294 405 -295 405 -3 -405 -2 -405 -170 0 -170 0 0 523 0 522 -32 27
-33 28 204 -3 205 -2 290 -402z m1436 -143 l0 -550 -165 0 -165 0 0 519 0 519
-37 31 -38 30 203 1 202 0 0 -550z m1548 517 c23 -15 54 -46 69 -69 26 -38 28
-51 32 -155 l3 -113 -166 0 -166 0 0 56 c0 31 -7 71 -16 89 -29 62 -47 65
-383 65 -175 0 -301 -4 -301 -9 0 -5 23 -26 50 -46 l50 -37 0 -310 0 -310 34
-34 34 -34 224 0 c158 0 230 4 248 13 37 18 60 72 60 140 l0 57 165 0 165 0 0
-100 c0 -141 -31 -204 -122 -251 -35 -18 -64 -19 -511 -19 l-474 0 -44 23
c-24 13 -57 43 -74 66 l-30 43 -3 404 c-3 383 -2 405 17 441 10 21 32 50 48
65 61 58 55 58 574 55 l475 -2 42 -28z m1635 20 c49 -21 98 -67 118 -112 17
-37 19 -76 19 -507 l0 -468 -165 0 -164 0 -3 73 -3 72 -295 0 -295 0 -3 -72
-3 -73 -164 0 -165 0 0 519 0 519 -35 31 -36 31 581 0 c465 0 587 -3 613 -13z
m1797 -67 l0 -80 -315 0 c-173 0 -315 -3 -315 -8 0 -4 36 -34 80 -67 l80 -60
0 -402 0 -403 -165 0 -165 0 -2 468 -3 467 -232 3 -233 2 0 80 0 80 635 0 635
0 0 -80z m800 -470 l0 -550 -165 0 -165 0 0 523 0 524 -37 26 -38 27 203 0
202 0 0 -550z m1525 531 c51 -23 101 -74 117 -120 10 -27 13 -135 13 -421 l0
-385 -25 -45 c-14 -24 -45 -58 -68 -75 l-44 -30 -484 -3 c-467 -2 -485 -2
-523 17 -48 25 -94 80 -110 130 -15 52 -15 740 0 796 19 68 73 123 144 146 11
4 227 7 480 8 425 1 463 -1 500 -18z m1169 -388 c160 -221 294 -402 299 -403
4 0 7 182 7 405 l0 405 165 0 165 0 0 -550 0 -550 -168 0 -168 0 -295 404
-294 405 -3 -405 -2 -404 -170 0 -170 0 0 522 0 522 -32 28 -33 27 204 -2 204
-2 291 -402z m-33834 -3133 c56 -30 38 -110 -25 -110 -30 0 -44 13 -51 47 -5
24 -1 36 15 52 24 24 34 25 61 11z m-472 -382 c20 -20 15 -76 -7 -88 -59 -31
-112 22 -81 81 12 22 68 27 88 7z m1161 -269 c13 -24 13 -29 -2 -53 -25 -37
-83 -37 -97 0 -14 35 -12 50 6 69 25 24 75 16 93 -16z m-4681 -55 c51 -35 8
-117 -50 -95 -42 16 -50 59 -18 91 24 24 38 25 68 4z m-2308 -105 c40 -21 54
-34 25 -22 -10 3 -15 1 -13 -8 4 -18 -24 -22 -45 -7 -19 14 -32 58 -17 58 5 0
28 -9 50 -21z m4134 -102 c10 -7 18 -27 19 -47 2 -27 -3 -37 -25 -49 -25 -14
-31 -14 -55 -1 -18 10 -29 25 -31 44 -6 52 49 84 92 53z m-308 -105 c37 -24
36 -91 -1 -106 -44 -17 -95 12 -95 54 0 42 62 75 96 52z m1362 -288 c26 -18
30 -65 6 -88 -23 -24 -70 -20 -88 6 -21 29 -20 40 5 72 23 30 45 33 77 10z
m2024 -1121 c36 -32 15 -93 -32 -93 -53 0 -79 53 -43 92 20 22 51 23 75 1z"/>
<path d="M20466 30991 c-4 -7 -5 -15 -2 -18 9 -9 19 4 14 18 -4 11 -6 11 -12
0z"/>
<path d="M23684 30671 c2 -8 9 -17 17 -19 11 -3 11 -1 -1 8 -12 9 -10 11 12 7
33 -5 28 9 -6 15 -17 4 -23 1 -22 -11z"/>
<path d="M23701 30642 c-11 -8 -21 -19 -21 -24 0 -5 10 -2 22 6 30 21 55 20
61 -3 3 -12 18 -20 48 -25 32 -5 40 -9 29 -16 -8 -5 -10 -10 -4 -10 15 0 36
25 28 33 -3 3 -12 3 -20 0 -8 -3 -14 0 -14 6 0 13 -55 43 -64 34 -3 -4 -6 -1
-6 5 0 15 -32 11 -59 -6z m84 -12 c3 -5 1 -10 -4 -10 -6 0 -11 5 -11 10 0 6 2
10 4 10 3 0 8 -4 11 -10z"/>
<path d="M23716 30614 c-4 -12 -1 -14 14 -9 11 4 20 2 20 -3 0 -6 -6 -12 -12
-14 -7 -3 5 -5 27 -5 22 0 30 2 18 4 -12 2 -25 13 -28 24 -8 23 -31 25 -39 3z"/>
<path d="M23887 30579 c7 -7 15 -10 18 -7 3 3 -2 9 -12 12 -14 6 -15 5 -6 -5z"/>
<path d="M23810 30556 c0 -2 7 -7 16 -10 8 -3 12 -2 9 4 -6 10 -25 14 -25 6z"/>
<path d="M23927 30517 c-3 -7 3 -13 14 -13 13 0 15 3 7 13 -6 7 -12 13 -13 13
-2 0 -5 -6 -8 -13z"/>
<path d="M23984 30518 c-4 -7 -3 -10 1 -5 5 4 19 0 33 -9 13 -9 21 -11 18 -5
-13 21 -44 32 -52 19z"/>
<path d="M23940 30469 c0 -5 5 -7 10 -4 6 3 10 8 10 11 0 2 -4 4 -10 4 -5 0
-10 -5 -10 -11z"/>
<path d="M24113 30440 c14 -11 28 -20 32 -20 4 0 -4 9 -18 20 -14 11 -28 20
-32 20 -4 0 4 -9 18 -20z"/>
<path d="M24035 30410 c-3 -5 -1 -10 4 -10 6 0 11 5 11 10 0 6 -2 10 -4 10 -3
0 -8 -4 -11 -10z"/>
<path d="M24244 30372 c4 -7 22 -19 39 -28 18 -9 58 -36 89 -60 68 -52 142
-99 135 -86 -4 5 -25 22 -49 38 -24 16 -65 45 -93 64 -72 51 -130 86 -121 72z"/>
<path d="M23660 30320 c-9 -6 -10 -10 -3 -10 6 0 15 5 18 10 8 12 4 12 -15 0z"/>
<path d="M23328 30233 c7 -3 16 -2 19 1 4 3 -2 6 -13 5 -11 0 -14 -3 -6 -6z"/>
<path d="M23680 30130 c0 -7 24 -20 36 -20 13 0 1 19 -16 23 -11 3 -20 2 -20
-3z"/>
<path d="M23718 30093 c7 -3 16 -2 19 1 4 3 -2 6 -13 5 -11 0 -14 -3 -6 -6z"/>
<path d="M24824 29874 c-36 -39 -46 -44 -83 -44 -23 0 -51 5 -62 10 -16 9 -38
1 -123 -44 -95 -52 -104 -59 -115 -96 -6 -22 -23 -47 -37 -56 -36 -24 -106
-29 -143 -11 -29 14 -36 14 -76 -1 -25 -9 -44 -20 -43 -24 2 -4 64 -53 139
-110 216 -164 304 -242 592 -526 114 -113 207 -210 207 -215 0 -5 7 -6 16 -3
9 3 12 2 9 -4 -5 -9 31 -55 143 -180 12 -13 22 -28 22 -32 0 -4 7 -4 17 -1 11
4 14 3 9 -5 -7 -11 29 -71 72 -119 18 -22 39 -32 28 -15 -3 5 1 9 8 9 8 0 12
-6 9 -13 -2 -6 1 -15 8 -20 8 -4 10 -3 5 4 -5 9 10 12 53 12 33 0 63 -4 66
-10 3 -5 -1 -10 -9 -10 -9 0 -16 -4 -16 -10 0 -5 14 -10 30 -10 17 0 30 -5 30
-11 0 -6 8 -8 20 -4 33 10 89 -5 96 -27 7 -23 40 -58 54 -58 6 0 10 -13 10
-29 0 -17 5 -33 10 -36 6 -4 8 -10 5 -15 -3 -5 25 -11 62 -15 99 -9 124 -15
130 -31 3 -8 15 -14 27 -14 24 0 46 -17 46 -36 0 -7 10 -24 23 -38 13 -14 30
-44 37 -67 15 -46 24 -51 120 -69 77 -14 84 -18 71 -34 -8 -10 -5 -18 9 -31
11 -10 20 -27 20 -38 0 -11 11 -30 24 -42 13 -12 26 -33 28 -46 3 -21 9 -24
56 -27 37 -2 52 -7 52 -18 0 -10 11 -14 38 -14 21 0 43 -5 50 -12 9 -9 12 -5
13 18 l1 29 10 -27 c5 -16 14 -28 19 -28 5 0 4 12 -1 28 -9 25 -9 26 5 8 8
-11 15 -25 15 -32 0 -6 7 -14 15 -18 10 -4 7 10 -12 47 -15 29 -30 53 -35 55
-4 2 -4 11 -2 20 4 10 -2 7 -15 -8 -20 -24 -20 -24 -14 -2 3 12 9 25 14 28 5
3 -3 23 -16 44 -14 22 -25 44 -25 50 0 6 -5 8 -12 4 -6 -4 -8 -3 -5 4 9 14
-72 169 -97 184 -19 12 -59 43 -71 55 -7 7 -16 9 -20 5 -4 -4 -5 4 -1 18 3 14
3 19 0 12 -4 -9 -14 -5 -36 13 -16 14 -35 25 -43 25 -7 0 -15 7 -19 15 -3 8
-17 20 -31 27 -15 7 -24 17 -21 25 3 8 1 11 -4 8 -14 -9 -180 125 -180 145 0
6 -10 24 -22 40 -12 16 -18 33 -14 37 9 9 46 -33 46 -52 0 -17 33 -45 61 -51
13 -3 46 -7 73 -9 27 -2 53 -10 57 -17 7 -10 9 -10 9 -1 0 9 7 10 22 4 17 -6
22 -16 22 -40 -1 -27 1 -30 14 -19 13 11 15 10 9 -5 -4 -11 -3 -16 3 -12 6 3
10 1 10 -6 0 -7 3 -9 7 -6 10 10 -18 57 -30 50 -6 -4 -8 0 -4 10 8 22 -235
385 -381 567 -206 258 -314 381 -526 598 l-139 142 -49 0 c-66 0 -108 38 -108
98 0 37 -5 45 -67 99 -37 32 -79 68 -93 81 -14 12 -27 22 -30 21 -3 0 -23 -20
-46 -45z m693 -1047 c2 -3 -3 -12 -12 -21 -9 -9 -12 -16 -6 -16 5 0 12 4 16 9
6 11 95 -71 95 -87 0 -6 9 -14 20 -17 11 -4 20 -15 20 -26 0 -17 -7 -14 -55
21 -30 22 -58 40 -64 40 -5 0 -11 4 -13 9 -1 6 -30 31 -62 56 l-59 46 57 -5
c32 -3 60 -7 63 -9z m-255 -245 c-3 -9 -1 -13 5 -9 5 3 10 -1 10 -10 0 -11 -8
-7 -24 13 -28 35 -30 48 -4 32 11 -6 17 -18 13 -26z m530 23 c43 -8 84 -12 91
-9 8 3 19 -2 26 -10 10 -12 9 -14 -7 -9 -25 6 -40 -16 -20 -31 21 -16 31 -48
18 -56 -8 -5 -6 -9 5 -13 9 -4 13 -3 10 3 -3 6 4 10 17 10 18 0 20 -2 8 -10
-12 -7 -11 -13 10 -37 14 -15 30 -32 35 -36 6 -5 -1 -5 -15 -1 -14 4 -27 10
-30 13 -3 4 -43 36 -90 71 -47 35 -94 72 -104 82 -11 10 -23 18 -28 18 -4 0
-8 7 -8 15 0 8 1 15 3 15 1 0 37 -7 79 -15z m173 -69 c16 7 16 6 -1 -14 -13
-16 -21 -19 -31 -10 -7 6 -13 17 -13 25 0 12 3 13 14 4 7 -6 21 -8 31 -5z m44
-29 c9 -11 5 -14 -19 -15 -24 -1 -27 2 -17 13 15 18 22 18 36 2z m-653 -45 c1
-13 1 -22 0 -20 0 2 -10 13 -20 25 -18 21 -18 22 0 21 12 -1 20 -10 20 -26z
m681 -2 c0 -31 -14 -40 -23 -16 -4 11 10 40 22 46 0 0 1 -13 1 -30z m28 -50
c3 -6 -4 -10 -17 -10 -18 0 -20 2 -8 10 19 12 18 12 25 0z m-435 -44 c0 -2 -9
-6 -20 -9 -11 -3 -18 -1 -14 4 5 9 34 13 34 5z m880 -510 c0 -2 -7 -7 -16 -10
-8 -3 -12 -2 -9 4 6 10 25 14 25 6z m-3 -48 c-3 -7 -5 -2 -5 12 0 14 2 19 5
13 2 -7 2 -19 0 -25z"/>
<path d="M17165 29570 c-3 -6 1 -7 9 -4 18 7 21 14 7 14 -6 0 -13 -4 -16 -10z"/>
<path d="M17085 29500 c3 -5 8 -10 11 -10 2 0 4 5 4 10 0 6 -5 10 -11 10 -5 0
-7 -4 -4 -10z"/>
<path d="M16576 29074 c-5 -14 -4 -15 9 -4 17 14 19 20 6 20 -5 0 -12 -7 -15
-16z"/>
<path d="M16491 28988 c-1 -10 -6 -17 -13 -15 -11 2 -13 -2 -17 -34 0 -6 -8
-9 -15 -6 -10 4 -13 1 -9 -9 3 -7 8 -14 12 -14 11 1 52 72 47 84 -2 6 -5 3 -5
-6z"/>
<path d="M16175 28650 c3 -5 0 -10 -7 -10 -8 0 -7 -4 4 -11 10 -5 15 -17 12
-27 -5 -15 -4 -15 6 1 12 19 5 57 -11 57 -6 0 -7 -4 -4 -10z"/>
<path d="M15975 28410 c-3 -5 -1 -10 4 -10 6 0 11 5 11 10 0 6 -2 10 -4 10 -3
0 -8 -4 -11 -10z"/>
<path d="M15945 28370 c-10 -11 -15 -20 -11 -20 11 0 39 30 34 36 -3 2 -13 -5
-23 -16z"/>
<path d="M15904 28278 c0 -16 1 -28 1 -28 0 0 9 10 19 22 15 17 15 20 3 15 -9
-3 -18 -1 -20 6 -2 7 -4 0 -3 -15z"/>
<path d="M25583 28225 c-3 -9 -3 -18 -1 -21 3 -3 8 4 11 16 6 23 -1 27 -10 5z"/>
<path d="M15860 28196 c0 -8 -5 -16 -12 -18 -6 -2 -12 -13 -14 -24 -3 -18 -2
-18 12 1 27 35 36 55 24 55 -5 0 -10 -6 -10 -14z"/>
<path d="M26325 28200 c-3 -5 -3 -15 1 -21 3 -6 0 -15 -7 -20 -10 -7 -8 -8 8
-6 30 4 39 15 19 23 -9 3 -16 10 -16 16 0 5 5 6 12 2 7 -4 8 -3 4 4 -9 15 -13
15 -21 2z"/>
<path d="M26375 28120 c-3 -5 -1 -10 4 -10 6 0 11 5 11 10 0 6 -2 10 -4 10 -3
0 -8 -4 -11 -10z"/>
<path d="M26021 28024 c0 -11 3 -14 6 -6 3 7 2 16 -1 19 -3 4 -6 -2 -5 -13z"/>
<path d="M26670 27561 c0 -7 -5 -9 -12 -5 -7 5 -8 3 -3 -5 5 -9 10 -10 18 -2
6 6 8 14 4 18 -4 3 -7 1 -7 -6z"/>
<path d="M26680 27530 c-8 -5 -10 -10 -4 -10 6 0 17 -11 24 -25 7 -14 15 -23
17 -21 3 2 -3 15 -11 28 -9 14 -13 28 -9 31 9 10 0 8 -17 -3z"/>
<path d="M26640 27491 c0 -6 4 -13 10 -16 6 -3 7 1 4 9 -7 18 -14 21 -14 7z"/>
<path d="M26674 27486 c4 -12 1 -23 -6 -28 -7 -4 -8 -8 -3 -8 6 0 17 5 25 10
13 8 12 12 -4 27 -18 17 -19 17 -12 -1z"/>
<path d="M26740 27415 c0 -5 5 -17 10 -25 5 -8 10 -10 10 -5 0 6 -5 17 -10 25
-5 8 -10 11 -10 5z"/>
<path d="M23987 19997 c-3 -8 1 -14 8 -14 7 0 11 6 8 14 -3 7 -6 13 -8 13 -2
0 -5 -6 -8 -13z"/>
<path d="M24000 19957 c0 -9 40 -35 44 -28 3 4 -6 13 -19 19 -14 7 -25 10 -25
9z"/>
<path d="M25424 30711 c7 -11 46 -35 46 -28 0 3 -12 12 -26 22 -15 9 -23 12
-20 6z"/>
<path d="M25644 30528 c4 -19 23 -20 30 -2 5 14 4 15 -8 5 -10 -8 -16 -9 -19
-1 -3 6 -4 5 -3 -2z"/>
<path d="M25728 30493 c6 -2 10 -8 8 -12 -3 -4 1 -8 9 -8 8 0 15 4 15 8 0 7
-26 20 -38 18 -4 0 -1 -3 6 -6z"/>
<path d="M27636 29475 c6 -14 4 -16 -6 -10 -9 5 -11 4 -6 -4 4 -6 12 -9 17 -6
5 4 9 1 9 -4 0 -6 -5 -11 -10 -11 -6 0 -2 -10 10 -22 11 -12 20 -28 20 -35 0
-7 5 -13 10 -13 15 0 12 9 -11 41 -19 27 -16 35 14 30 4 -1 2 8 -5 19 -7 10
-14 17 -17 15 -2 -3 -10 0 -18 7 -11 9 -12 7 -7 -7z"/>
<path d="M28393 25485 c0 -22 2 -30 4 -17 2 12 2 30 0 40 -3 9 -5 -1 -4 -23z"/>
<path d="M28989 24900 c-9 -6 -52 -24 -95 -41 -44 -17 -83 -36 -89 -42 -7 -7
-4 -8 8 -3 17 5 18 1 15 -51 -3 -55 -4 -58 -33 -64 l-30 -6 30 -4 c17 -2 46
-1 65 3 19 4 56 8 82 9 27 2 53 6 58 9 7 4 10 44 8 103 -3 85 -5 95 -19 87z
m-79 -174 c0 -2 -9 -6 -20 -9 -11 -3 -20 -1 -20 4 0 5 9 9 20 9 11 0 20 -2 20
-4z"/>
<path d="M28770 24810 c-13 -8 -12 -10 3 -10 9 0 17 5 17 10 0 12 -1 12 -20 0z"/>
<path d="M28727 24789 c-18 -10 -18 -12 -1 -30 17 -19 40 -27 29 -10 -3 6 3
14 12 20 10 5 14 13 10 17 -4 4 -13 2 -19 -4 -7 -7 -19 -12 -27 -12 -11 0 -10
4 5 15 22 17 17 19 -9 4z"/>
<path d="M28785 24760 c-3 -5 -1 -10 4 -10 6 0 11 5 11 10 0 6 -2 10 -4 10 -3
0 -8 -4 -11 -10z"/>
<path d="M28971 24583 c0 -6 -9 -9 -20 -6 -10 3 -22 0 -26 -6 -10 -16 4 -51
21 -51 8 0 14 -5 14 -11 0 -6 6 -9 13 -6 6 2 17 -5 24 -17 11 -18 12 -12 13
42 0 35 -4 62 -10 62 -5 0 -11 -12 -11 -27 l-1 -28 -8 30 c-4 17 -8 25 -9 18z"/>
<path d="M28986 24465 c2 -11 4 -23 4 -27 0 -15 20 -8 20 7 0 8 -4 15 -9 15
-5 0 -11 6 -14 13 -2 6 -3 3 -1 -8z"/>
<path d="M28962 24426 c1 -14 6 -22 10 -20 4 3 8 -4 8 -15 0 -11 5 -23 11 -27
8 -4 9 1 4 17 -22 71 -37 90 -33 45z"/>
<path d="M28860 24400 c0 -5 5 -10 10 -10 6 0 10 5 10 10 0 6 -4 10 -10 10 -5
0 -10 -4 -10 -10z"/>
<path d="M28960 24351 c0 -13 29 -35 37 -27 3 3 1 6 -5 6 -7 0 -12 7 -12 15 0
8 -4 15 -10 15 -5 0 -10 -4 -10 -9z"/>
<path d="M28940 24322 c0 -5 7 -13 16 -16 10 -4 14 -1 12 6 -5 15 -28 23 -28
10z"/>
<path d="M28980 24290 c0 -5 5 -10 10 -10 6 0 10 5 10 10 0 6 -4 10 -10 10 -5
0 -10 -4 -10 -10z"/>
<path d="M28970 24263 c0 -4 5 -15 10 -23 8 -13 10 -13 10 2 0 9 -4 20 -10 23
-5 3 -10 3 -10 -2z"/>
<path d="M20275 29589 c-233 -17 -531 -65 -785 -129 -226 -56 -226 -56 -80
-65 126 -7 126 -7 165 20 33 22 47 26 79 20 44 -7 92 -37 100 -63 3 -9 7 -30
10 -47 3 -17 19 -42 38 -58 18 -16 42 -36 53 -46 100 -85 177 -141 187 -135 7
4 8 3 4 -4 -8 -13 5 -16 19 -4 6 4 48 4 95 1 l85 -6 -87 1 c-58 1 -89 -3 -92
-10 -5 -13 65 -74 84 -74 6 0 9 -4 5 -9 -3 -6 4 -15 16 -21 15 -8 19 -9 15 -1
-4 6 -2 11 3 11 6 0 11 9 11 20 0 13 7 20 20 20 15 0 20 7 20 25 0 23 3 25 43
23 36 -1 38 -2 10 -5 -33 -4 -48 -33 -18 -33 8 0 15 4 15 9 0 5 10 11 21 14
16 4 20 11 16 27 -5 21 18 54 33 45 4 -2 11 104 15 236 4 132 6 241 4 242 -2
2 -49 0 -104 -4z m-142 -556 c-6 -16 -25 -13 -31 5 -2 6 6 10 16 9 12 -1 18
-6 15 -14z m67 -3 c0 -13 -7 -20 -19 -20 -11 0 -28 -3 -38 -7 -17 -7 -17 -6 0
11 9 9 17 22 17 27 0 5 9 9 20 9 13 0 20 -7 20 -20z"/>
<path d="M20606 29419 c-9 -101 -19 -200 -21 -219 -4 -30 -3 -31 4 -10 9 25 9
25 11 -5 l2 -30 8 33 c7 32 20 55 20 36 0 -5 20 -8 45 -6 25 2 45 9 45 14 0 6
7 4 16 -3 11 -9 37 -13 80 -10 87 4 235 -9 228 -21 -10 -15 47 3 125 40 69 34
83 36 209 44 75 4 138 6 140 3 3 -3 -13 -5 -36 -5 -24 0 -42 -5 -42 -11 0 -14
153 -2 158 12 2 5 23 9 46 9 42 0 42 0 38 -32 -4 -27 -2 -30 14 -23 11 4 33
12 49 18 17 5 38 14 47 18 10 5 25 9 33 9 8 0 15 7 15 15 0 11 12 15 52 15 35
0 58 6 71 18 13 12 36 17 73 17 36 0 54 4 54 13 0 18 14 15 28 -8 7 -11 21
-20 33 -20 11 0 17 -4 14 -10 -4 -6 1 -7 12 -3 16 6 17 5 3 -12 -14 -17 -14
-18 8 -6 12 6 22 16 22 21 0 5 7 7 15 4 14 -6 13 -8 -2 -20 -10 -7 -13 -14 -7
-14 6 0 14 3 17 7 11 10 57 13 57 2 0 -5 7 -9 15 -9 8 0 15 -7 15 -16 0 -12 7
-14 33 -9 24 5 28 4 17 -4 -13 -9 -12 -11 5 -11 11 0 26 4 33 9 10 6 4 10 -20
16 -18 4 -39 7 -47 6 -7 -1 -10 2 -7 8 6 9 -33 26 -80 35 -10 3 -35 11 -54 19
-19 8 -41 12 -47 10 -7 -3 -13 0 -13 5 0 12 -130 55 -170 56 -15 1 -26 3 -24
6 11 11 -312 86 -516 120 -213 35 -377 51 -596 57 l-210 6 -18 -184z m1277
-16 c-7 -2 -19 -2 -25 0 -7 3 -2 5 12 5 14 0 19 -2 13 -5z m-443 -68 c0 -8 -7
-15 -15 -15 -26 0 -18 20 13 29 1 1 2 -6 2 -14z m751 -3 c-7 -2 -18 1 -23 6
-8 8 -4 9 13 5 13 -4 18 -8 10 -11z m-791 -27 c0 -11 -11 -15 -37 -15 -35 0
-36 1 -17 15 25 19 54 19 54 0z"/>
<path d="M22128 29293 c6 -2 18 -2 25 0 6 3 1 5 -13 5 -14 0 -19 -2 -12 -5z"/>
<path d="M22008 29283 c7 -3 16 -2 19 1 4 3 -2 6 -13 5 -11 0 -14 -3 -6 -6z"/>
<path d="M19156 29268 c3 -4 12 -4 21 -1 12 5 14 3 8 -7 -5 -9 -4 -11 4 -6 16
10 4 25 -19 23 -10 -1 -17 -5 -14 -9z"/>
<path d="M22146 29271 c-4 -7 -5 -15 -2 -18 9 -9 19 4 14 18 -4 11 -6 11 -12
0z"/>
<path d="M18862 29257 c-12 -7 -19 -17 -15 -22 4 -4 1 -6 -9 -2 -9 3 -19 3
-23 -1 -4 -4 -11 -8 -16 -8 -5 -1 -13 -2 -19 -3 -5 0 -10 -8 -10 -16 0 -8 -5
-15 -11 -15 -5 0 -7 5 -4 11 5 7 1 7 -11 1 -11 -6 -34 -16 -51 -22 -19 -7 -30
-17 -26 -23 4 -6 0 -8 -11 -4 -10 4 -15 3 -11 -3 4 -6 -4 -9 -17 -7 -18 1 -22
-2 -20 -18 2 -17 1 -17 -8 -5 -9 13 -12 13 -24 -2 -14 -19 -32 -25 -21 -8 3 6
-1 7 -9 4 -9 -3 -13 -11 -9 -17 4 -6 0 -8 -9 -4 -30 11 -35 -11 -22 -96 6 -45
24 -179 39 -297 15 -118 31 -219 35 -223 4 -4 25 7 46 26 163 145 347 307 385
341 25 23 74 66 109 96 35 30 77 66 93 80 l29 26 -95 63 c-63 41 -102 61 -114
57 -30 -9 -233 -36 -316 -41 -53 -4 -76 -2 -72 5 4 6 16 8 28 5 17 -5 19 -4 7
4 -11 8 -12 11 -2 11 7 0 10 4 7 10 -4 6 1 7 11 3 13 -5 15 -3 9 8 -7 12 -6
12 11 -1 29 -22 30 -24 13 -18 -9 4 -22 2 -30 -3 -10 -6 -4 -9 19 -9 19 0 32
5 32 13 0 7 9 18 20 25 11 7 20 20 20 29 0 9 3 13 7 10 3 -4 12 -2 20 4 10 9
13 8 13 -1 0 -10 3 -10 15 0 12 10 19 10 27 2 15 -15 31 -15 22 0 -5 7 -2 9 8
6 8 -4 15 0 15 7 0 11 -5 11 -20 4 -13 -8 -22 -8 -30 0 -10 10 1 16 26 12 4 0
7 4 7 9 0 13 -10 12 -38 -3z m-112 -77 c0 -5 -5 -10 -11 -10 -5 0 -7 5 -4 10
3 6 8 10 11 10 2 0 4 -4 4 -10z"/>
<path d="M21520 29250 c0 -5 18 -10 40 -10 22 0 40 5 40 10 0 6 -18 10 -40 10
-22 0 -40 -4 -40 -10z"/>
<path d="M22396 29241 c-4 -5 3 -7 14 -4 23 6 26 13 6 13 -8 0 -17 -4 -20 -9z"/>
<path d="M18940 29219 c-13 -9 -13 -10 1 -6 9 3 23 0 30 -6 11 -10 11 -9 0 6
-7 9 -14 17 -15 17 0 0 -8 -5 -16 -11z"/>
<path d="M22328 29223 c6 -2 18 -2 25 0 6 3 1 5 -13 5 -14 0 -19 -2 -12 -5z"/>
<path d="M22510 29220 c8 -5 20 -10 25 -10 6 0 3 5 -5 10 -8 5 -19 10 -25 10
-5 0 -3 -5 5 -10z"/>
<path d="M19325 29206 l-70 -11 42 -28 c24 -15 46 -27 49 -27 4 0 26 18 50 40
50 46 49 46 -71 26z"/>
<path d="M18858 29193 c6 -2 18 -2 25 0 6 3 1 5 -13 5 -14 0 -19 -2 -12 -5z"/>
<path d="M19584 29177 c-6 -7 -37 -34 -68 -61 l-58 -49 98 -64 c131 -86 134
-88 146 -72 8 11 9 10 4 -3 -3 -10 -1 -20 5 -24 21 -13 20 6 -4 68 -14 34 -38
98 -53 141 -28 77 -45 92 -70 64z"/>
<path d="M18843 29163 c9 -2 23 -2 30 0 6 3 -1 5 -18 5 -16 0 -22 -2 -12 -5z"/>
<path d="M18777 29149 c7 -7 15 -10 18 -7 3 3 -2 9 -12 12 -14 6 -15 5 -6 -5z"/>
<path d="M20828 29123 c7 -3 16 -2 19 1 4 3 -2 6 -13 5 -11 0 -14 -3 -6 -6z"/>
<path d="M22720 29100 c-8 -5 -10 -10 -5 -10 6 0 17 5 25 10 8 5 11 10 5 10
-5 0 -17 -5 -25 -10z"/>
<path d="M19815 29058 c4 -12 14 -30 21 -39 8 -9 11 -19 7 -22 -3 -4 1 -7 9
-7 10 0 15 -6 12 -17 -3 -10 7 -36 21 -58 l25 -40 -5 40 c-4 32 -3 35 4 18 7
-15 16 -21 26 -17 8 3 12 11 9 16 -4 6 2 7 17 3 21 -7 22 -6 10 9 -7 9 -20 16
-28 16 -8 0 -12 4 -9 8 3 5 -13 22 -34 38 -22 16 -40 32 -40 35 0 4 -12 14
-26 24 -26 16 -26 16 -19 -7z m73 -56 c6 -18 -15 -14 -22 4 -4 10 -1 14 6 12
6 -2 14 -10 16 -16z m38 -29 c-11 -11 -35 -12 -42 -2 -3 5 7 9 22 9 15 0 24
-3 20 -7z"/>
<path d="M18271 28968 c-58 -32 -111 -64 -118 -69 -9 -9 1 -27 49 -82 33 -40
99 -118 146 -174 47 -56 87 -101 88 -100 2 1 -4 56 -11 122 -8 66 -19 163 -25
215 -6 53 -14 107 -18 122 l-7 26 -104 -60z"/>
<path d="M19330 28948 c-14 -11 -45 -39 -70 -62 -25 -22 -80 -72 -123 -110
-42 -38 -75 -72 -71 -75 3 -3 12 3 20 14 14 19 16 19 28 3 7 -10 23 -18 36
-18 12 0 38 -9 56 -21 26 -16 37 -18 51 -9 15 9 15 10 -6 4 -17 -4 -21 -3 -16
6 5 8 19 10 42 5 22 -4 33 -3 29 3 -4 6 3 8 16 4 17 -4 20 -2 15 11 -7 19 4
22 19 7 10 -10 115 48 117 66 1 5 5 8 9 7 4 -2 19 8 33 22 16 14 33 21 43 18
16 -6 -15 21 -49 42 -9 6 -43 28 -75 50 -33 23 -64 44 -69 47 -6 3 -21 -3 -35
-14z m-75 -246 c-3 -3 -11 0 -18 7 -9 10 -8 11 6 5 10 -3 15 -9 12 -12z m-25
-6 c0 -3 -4 -8 -10 -11 -5 -3 -10 -1 -10 4 0 6 5 11 10 11 6 0 10 -2 10 -4z"/>
<path d="M17894 28727 c-162 -116 -291 -217 -324 -253 -14 -15 -19 -24 -13
-20 7 4 81 2 165 -4 84 -6 250 -17 368 -25 286 -21 290 -21 290 -19 0 1 -52
65 -117 141 -64 76 -141 168 -172 206 -30 37 -58 67 -61 67 -3 0 -65 -42 -136
-93z"/>
<path d="M19060 28683 c-19 -15 -29 -20 -21 -10 27 33 6 25 -39 -15 -25 -23
-44 -45 -42 -50 1 -4 -2 -7 -6 -5 -11 3 -162 -125 -162 -138 0 -5 6 -3 13 6 7
9 18 14 26 11 9 -3 11 0 6 8 -6 10 -4 12 8 7 10 -4 14 -2 11 7 -3 8 3 12 18
11 25 -2 88 24 88 37 0 4 7 4 17 1 12 -5 14 -3 8 7 -5 8 -4 11 3 6 18 -11 64
15 57 33 -5 13 -4 14 6 4 7 -7 18 -13 24 -13 16 1 -35 40 -52 40 -20 0 -11 23
11 26 9 1 28 10 42 19 13 9 29 13 34 10 6 -3 7 1 4 9 -8 21 -13 20 -54 -11z
m-177 -148 c-3 -9 -8 -14 -10 -11 -3 3 -2 9 2 15 9 16 15 13 8 -4z m37 1 c0
-2 -7 -7 -16 -10 -8 -3 -12 -2 -9 4 6 10 25 14 25 6z"/>
<path d="M19165 28640 c-3 -6 1 -7 9 -4 18 7 21 14 7 14 -6 0 -13 -4 -16 -10z"/>
<path d="M19125 28620 c-3 -6 1 -7 9 -4 18 7 21 14 7 14 -6 0 -13 -4 -16 -10z"/>
<path d="M17489 28403 c-13 -14 -17 -22 -9 -17 8 5 20 9 25 9 6 1 9 7 7 14 -2
9 3 11 13 7 9 -3 13 -2 10 4 -10 16 -20 12 -46 -17z"/>
<path d="M17326 28259 c-309 -295 -585 -646 -814 -1035 -374 -636 -591 -1335
-642 -2074 -13 -179 -15 -614 -3 -634 12 -21 153 -127 153 -116 0 6 -20 80
-45 164 l-45 154 19 55 c10 31 26 68 36 83 l18 28 39 -130 c21 -71 52 -169 68
-219 16 -49 36 -115 45 -145 14 -48 20 -57 55 -73 59 -28 92 -14 104 44 6 24
16 50 23 57 13 13 33 75 33 102 0 9 7 25 15 37 9 12 16 43 17 68 2 26 4 42 6
36 7 -22 32 -11 32 14 0 14 8 33 18 43 27 28 45 82 50 150 3 57 2 61 -15 55
-17 -6 -17 -6 0 14 20 23 22 37 5 30 -10 -3 -13 25 -13 122 -1 69 1 107 3 84
5 -72 20 -48 27 45 8 113 29 209 60 275 13 28 25 48 25 42 1 -10 28 52 29 68
1 5 -5 5 -11 0 -8 -4 -6 3 3 17 19 29 42 127 33 141 -3 5 -1 9 4 9 11 0 22 48
15 66 -2 7 -12 10 -21 7 -14 -4 -14 -3 -3 5 8 6 20 8 27 5 8 -3 14 10 19 38 4
23 14 57 21 75 8 19 13 37 12 41 0 5 2 15 5 23 29 67 36 103 25 123 -10 20
-10 21 5 8 15 -12 17 -11 17 3 0 9 4 24 10 34 23 41 78 197 73 205 -3 6 -1 7
5 3 7 -4 12 -2 12 4 0 5 27 67 60 136 33 70 57 131 53 137 -3 5 -2 7 4 4 5 -3
18 11 27 31 10 20 43 78 73 129 30 51 52 97 48 103 -4 6 -2 9 3 8 5 -2 48 55
96 125 163 244 326 440 533 642 78 77 174 167 212 199 49 41 68 64 63 75 -5
14 -3 14 11 2 15 -12 17 -11 17 2 0 9 5 19 12 23 7 5 8 3 3 -6 -5 -7 4 -5 18
6 32 23 30 39 -5 38 -14 -1 -25 4 -25 12 0 9 5 10 17 4 11 -6 22 -5 30 3 10
10 11 9 5 -2 -6 -11 -4 -13 9 -8 11 5 15 3 10 -5 -9 -14 12 -3 41 22 11 10 69
50 128 90 59 39 106 77 104 83 -4 13 5 12 -562 57 -209 17 -392 32 -407 35
-23 4 -42 -10 -132 -96z m-559 -2031 c-3 -8 -6 -5 -6 6 -1 11 2 17 5 13 3 -3
4 -12 1 -19z m-140 -570 c-3 -8 -6 -5 -6 6 -1 11 2 17 5 13 3 -3 4 -12 1 -19z
m-34 -83 c-3 -9 -8 -14 -10 -11 -3 3 -2 9 2 15 9 16 15 13 8 -4z m-140 -375
c-3 -12 -8 -19 -11 -16 -5 6 5 36 12 36 2 0 2 -9 -1 -20z m-476 -282 c-3 -8
-6 -5 -6 6 -1 11 2 17 5 13 3 -3 4 -12 1 -19z m520 -60 c-3 -7 -5 -2 -5 12 0
14 2 19 5 13 2 -7 2 -19 0 -25z m-587 -18 c0 -13 -1 -13 -10 0 -5 8 -10 22
-10 30 0 13 1 13 10 0 5 -8 10 -22 10 -30z m7 -62 c-3 -8 -6 -5 -6 6 -1 11 2
17 5 13 3 -3 4 -12 1 -19z m473 -128 c0 -47 -4 -80 -10 -80 -6 0 -10 33 -10
80 0 47 4 80 10 80 6 0 10 -33 10 -80z"/>
<path d="M16594 25485 c-3 -8 -4 -20 -2 -27 3 -7 7 -1 10 15 6 29 1 36 -8 12z"/>
<path d="M15880 24313 c0 -72 77 -511 116 -663 17 -65 95 -329 108 -365 8 -22
30 -83 49 -135 57 -159 120 -299 130 -293 6 3 7 1 3 -5 -9 -15 29 -102 44
-102 6 0 10 -6 8 -12 -1 -7 2 -23 6 -36 7 -22 8 -22 22 -5 11 14 13 15 14 3 0
-13 1 -13 10 0 8 11 9 8 4 -13 -4 -20 -1 -34 11 -47 16 -18 16 -20 2 -20 -10
0 -20 13 -26 33 -5 17 -10 24 -10 14 -1 -22 26 -77 38 -77 4 0 13 -15 19 -32
7 -18 10 -23 8 -12 -4 22 8 26 32 11 8 -6 12 -2 12 12 0 16 -6 21 -27 21 -26
0 -26 1 -7 15 19 15 19 15 -3 34 -16 13 -23 30 -23 53 0 22 -7 38 -20 48 -11
8 -20 21 -20 30 0 8 -9 21 -21 28 -19 12 -20 20 -16 105 5 85 17 195 32 275 3
17 12 32 19 32 20 0 30 83 16 126 -7 20 -23 54 -36 77 -13 24 -24 59 -24 80 0
20 -4 37 -10 37 -5 0 -10 -19 -10 -42 0 -28 -3 -38 -9 -30 -4 8 -7 71 -6 140
2 109 6 137 29 196 21 56 25 76 17 100 -5 17 -13 68 -16 114 -4 45 -11 82 -16
82 -5 0 -9 7 -9 16 0 8 -4 13 -8 10 -10 -6 -8 36 2 53 7 10 4 11 -13 2 -11 -7
-21 -9 -21 -5 0 3 -7 1 -15 -6 -9 -7 -14 -19 -11 -27 3 -8 2 -12 -3 -9 -5 3
-14 -1 -21 -9 -7 -8 -30 -20 -53 -26 -77 -20 -157 33 -157 106 0 29 -4 34 -70
85 -25 19 -46 38 -48 42 -7 15 -22 8 -22 -9z m404 -193 c-5 -5 -10 3 -11 18
-1 22 0 24 9 8 6 -10 6 -22 2 -26z m-2 -615 c-3 -27 -1 -35 12 -35 9 0 16 -4
16 -10 0 -14 -27 -12 -33 3 -4 9 -8 8 -16 -3 -5 -8 -14 -11 -18 -6 -4 5 -2 11
5 13 6 3 12 17 12 32 0 27 7 41 20 41 3 0 4 -16 2 -35z m45 -127 c-3 -7 -5 -2
-5 12 0 14 2 19 5 13 2 -7 2 -19 0 -25z m-27 -48 c0 -29 -4 -40 -15 -40 -11 0
-15 11 -15 40 0 29 4 40 15 40 11 0 15 -11 15 -40z m40 -134 c0 -8 -4 -18 -10
-21 -5 -3 -10 3 -10 14 0 12 5 21 10 21 6 0 10 -6 10 -14z m0 -411 c14 -16 10
-18 -14 -9 -9 3 -16 10 -16 15 0 14 16 11 30 -6z m20 -70 c0 -8 -2 -15 -4 -15
-2 0 -6 7 -10 15 -3 8 -1 15 4 15 6 0 10 -7 10 -15z"/>
<path d="M16401 23994 c0 -11 3 -14 6 -6 3 7 2 16 -1 19 -3 4 -6 -2 -5 -13z"/>
<path d="M16440 22820 c0 -5 5 -10 11 -10 5 0 7 5 4 10 -3 6 -8 10 -11 10 -2
0 -4 -4 -4 -10z"/>
<path d="M16451 22555 c-1 -5 3 -17 9 -25 5 -8 5 -19 0 -25 -5 -6 -5 -17 -1
-24 17 -26 23 27 7 56 -8 15 -15 24 -15 18z"/>
<path d="M25015 22419 c-4 -6 -5 -12 -2 -15 2 -3 7 2 10 11 7 17 1 20 -8 4z"/>
<path d="M16537 22393 c3 -7 6 -13 8 -13 2 0 5 6 8 13 3 8 -1 14 -8 14 -7 0
-11 -6 -8 -14z"/>
<path d="M16572 22290 c7 -11 17 -20 22 -20 5 0 1 9 -9 20 -10 11 -20 20 -22
20 -2 0 2 -9 9 -20z"/>
<path d="M15751 28107 c-8 -10 -7 -14 4 -14 8 0 15 6 15 14 0 7 -2 13 -4 13
-2 0 -9 -6 -15 -13z"/>
<path d="M15534 27720 c0 -13 4 -16 10 -10 7 7 7 13 0 20 -6 6 -10 3 -10 -10z"/>
<path d="M15494 27689 c-3 -6 -1 -16 6 -22 10 -9 11 -9 5 2 -4 8 -2 17 6 22 9
6 10 9 2 9 -6 0 -15 -5 -19 -11z"/>
<path d="M14462 22298 c-14 -14 -16 -32 -3 -24 5 4 11 3 14 -1 2 -5 2 -2 0 6
-2 8 2 18 9 23 7 4 8 8 3 8 -6 0 -16 -5 -23 -12z"/>
<path d="M14495 22270 c3 -5 8 -10 11 -10 2 0 4 5 4 10 0 6 -5 10 -11 10 -5 0
-7 -4 -4 -10z"/>
<path d="M14540 22131 c0 -6 5 -13 10 -16 6 -3 10 1 10 9 0 9 -4 16 -10 16 -5
0 -10 -4 -10 -9z"/>
<path d="M14625 21970 c8 -27 25 -53 32 -46 2 2 -6 19 -17 37 -18 28 -20 29
-15 9z"/>
<path d="M14665 21820 c-3 -5 -1 -10 4 -10 6 0 11 5 11 10 0 6 -2 10 -4 10 -3
0 -8 -4 -11 -10z"/>
<path d="M14776 21625 c-9 -26 -7 -32 5 -12 6 10 9 21 6 23 -2 3 -7 -2 -11
-11z"/>
<path d="M14811 21574 c0 -11 3 -14 6 -6 3 7 2 16 -1 19 -3 4 -6 -2 -5 -13z"/>
<path d="M14830 21500 c6 -11 15 -20 20 -20 6 0 2 9 -7 20 -10 11 -19 20 -21
20 -1 0 2 -9 8 -20z"/>
<path d="M23900 26607 c0 -7 8 -13 19 -13 11 0 17 5 14 13 -3 7 -11 13 -19 13
-8 0 -14 -6 -14 -13z"/>
<path d="M23900 26549 c0 -5 5 -7 10 -4 6 3 10 8 10 11 0 2 -4 4 -10 4 -5 0
-10 -5 -10 -11z"/>
<path d="M20632 23338 c-22 -69 -674 -2053 -844 -2566 -44 -134 -78 -244 -77
-246 26 -18 934 -608 939 -609 6 -2 175 107 809 521 84 56 110 77 100 84 -10
7 -8 8 8 3 32 -9 35 7 13 71 -11 33 -117 356 -236 719 -118 363 -322 983 -452
1378 l-237 719 -23 -74z m706 -2501 c22 -23 21 -56 -1 -84 -17 -23 -64 -15
-86 14 -49 61 33 128 87 70z m237 -276 c3 -5 2 -12 -3 -15 -5 -3 -9 1 -9 9 0
17 3 19 12 6z"/>
<path d="M21672 19541 c-117 -76 -214 -140 -217 -143 -3 -2 75 -57 173 -120
431 -281 486 -317 489 -315 1 2 -51 163 -116 359 l-118 356 -211 -137z"/>
<path d="M19341 19418 c-127 -381 -150 -459 -138 -451 94 55 647 424 645 430
-3 9 -406 273 -416 273 -4 0 -45 -114 -91 -252z"/>
<path d="M22866 19504 c-5 -14 -4 -15 9 -4 17 14 19 20 6 20 -5 0 -12 -7 -15
-16z"/>
<path d="M22885 19437 c1 -12 3 -26 4 -30 1 -11 21 2 21 14 0 6 -5 7 -12 3 -8
-5 -9 -2 -5 9 3 9 2 19 -2 21 -5 3 -7 -5 -6 -17z"/>
<path d="M22921 19414 c0 -11 3 -14 6 -6 3 7 2 16 -1 19 -3 4 -6 -2 -5 -13z"/>
<path d="M18381 18944 c0 -11 3 -14 6 -6 3 7 2 16 -1 19 -3 4 -6 -2 -5 -13z"/>
<path d="M18362 18904 c-7 -8 -8 -14 -3 -14 10 0 25 19 20 25 -2 1 -10 -3 -17
-11z"/>
<path d="M20220 18595 c-239 -156 -562 -366 -717 -466 -156 -101 -283 -186
-283 -189 0 -3 120 -76 268 -162 147 -86 466 -274 710 -417 244 -144 448 -261
454 -261 13 0 88 43 718 415 614 362 710 419 710 425 0 8 -32 29 -960 633
-245 159 -450 293 -455 298 -6 4 -195 -113 -445 -276z"/>
<path d="M18336 18854 c-4 -9 -4 -19 -1 -22 2 -3 7 3 11 12 4 9 4 19 1 22 -2
3 -7 -3 -11 -12z"/>
<path d="M18377 18833 c2 -13 -1 -23 -7 -23 -5 0 -10 6 -10 13 0 9 -3 8 -9 -2
-5 -7 -13 -11 -17 -8 -5 3 -39 -85 -76 -194 -45 -135 -62 -199 -54 -199 23 0
216 132 209 143 -3 6 -1 7 5 3 14 -9 73 34 65 47 -3 5 -20 7 -37 4 -29 -5 -29
-5 -8 5 18 9 28 9 43 0 21 -13 43 -7 34 9 -3 5 2 6 11 2 12 -4 15 -3 10 5 -4
7 -2 10 6 7 7 -3 24 4 38 14 22 17 22 19 5 18 -13 -1 -20 4 -19 15 1 10 -2 16
-6 13 -10 -6 -23 12 -27 36 -6 38 -24 69 -40 69 -9 0 -32 5 -50 12 -29 10 -36
10 -44 -2 -8 -11 -9 -9 -4 10 4 18 3 21 -3 11 -9 -12 -11 -12 -15 0 -2 8 -2 4
0 -8z"/>
<path d="M18654 18714 c-18 -14 -18 -15 4 -4 12 6 22 13 22 15 0 8 -5 6 -26
-11z"/>
<path d="M18786 18585 c-11 -8 -15 -15 -9 -15 6 0 16 7 23 15 16 19 11 19 -14
0z"/>
<path d="M18728 18540 c-14 -10 -27 -17 -30 -15 -3 3 -5 -2 -5 -10 0 -21 14
-19 27 5 6 11 17 20 25 20 7 0 17 5 20 10 10 17 -11 11 -37 -10z"/>
<path d="M18665 18500 c4 -7 1 -10 -11 -8 -12 2 -18 -2 -16 -10 1 -8 -2 -11
-7 -7 -6 3 -38 -12 -72 -33 l-62 -39 84 -6 c173 -13 304 -16 279 -8 -24 9 -24
9 -3 10 22 1 22 2 6 21 -10 11 -28 20 -40 20 -13 0 -23 5 -23 10 0 6 -18 10
-40 10 -28 0 -40 4 -40 14 0 8 6 17 13 20 6 3 2 3 -10 0 -12 -3 -32 0 -44 6
-16 9 -20 9 -14 0z"/>
<path d="M18795 18500 c3 -5 8 -10 11 -10 2 0 4 5 4 10 0 6 -5 10 -11 10 -5 0
-7 -4 -4 -10z"/>
<path d="M18259 18248 c-86 -56 -109 -75 -145 -123 -45 -58 -68 -129 -67 -205
0 -80 15 -129 61 -198 38 -58 67 -80 217 -167 199 -116 258 -146 266 -138 7 7
112 322 231 695 l43 136 -60 6 c-33 3 -127 10 -210 16 -82 5 -177 12 -210 15
-57 5 -63 3 -126 -37z"/>
<path d="M19058 18223 c12 -2 30 -2 40 0 9 3 -1 5 -23 4 -22 0 -30 -2 -17 -4z"/>
<path d="M19128 18217 c11 -13 6 -14 -41 -10 l-54 5 -43 -129 c-24 -70 -91
-271 -150 -446 l-106 -319 26 -17 c14 -10 72 -45 130 -78 58 -33 195 -113 305
-178 487 -287 603 -355 611 -355 6 0 559 328 638 377 36 23 37 25 19 38 -11 7
-28 13 -39 12 -10 -1 -18 3 -17 9 1 7 -65 51 -148 99 -131 76 -152 85 -167 73
-16 -12 -16 -11 -2 6 14 18 13 19 -3 13 -10 -4 -16 -3 -13 2 6 10 -44 43 -159
105 -11 6 -34 21 -51 33 -21 15 -35 19 -45 12 -22 -13 -35 -11 -16 4 16 11 14
14 -20 32 -21 10 -50 27 -65 38 -21 13 -32 15 -46 8 -11 -6 -22 -8 -24 -5 -3
2 -27 0 -54 -7 -27 -6 -85 -15 -129 -20 -44 -5 -96 -11 -115 -14 l-35 -5 39
13 c51 16 62 45 30 74 l-24 21 0 -22 c0 -12 5 -27 12 -34 20 -20 3 -23 -36 -7
-21 9 -46 13 -57 10 -11 -4 -19 -2 -19 4 0 6 4 11 10 11 5 0 7 6 4 14 -4 10 2
12 20 9 15 -3 26 -1 26 5 0 6 33 16 74 23 43 7 72 17 69 22 -3 6 -1 7 5 3 6
-4 23 -4 38 0 22 6 24 8 10 16 -9 5 -21 6 -28 2 -7 -4 -8 -3 -4 4 8 14 -30 35
-47 26 -6 -4 -9 -3 -4 1 6 7 -74 65 -123 88 -50 24 -244 144 -247 152 -1 6 25
28 58 49 34 22 67 46 75 53 19 19 9 73 -24 132 -14 25 -24 48 -23 51 1 3 -6 7
-16 9 -14 3 -15 1 -5 -12z m-61 -23 c-3 -3 -12 -4 -19 -1 -8 3 -5 6 6 6 11 1
17 -2 13 -5z m81 -24 c13 0 13 -3 4 -12 -10 -10 -15 -10 -22 2 -5 8 -9 20 -9
25 0 6 3 4 6 -2 2 -7 12 -13 21 -13z m-38 6 c0 -2 -18 -6 -40 -8 -22 -2 -40 0
-40 4 0 5 18 8 40 8 22 0 40 -2 40 -4z m-97 -106 c-3 -12 -8 -19 -11 -16 -5 6
5 36 12 36 2 0 2 -9 -1 -20z m227 -500 c0 -13 -11 -13 -30 0 -12 8 -11 10 8
10 12 0 22 -4 22 -10z m4 -27 c4 -4 13 -8 19 -9 7 0 20 -2 30 -2 21 -2 23 -22
2 -22 -8 0 -15 4 -15 9 0 5 -8 7 -18 4 -10 -2 -24 3 -31 11 -13 16 -1 23 13 9z
m1121 -401 c-3 -3 -11 0 -18 7 -9 10 -8 11 6 5 10 -3 15 -9 12 -12z"/>
<path d="M19221 18081 c-10 -7 -7 -9 12 -8 14 1 23 5 20 10 -6 9 -15 9 -32 -2z"/>
<path d="M19430 17546 c0 -9 5 -16 10 -16 6 0 10 4 10 9 0 6 -4 13 -10 16 -5
3 -10 -1 -10 -9z"/>
<path d="M22600 17234 c-41 -25 -95 -57 -120 -71 -25 -14 -161 -93 -302 -177
-142 -83 -288 -169 -325 -190 -263 -153 -341 -201 -337 -207 2 -4 57 -38 122
-75 64 -36 140 -80 167 -97 28 -17 102 -61 165 -97 63 -37 160 -94 215 -127
55 -33 201 -120 325 -193 582 -345 713 -420 718 -415 2 2 -73 234 -167 517
-93 282 -218 663 -278 846 l-108 333 -75 -47z"/>
<path d="M20837 17089 c7 -7 15 -10 18 -7 3 3 -2 9 -12 12 -14 6 -15 5 -6 -5z"/>
<path d="M20938 17044 c6 -3 10 -9 7 -14 -3 -4 2 -10 10 -13 10 -4 12 -1 8 10
-5 13 -2 13 20 -2 31 -20 35 -30 10 -21 -21 7 12 -18 70 -53 22 -13 37 -19 33
-13 -3 6 -3 12 1 15 5 2 2 2 -4 1 -7 -2 -13 0 -13 5 0 5 -11 11 -23 15 -20 5
-24 11 -22 40 2 27 -1 33 -12 29 -12 -5 -12 -7 -2 -14 8 -4 11 -11 7 -14 -3
-4 -19 1 -34 11 -15 10 -36 19 -48 20 -12 2 -15 0 -8 -2z"/>
<path d="M20642 16978 c-7 -7 -12 -9 -12 -4 0 4 -13 -2 -29 -13 -16 -12 -32
-21 -34 -21 -3 0 -56 -29 -117 -65 -61 -36 -114 -65 -117 -65 -2 0 -17 -8 -31
-19 -28 -19 -189 -113 -280 -164 -44 -24 -51 -32 -40 -42 12 -11 479 -288 638
-378 l35 -20 75 45 c264 159 568 338 583 344 9 3 17 9 17 13 0 4 -44 33 -97
65 -54 31 -105 61 -113 66 -110 67 -392 230 -396 230 -3 0 -17 9 -31 20 -30
23 -35 24 -51 8z"/>
<path d="M21146 16934 c-20 -14 -20 -14 0 -29 37 -30 59 -36 30 -10 -23 21
-26 29 -15 35 7 5 11 11 9 14 -3 2 -14 -2 -24 -10z"/>
<path d="M21222 16881 c-10 -6 -5 -11 17 -21 17 -7 28 -16 25 -21 -3 -5 1 -6
9 -3 8 3 21 -3 28 -13 21 -28 149 -104 162 -97 7 4 9 4 5 -1 -10 -11 29 -38
43 -30 7 5 6 12 -3 23 -11 15 -11 15 3 4 13 -10 22 -10 43 -1 14 7 26 17 26
22 0 5 -6 5 -13 -1 -10 -9 -17 -6 -30 8 -15 18 -15 20 1 30 15 10 15 11 -2 6
-11 -4 -26 0 -35 8 -17 16 -114 18 -137 4 -7 -5 -9 4 -7 25 3 29 -1 26 -14
-13 -3 -11 -8 -8 -18 11 -9 17 -26 29 -46 33 -31 6 -32 7 -13 22 18 15 18 15
-3 5 -27 -14 -36 -14 -28 -1 7 12 4 12 -13 1z"/>
<path d="M21683 16815 c0 -7 6 -11 14 -8 7 3 13 6 13 8 0 2 -6 5 -13 8 -8 3
-14 -1 -14 -8z"/>
<path d="M21610 16796 c-6 -8 -17 -13 -24 -10 -8 3 -16 -1 -19 -9 -4 -11 0
-13 15 -9 15 4 19 2 13 -7 -4 -7 11 -1 34 14 22 15 41 30 41 32 0 3 -11 -2
-25 -11 -31 -20 -41 -21 -25 -1 7 8 10 15 7 15 -2 0 -10 -6 -17 -14z"/>
<path d="M23075 16503 c11 -3 26 -10 33 -15 8 -7 12 -7 12 0 0 12 -25 22 -48
21 -13 -1 -12 -3 3 -6z"/>
<path d="M23055 16483 c11 -11 27 -18 34 -15 13 5 13 6 0 10 -7 3 -23 9 -34
15 l-20 10 20 -20z"/>
<path d="M21390 16431 c-52 -31 -202 -119 -332 -195 -131 -76 -238 -141 -238
-146 0 -4 7 -11 16 -14 17 -6 85 -46 482 -280 l233 -138 47 12 c32 7 51 18 57
32 27 59 125 85 182 49 41 -26 59 -83 43 -139 -11 -45 -36 -70 -76 -81 l-29
-8 45 -23 c25 -13 77 -42 116 -66 l72 -43 73 14 c67 13 279 57 338 71 23 5 23
5 5 26 -11 11 -95 86 -188 167 -94 80 -201 174 -240 209 -39 34 -76 60 -84 57
-7 -2 -11 -1 -8 4 3 4 -23 36 -58 70 -51 49 -70 61 -96 61 -102 0 -151 120
-78 193 19 19 34 47 38 69 l7 38 -104 60 c-58 33 -110 60 -116 59 -7 0 -55
-26 -107 -58z m485 -481 c-3 -5 -12 -10 -18 -10 -7 0 -6 4 3 10 19 12 23 12
15 0z m3 -189 c-12 -19 -28 -19 -28 0 0 6 5 7 10 4 6 -3 10 -1 10 4 0 6 5 11
10 11 6 0 5 -8 -2 -19z"/>
<path d="M23358 16443 c7 -3 16 -2 19 1 4 3 -2 6 -13 5 -11 0 -14 -3 -6 -6z"/>
<path d="M23680 16434 c0 -8 5 -12 10 -9 6 3 10 10 10 16 0 5 -4 9 -10 9 -5 0
-10 -7 -10 -16z"/>
<path d="M23469 16384 c-10 -39 -14 -44 -20 -27 -5 15 -20 23 -48 28 -23 4
-41 10 -41 15 0 4 -16 11 -35 14 -27 5 -46 1 -78 -16 -23 -13 -44 -25 -47 -28
-3 -3 -18 -11 -33 -18 -35 -15 -33 -23 36 -152 27 -52 84 -161 125 -242 41
-82 77 -148 81 -148 4 0 19 80 35 178 15 97 34 220 42 272 8 52 17 107 19 122
2 15 -2 31 -10 38 -12 10 -16 4 -26 -36z m18 -11 c-3 -10 -5 -4 -5 12 0 17 2
24 5 18 2 -7 2 -21 0 -30z"/>
<path d="M23649 16428 c0 -2 -2 -12 -4 -23 -2 -11 -8 -42 -14 -70 -12 -56 -51
-267 -50 -275 0 -3 27 49 59 114 33 66 57 123 54 128 -3 4 0 8 6 8 7 0 9 7 6
16 -3 8 -2 13 2 10 5 -3 18 15 29 39 21 45 17 59 -7 30 -7 -9 -19 -14 -27 -11
-7 3 -13 1 -13 -5 0 -6 -4 -8 -9 -5 -5 4 -12 0 -15 -6 -3 -7 -4 -1 -2 15 2 15
-1 30 -5 33 -5 3 -9 4 -10 2z"/>
<path d="M21830 16290 c0 -5 7 -10 16 -10 8 0 12 5 9 10 -3 6 -10 10 -16 10
-5 0 -9 -4 -9 -10z"/>
<path d="M23701 16004 c-67 -135 -120 -248 -118 -250 2 -2 32 8 68 22 90 37
143 58 224 89 39 15 71 28 73 30 5 4 -108 338 -117 348 -4 4 -62 -104 -130
-239z"/>
<path d="M21884 16159 c-7 -12 15 -31 31 -26 6 2 11 11 13 20 4 19 -32 24 -44
6z"/>
<path d="M22037 16111 c-10 -28 -22 -51 -26 -51 -5 0 -25 16 -45 36 -20 20
-36 32 -36 27 0 -11 104 -112 210 -203 47 -40 90 -78 95 -84 6 -6 71 -65 145
-131 74 -66 137 -122 140 -125 3 -3 22 -19 42 -36 35 -30 39 -31 85 -22 102
20 368 79 370 82 2 2 -131 81 -294 176 -164 95 -373 217 -465 272 -92 55 -175
102 -185 104 -14 4 -22 -6 -36 -45z"/>
<path d="M23225 15902 c4 -12 29 -71 57 -130 42 -89 52 -103 58 -86 5 12 21
30 37 42 23 17 26 23 15 34 -11 11 -12 10 -7 -3 4 -10 0 -19 -9 -22 -9 -4 -16
-2 -16 3 0 5 -7 7 -15 4 -10 -4 -15 0 -15 11 0 9 -4 14 -9 11 -12 -8 -53 63
-45 76 4 6 2 8 -3 5 -6 -4 -20 12 -32 36 -12 23 -19 32 -16 19z"/>
<path d="M23773 15691 c-106 -42 -193 -78 -193 -81 0 -3 37 -31 83 -62 95 -66
178 -124 238 -168 23 -16 44 -29 46 -27 4 5 25 409 21 411 -2 1 -90 -32 -195
-73z"/>
<path d="M22926 15462 l-219 -46 52 -48 c29 -27 94 -85 145 -130 50 -44 127
-113 170 -152 44 -39 84 -71 89 -71 11 0 87 218 87 249 0 11 -17 71 -37 133
-27 81 -42 113 -53 112 -8 -1 -114 -22 -234 -47z"/>
<path d="M24077 15420 c-13 -160 -15 -152 54 -200 46 -32 60 -38 55 -24 -3 10
-28 84 -54 164 l-49 145 -6 -85z"/>
<path d="M23312 15050 c-5 -14 -17 -49 -28 -78 l-18 -53 49 -47 c28 -26 61
-56 74 -67 l23 -20 -3 30 c-2 17 -7 35 -12 42 -5 7 -24 59 -42 115 -30 91 -35
100 -43 78z"/>
<path d="M22830 14866 c0 -2 8 -10 18 -17 15 -13 16 -12 3 4 -13 16 -21 21
-21 13z"/>
<path d="M24350 14792 c0 -12 19 -26 26 -19 2 2 -2 10 -11 17 -9 8 -15 8 -15
2z"/>
<path d="M22998 14768 c5 -5 16 -8 23 -6 8 3 3 7 -10 11 -17 4 -21 3 -13 -5z"/>
<path d="M24370 14731 c0 -29 15 -33 16 -5 1 13 -2 24 -7 24 -5 0 -9 -9 -9
-19z"/>
<path d="M15775 18972 c2 -9 4 -20 4 -24 1 -5 5 -8 11 -8 5 0 6 7 3 17 -4 11
-3 14 5 9 7 -4 12 -5 12 -2 0 3 -9 10 -19 16 -16 8 -19 7 -16 -8z"/>
<path d="M15993 18798 c0 -13 1 -17 4 -10 3 6 10 9 16 5 7 -4 6 1 -2 10 -17
21 -17 21 -18 -5z"/>
<path d="M16076 18702 c-3 -5 1 -9 9 -9 8 0 15 4 15 9 0 4 -4 8 -9 8 -6 0 -12
-4 -15 -8z"/>
<path d="M16124 18701 c7 -11 46 -35 46 -28 0 3 -12 12 -26 22 -15 9 -23 12
-20 6z"/>
<path d="M16110 18688 c0 -3 9 -15 20 -28 11 -13 20 -19 20 -13 0 5 -9 18 -20
28 -11 10 -20 16 -20 13z"/>
<path d="M16174 18659 c-7 -11 12 -29 31 -29 6 1 2 5 -8 11 -9 6 -15 14 -12
20 4 5 4 9 1 9 -3 0 -8 -5 -12 -11z"/>
<path d="M17560 16465 c-7 -9 -8 -15 -2 -15 5 0 12 7 16 15 3 8 4 15 2 15 -2
0 -9 -7 -16 -15z"/>
<path d="M17581 16444 c0 -11 3 -14 6 -6 3 7 2 16 -1 19 -3 4 -6 -2 -5 -13z"/>
<path d="M17237 15625 c-4 -8 -3 -16 1 -19 4 -3 9 4 9 15 2 23 -3 25 -10 4z"/>
<path d="M24262 14359 c-44 -39 -37 -47 8 -9 25 21 37 26 43 17 6 -9 7 -8 5 2
-7 24 -21 22 -56 -10z"/>
<path d="M24195 14300 c-18 -8 -17 -9 8 -9 15 -1 27 4 27 9 0 12 -8 12 -35 0z"/>
<path d="M21840 13686 c0 -2 7 -7 16 -10 8 -3 12 -2 9 4 -6 10 -25 14 -25 6z"/>
<path d="M18920 13790 c0 -5 5 -10 11 -10 5 0 7 5 4 10 -3 6 -8 10 -11 10 -2
0 -4 -4 -4 -10z"/>
<path d="M24805 12900 c-3 -6 1 -7 9 -4 18 7 21 14 7 14 -6 0 -13 -4 -16 -10z"/>
<path d="M24740 12840 c-14 -10 -22 -21 -19 -24 3 -3 16 5 29 19 28 30 24 32
-10 5z"/>
<path d="M24114 11588 c-4 -7 -3 -8 5 -4 6 4 20 2 29 -6 15 -12 16 -11 3 5
-16 20 -27 22 -37 5z"/>
<path d="M42695 7355 c28 -24 52 -45 55 -45 3 0 5 -137 5 -303 0 -331 2 -345
57 -373 35 -18 447 -20 481 -3 57 29 57 27 57 376 l0 323 -29 32 -29 33 -324
2 -323 3 50 -45z"/>
<path d="M53990 7392 c0 -4 23 -25 50 -46 l50 -38 0 -269 0 -269 300 0 300 0
0 270 c0 226 -3 276 -16 301 -28 55 -52 59 -384 59 -165 0 -300 -4 -300 -8z"/>
<path d="M58100 7393 c1 -5 24 -25 53 -47 l52 -39 -3 -283 c-3 -320 1 -354 51
-384 29 -18 52 -20 256 -20 l223 0 34 34 34 34 0 319 c0 278 -2 321 -16 342
-34 47 -62 51 -384 51 -165 0 -300 -3 -300 -7z"/>
<path d="M19997 3195 c2 -7 13 -11 24 -8 25 7 24 10 -5 15 -16 3 -23 1 -19 -7z"/>
</g>
</svg>
