<?xml version="1.0" standalone="no"?>
<!DOCTYPE svg PUBLIC "-//W3C//DTD SVG 20010904//EN"
 "http://www.w3.org/TR/2001/REC-SVG-20010904/DTD/svg10.dtd">
<svg version="1.0" xmlns="http://www.w3.org/2000/svg"
 width="7000.000000pt" height="4500.000000pt" viewBox="0 0 7000.000000 4500.000000"
 preserveAspectRatio="xMidYMid meet">

<g transform="translate(0.000000,4500.000000) scale(0.100000,-0.100000)"
fill="#000000" stroke="none">
<path d="M0 22500 l0 -22500 20468 0 20467 0 89 1903 c49 1046 90 1938 92
1982 2 44 11 231 19 415 16 343 21 467 30 625 3 50 16 333 30 630 13 297 27
582 30 632 l6 93 -203 2 -203 3 -3 187 -2 188 159 0 c143 0 160 2 165 17 83
278 486 1664 486 1672 0 8 123 11 455 11 l455 0 0 205 0 205 65 0 65 0 0 -205
0 -205 452 -2 452 -3 27 -90 c15 -49 122 -416 239 -815 116 -399 216 -740 221
-757 l11 -33 159 0 159 0 -2 -188 -3 -187 -204 -3 -204 -2 6 -68 c4 -37 45
-922 93 -1967 47 -1045 89 -1907 92 -1915 3 -8 4 -23 3 -34 -2 -13 1 -16 11
-10 10 6 11 5 2 -7 -12 -16 -12 -58 1 -79 5 -9 4 -11 -3 -6 -16 10 -15 -26 1
-43 10 -11 10 -13 0 -7 -8 4 -13 1 -13 -8 0 -24 15 -27 30 -5 8 10 20 19 28
19 7 0 11 4 8 9 -10 15 5 41 23 41 20 0 61 43 61 64 0 9 8 16 18 16 26 1 50
23 57 53 6 24 12 27 46 27 39 0 39 0 39 -40 l0 -40 40 0 c35 0 40 3 40 23 0
27 32 57 60 57 14 0 20 7 20 23 0 27 32 57 60 57 20 0 26 18 21 65 -1 15 1 17
11 7 18 -18 46 -15 60 8 17 27 54 25 83 -5 31 -30 34 -75 5 -75 -11 0 -20 -4
-20 -10 0 -20 27 -9 63 25 20 19 37 37 37 40 0 3 -11 5 -25 5 -31 0 -75 41
-75 70 0 27 23 50 50 50 29 0 70 -44 70 -75 0 -31 3 -31 35 0 31 32 31 35 0
35 -31 0 -75 41 -75 70 0 12 6 28 14 36 18 17 63 18 69 2 2 -8 8 -9 13 -4 5 5
4 11 -3 13 -7 3 -13 17 -13 33 0 21 7 30 30 40 17 7 30 16 30 20 0 4 9 10 20
13 12 3 20 14 20 27 0 15 5 20 14 17 8 -3 25 11 42 34 49 67 104 67 104 0 0
-30 4 -40 18 -43 29 -6 60 3 66 20 3 10 9 23 12 31 4 9 2 11 -5 7 -6 -4 -11
-1 -11 8 0 19 11 21 27 5 8 -8 13 -8 17 0 4 6 1 11 -6 11 -10 0 -9 3 2 11 12
8 9 9 -10 4 -34 -10 -104 -6 -108 5 -2 6 -18 10 -35 11 -30 1 -31 1 -7 9 23 6
22 8 -15 15 -134 25 -439 88 -550 112 -117 25 -126 29 -90 34 22 3 33 7 25 8
-8 1 10 10 40 19 35 11 58 25 64 38 5 11 17 25 27 30 152 78 139 70 213 139
26 25 57 45 67 45 11 0 19 7 19 14 0 8 17 28 37 43 65 50 102 86 97 94 -3 5 1
7 8 4 7 -3 30 11 50 30 20 19 41 35 45 35 5 0 22 14 38 30 16 17 34 29 39 28
6 -1 28 13 48 32 20 19 64 55 98 80 34 25 73 55 87 68 14 13 44 35 66 50 23
15 46 32 50 39 4 7 15 13 22 13 8 0 15 5 15 10 0 6 5 10 11 10 9 0 75 44 89
60 16 18 399 265 456 295 38 20 76 43 86 52 12 10 26 13 45 9 21 -5 24 -4 13
4 -13 9 -12 12 5 26 11 8 32 18 48 21 15 3 27 10 27 15 0 5 10 6 22 3 16 -6
20 -4 15 8 -7 19 83 70 110 61 15 -5 15 -4 4 4 -12 9 -9 14 17 29 18 10 32 21
32 26 0 4 7 7 15 7 8 0 59 25 112 55 54 30 103 55 109 55 6 0 30 14 52 30 50
36 68 37 221 10 62 -10 116 -19 120 -18 3 1 39 -2 79 -7 l72 -8 2 -98 c1 -55
2 -111 3 -126 1 -16 4 -187 6 -380 2 -194 5 -353 5 -353 11 0 52 29 48 33 -3
3 3 3 13 1 11 -3 25 2 32 10 8 9 19 16 25 16 6 0 19 7 30 15 22 17 23 25 25
518 l1 339 38 -6 c121 -20 391 -45 421 -40 28 4 33 3 21 -6 -12 -9 -1 -10 45
-6 44 4 55 3 40 -4 -33 -17 48 -4 87 13 18 8 48 20 65 25 l33 11 2 -391 3
-390 94 171 c52 94 98 171 103 171 5 0 6 4 3 10 -4 6 1 7 11 3 14 -5 16 -3 11
10 -6 15 -4 16 16 6 19 -11 20 -10 9 3 -10 13 -9 15 14 10 14 -2 35 0 47 7 12
6 33 13 47 15 14 3 27 5 30 6 3 2 8 2 13 1 4 0 7 3 7 7 0 5 6 9 14 9 10 0 1
-27 -32 -88 -26 -48 -51 -85 -56 -81 -5 3 -6 1 -3 -5 4 -6 -70 -151 -163 -323
l-170 -314 0 -608 0 -608 558 2 557 3 6 1354 c5 1265 7 1355 23 1366 13 10 14
14 4 19 -10 5 -10 7 -1 12 8 3 13 25 13 55 l0 49 66 0 c37 0 63 4 60 9 -4 5 8
13 26 16 l32 7 -25 14 c-32 18 -20 17 25 -1 44 -19 49 -40 6 -31 -17 3 -30 1
-30 -4 0 -6 16 -10 35 -10 45 0 56 23 24 50 -18 15 -20 19 -5 14 11 -4 22 -1
27 7 6 9 9 0 9 -28 0 -24 5 -43 10 -43 6 0 10 -18 10 -40 0 -22 5 -40 10 -40
6 0 10 18 10 40 0 22 5 40 11 40 6 0 10 18 9 43 -1 23 -1 232 -1 465 l1 422
75 0 75 0 0 95 0 95 -129 0 -129 0 -37 41 c-21 24 -34 47 -31 55 3 8 2 12 -4
9 -5 -3 -16 8 -25 26 -9 17 -12 28 -7 25 6 -4 13 -2 17 4 3 5 -3 10 -14 10
-14 0 -21 6 -21 20 0 11 -1 23 -2 27 -3 9 90 31 114 27 14 -2 16 14 17 132 l2
134 -29 0 c-16 0 -49 3 -73 6 -44 6 -44 6 -41 43 1 20 3 79 5 131 l2 95 68 0
67 0 0 1488 0 1487 -75 0 -75 0 0 54 c0 40 -4 55 -16 60 -9 3 -20 4 -25 0 -5
-3 -9 3 -9 13 0 15 -2 15 -10 3 -7 -11 -15 -7 -44 23 -19 20 -42 37 -50 37 -9
0 -16 4 -16 9 0 5 -15 18 -33 30 -61 39 -71 46 -84 58 -7 6 -13 16 -13 22 0 6
-9 11 -20 11 -11 0 -20 4 -20 8 0 5 35 13 78 18 l77 9 -44 32 c-24 18 -40 33
-36 33 5 0 -2 11 -14 24 -20 21 -33 24 -122 28 -55 3 -105 10 -111 16 -8 8
-13 86 -15 229 -3 155 -9 237 -20 283 -9 37 -17 111 -17 172 l-1 108 -49 0
-48 0 4 38 c3 20 13 67 23 104 11 37 16 70 13 73 -5 6 -28 12 -51 14 -4 1 -1
16 7 35 8 19 12 37 8 40 -3 3 0 6 7 6 7 0 10 4 6 9 -8 14 28 31 64 31 26 0 33
6 50 43 26 53 68 125 93 156 20 26 11 41 -24 41 -29 0 -21 15 21 38 29 17 55
22 107 22 60 0 71 3 90 25 22 25 168 125 183 125 5 0 14 7 21 15 11 13 -2 15
-110 15 l-122 0 31 27 c41 37 220 134 248 136 13 1 23 6 23 11 0 5 3 7 6 3 3
-3 27 1 52 10 59 19 195 53 198 50 2 -1 4 -49 5 -105 1 -91 3 -102 18 -96 21
10 180 11 257 2 73 -9 74 -9 74 117 0 79 1 81 25 83 14 1 25 -2 25 -8 0 -5 17
-12 38 -15 20 -4 51 -13 67 -20 68 -29 102 -43 148 -58 26 -9 81 -38 121 -66
41 -27 77 -47 80 -44 3 4 6 -1 6 -10 0 -15 -16 -17 -142 -18 -105 0 -136 -3
-118 -10 13 -6 27 -13 30 -18 3 -4 21 -13 40 -21 19 -8 43 -22 54 -31 10 -10
24 -15 32 -12 8 3 14 -1 14 -11 0 -8 10 -21 23 -27 12 -7 28 -20 35 -31 12
-16 28 -18 148 -18 l134 0 0 90 0 90 -76 0 -76 0 6 31 c3 17 6 51 6 74 l0 43
31 -11 c17 -7 42 -22 56 -35 13 -12 28 -22 34 -22 5 0 10 -8 11 -17 6 -42 13
11024 8 13311 l-5 2509 -25 -54 c-99 -214 -306 -421 -535 -537 -281 -141 -622
-166 -934 -67 -282 90 -549 316 -691 585 l-45 85 -3 4140 c-2 2277 0 4159 3
4183 l6 42 1114 0 1113 0 694 411 c381 226 694 411 695 412 4 5 233 4017 231
4051 -3 40 -3 41 -46 44 -66 4 -92 18 -92 47 0 16 -6 25 -16 25 -34 0 -187 74
-259 125 -205 145 -329 375 -342 631 -20 398 235 743 626 846 107 28 286 27
396 -1 152 -40 301 -126 400 -232 240 -255 297 -626 145 -935 -101 -207 -274
-355 -497 -428 -44 -15 -53 -22 -53 -41 0 -25 -9 -28 -92 -40 -48 -7 -48 -8
-48 -45 0 -21 52 -929 115 -2018 63 -1089 115 -1991 115 -2004 0 -21 84 -73
695 -436 l696 -412 1114 0 1114 0 6 -52 c3 -29 5 -1911 3 -4183 l-3 -4130 -41
-80 c-80 -154 -214 -310 -361 -417 -35 -26 -111 -71 -170 -101 -190 -97 -336
-131 -558 -130 -319 0 -599 113 -828 332 -103 99 -175 194 -234 305 l-42 81
-1 -1205 0 -1205 69 66 c84 80 158 124 242 144 81 18 857 69 923 60 324 -43
672 -521 920 -1267 181 -543 307 -1215 368 -1973 18 -217 18 -1157 0 -1355
-77 -871 -252 -1505 -514 -1861 -102 -140 -243 -247 -354 -268 -27 -5 -107
-12 -179 -16 -71 -3 -157 -8 -190 -10 -33 -3 -134 -9 -225 -15 -91 -6 -188
-13 -216 -16 -160 -17 -360 88 -514 269 -86 101 -180 246 -261 400 l-69 132 0
-3835 c0 -2109 4 -3829 9 -3822 4 8 12 14 17 15 5 1 8 5 7 9 -2 4 6 12 17 18
10 5 34 23 51 40 18 16 34 28 35 27 2 -2 13 -172 14 -206 l0 -25 33 32 c18 18
36 32 39 32 4 0 35 20 70 44 63 43 111 68 158 82 14 3 43 15 65 24 85 38 125
48 235 60 47 5 105 12 130 16 33 4 41 3 30 -5 -12 -9 -11 -11 8 -11 12 0 22 5
22 11 0 14 128 3 185 -16 22 -7 65 -18 95 -25 30 -7 64 -19 75 -26 11 -8 34
-14 53 -14 33 0 102 -24 112 -39 3 -4 45 -28 94 -52 49 -24 102 -56 119 -71
16 -16 31 -28 33 -28 16 0 220 -221 259 -281 26 -41 54 -79 60 -84 15 -13 58
-95 49 -95 -4 0 -1 -7 6 -15 7 -8 10 -15 6 -15 -3 0 3 -23 14 -51 11 -27 22
-67 24 -87 2 -20 7 -45 11 -54 4 -9 4 -22 0 -28 -3 -5 -2 -10 2 -10 12 0 33
-62 33 -96 0 -16 3 -85 5 -154 7 -160 6 -174 -7 -195 -9 -14 2 -65 14 -65 6 0
8 -18 6 -40 -2 -22 1 -40 6 -40 5 0 -3 -9 -18 -21 -25 -20 -26 -22 -9 -35 11
-8 13 -13 5 -14 -7 0 -17 -11 -22 -25 -6 -15 -21 -50 -36 -80 -14 -30 -23 -59
-19 -65 3 -5 0 -7 -8 -4 -8 3 -18 1 -22 -5 -3 -6 -1 -11 4 -11 6 0 11 -7 11
-15 0 -8 -7 -15 -15 -15 -8 0 -15 -7 -15 -15 0 -8 -8 -15 -19 -15 -18 0 -51
-39 -51 -60 0 -6 -21 -37 -46 -68 -26 -31 -51 -69 -56 -84 -6 -16 -18 -28 -31
-30 -14 -2 -23 -11 -25 -26 -2 -13 -10 -26 -18 -29 -11 -4 -13 -14 -9 -34 5
-22 2 -31 -10 -35 -10 -4 -29 -18 -43 -30 -14 -13 -29 -24 -34 -24 -5 0 -29
-14 -54 -30 -24 -17 -44 -29 -44 -26 0 3 -21 -7 -47 -23 -27 -16 -58 -32 -70
-36 -13 -3 -23 -11 -23 -16 0 -5 -16 -9 -35 -9 l-34 0 -3 -142 c-3 -141 -3
-143 -28 -155 -16 -8 -19 -13 -9 -13 9 0 19 -7 23 -15 3 -8 1 -15 -3 -15 -5 0
-12 6 -14 13 -3 6 -6 3 -6 -8 -1 -17 -3 -17 -11 -5 -5 8 -10 10 -10 3 0 -6 -9
-9 -21 -6 -14 4 -25 0 -31 -11 -5 -9 -15 -16 -23 -16 -13 0 -15 -165 -15
-1205 0 -872 3 -1205 11 -1205 10 0 69 37 79 51 3 3 17 8 33 11 l27 5 0 -218
0 -217 -27 -6 c-16 -3 -50 -7 -76 -8 l-48 -3 2 -145 3 -145 36 -18 c20 -9 44
-17 54 -17 74 0 -28 -158 -140 -217 l-54 -28 0 -612 c0 -402 3 -613 10 -613 6
0 10 -18 10 -40 0 -28 4 -40 14 -40 21 0 29 17 11 24 -19 7 -20 36 -1 36 7 0
19 -7 26 -15 7 -8 27 -17 46 -21 19 -3 37 -10 40 -15 3 -5 18 -9 35 -9 16 0
29 -4 29 -9 0 -5 10 -13 23 -17 12 -4 24 -10 27 -13 3 -4 32 -17 65 -30 58
-21 62 -21 100 -5 22 9 44 22 48 30 4 8 14 14 21 14 8 0 19 7 26 15 16 19 54
19 70 0 7 -8 9 -15 4 -15 -5 0 -17 -12 -27 -25 -15 -22 -16 -25 -2 -25 8 0 15
6 15 14 0 7 7 19 15 26 12 10 25 8 68 -14 30 -14 58 -26 64 -26 5 0 35 -15 66
-34 31 -19 72 -39 91 -46 19 -6 40 -18 46 -26 7 -7 21 -14 31 -14 11 0 19 -7
19 -15 0 -8 14 -17 37 -21 37 -7 86 -41 78 -55 -7 -10 32 -22 44 -14 6 3 14
-2 19 -11 6 -11 18 -15 35 -12 15 3 28 2 29 -2 3 -6 752 76 903 99 123 19 117
22 110 -61 -3 -40 -14 -298 -25 -573 -11 -275 -22 -543 -25 -595 -3 -52 -10
-201 -15 -330 -5 -129 -13 -296 -16 -370 -3 -74 -7 -160 -9 -190 -2 -30 -7
-147 -11 -260 -3 -113 -9 -238 -11 -277 -3 -50 -1 -73 6 -73 6 0 11 -7 11 -15
0 -8 9 -19 20 -25 11 -6 20 -15 20 -19 0 -13 143 -151 157 -151 6 0 14 -6 16
-12 3 -7 6 -2 6 11 1 19 4 21 15 12 11 -9 15 9 20 111 4 68 11 182 16 253 14
189 19 282 20 354 0 54 2 62 15 51 8 -6 19 -9 24 -5 6 3 8 0 5 -8 -3 -10 9
-26 33 -43 21 -16 40 -32 43 -35 3 -4 51 46 107 110 55 64 97 118 91 120 -5 2
-64 -5 -131 -14 -118 -17 -123 -19 -155 -54 l-34 -36 6 90 c2 50 10 216 17
370 6 154 15 285 18 292 3 6 72 -67 160 -169 l153 -179 -26 -28 c-26 -27 -34
-51 -17 -51 6 0 37 -22 69 -49 58 -49 60 -49 77 -31 17 18 19 17 70 -43 29
-34 125 -147 214 -251 l161 -188 -189 -197 c-264 -274 -354 -367 -418 -432
l-55 -57 29 -33 c17 -19 44 -50 62 -69 l31 -35 25 28 c25 28 34 54 15 42 -6
-4 -10 5 -10 19 0 14 5 26 10 26 6 0 10 7 10 15 0 8 7 15 16 15 13 0 12 -5 -6
-27 -13 -17 -17 -30 -11 -36 15 -15 93 56 302 273 100 104 187 190 192 190 5
0 6 -20 2 -47 -6 -43 -5 -46 8 -29 9 13 21 17 36 13 18 -4 20 -3 10 9 -6 8
-10 16 -8 18 5 6 79 -62 79 -72 0 -5 11 -18 25 -30 14 -12 25 -29 25 -37 0 -8
7 -15 15 -15 8 0 15 -9 15 -20 0 -24 -13 -26 -31 -4 -12 14 -14 14 -20 -4 -7
-17 -14 -19 -48 -15 -66 9 -75 -1 -38 -39 18 -19 39 -44 47 -56 15 -22 40 -30
40 -12 0 15 19 12 36 -4 16 -17 19 -36 4 -36 -5 0 -10 -7 -10 -15 0 -8 5 -15
10 -15 6 0 10 -8 10 -17 0 -21 57 -89 66 -80 4 3 -5 20 -20 37 -31 38 -39 66
-34 120 2 22 0 40 -5 40 -4 0 -5 5 -1 11 5 8 8 8 14 0 4 -7 15 -9 25 -5 13 5
16 4 11 -4 -4 -7 -14 -12 -22 -12 -22 0 -19 -82 5 -111 17 -20 20 -22 26 -8 3
9 5 45 3 80 -2 48 -7 64 -18 65 -8 0 -24 5 -34 9 -18 8 -18 9 -1 22 16 11 21
10 37 -4 11 -10 18 -11 18 -5 0 9 92 12 350 12 l350 0 0 -287 c0 -159 3 -561
7 -895 l6 -608 79 0 78 0 2 858 3 858 680 -687 c532 -536 681 -692 683 -714 3
-25 -14 -46 -139 -171 l-143 -144 444 0 444 0 -142 143 c-112 113 -142 148
-142 169 0 22 49 77 261 290 144 145 258 257 254 250 -5 -9 0 -12 19 -10 25 4
49 18 29 18 -5 0 -10 7 -10 15 0 18 14 20 19 3 4 -12 11 -10 58 17 14 8 28 11
31 7 4 -4 28 -55 54 -115 45 -101 66 -126 79 -92 3 8 11 12 19 9 12 -4 24 3
74 46 16 14 23 13 23 -4 0 -7 7 -19 15 -26 8 -7 15 -20 15 -29 0 -9 17 -51 37
-93 29 -60 42 -78 58 -78 11 0 83 16 160 35 77 19 148 35 158 35 17 0 18 -16
17 -272 -1 -150 -1 -283 -1 -295 l1 -23 3440 0 3440 0 0 22500 0 22500 -35000
0 -35000 0 0 -22500z m42759 12515 c149 -82 207 -258 133 -408 -50 -101 -148
-176 -231 -177 l-34 0 7 -262 c25 -1003 107 -4006 112 -4105 l6 -123 29 0 c26
0 29 -4 29 -30 l0 -30 -96 0 -96 0 6 -52 c3 -29 12 -143 21 -253 8 -110 17
-217 20 -237 l5 -38 -66 0 -65 0 5 53 c3 28 13 142 21 252 8 110 17 217 20
238 l5 37 -95 0 -95 0 0 30 c0 27 3 30 30 30 17 0 30 3 30 8 0 4 24 907 54
2007 30 1100 58 2106 61 2235 l6 236 -55 17 c-142 45 -243 195 -222 331 18
117 65 190 150 233 76 39 94 43 176 40 61 -3 86 -9 129 -32z m-89 -6047 l0
-202 -27 -28 c-32 -34 -40 -34 -75 -3 l-28 24 0 206 0 205 65 0 65 0 0 -202z
m841 121 c16 -17 29 -35 29 -39 0 -5 21 1 47 12 65 29 164 29 218 1 161 -85
193 -289 64 -414 -31 -30 -63 -50 -93 -59 -62 -17 -159 -9 -186 15 -21 19 -22
19 -33 0 -20 -37 -65 -75 -88 -75 -41 0 -109 41 -144 87 -46 61 -69 133 -69
218 0 88 23 159 71 215 65 76 136 91 184 39z m-2080 -29 c34 -19 18 -70 -23
-70 -22 0 -35 45 -18 65 15 18 16 18 41 5z m1238 -702 l1 -188 -65 0 -65 0 0
188 0 187 32 27 32 26 32 -26 33 -27 0 -187z m829 -51 c21 -17 58 -97 71 -153
12 -51 13 -52 77 -79 36 -15 63 -32 62 -37 -2 -5 -30 -24 -63 -41 -58 -31 -60
-33 -67 -82 -10 -68 -34 -128 -63 -155 -20 -19 -32 -22 -65 -17 -139 18 -231
233 -175 411 38 122 159 204 223 153z m-828 -474 l0 -207 -32 -27 -33 -26 -32
24 -33 25 0 209 0 209 65 0 65 0 0 -207z m-846 93 c21 -15 48 -54 68 -93 30
-62 33 -76 33 -159 0 -84 -3 -96 -35 -159 -45 -87 -92 -126 -159 -133 -48 -4
-50 -4 -75 35 -15 22 -33 73 -42 114 -8 40 -16 74 -17 75 -1 0 -28 15 -59 33
-32 18 -58 36 -58 41 0 4 29 20 64 36 l64 27 12 56 c14 64 33 106 64 139 17
20 28 23 63 19 25 -3 57 -16 77 -31z m2004 -208 c22 -22 14 -57 -14 -64 -41
-10 -63 44 -26 65 22 13 26 13 40 -1z m-1186 -285 l28 -27 0 -183 0 -183 -65
0 -65 0 0 182 0 182 27 28 c33 35 40 35 75 1z m26 -739 l-3 -206 -31 -25 -32
-24 -31 27 -31 26 0 204 0 204 65 0 65 0 -2 -206z m963 73 c49 -33 115 -167
138 -281 l18 -90 106 -45 c59 -26 107 -51 107 -58 0 -6 -47 -37 -105 -68 -102
-55 -105 -57 -105 -91 0 -57 -30 -185 -57 -247 -15 -32 -43 -73 -66 -93 -38
-34 -43 -36 -92 -31 -116 12 -225 104 -294 251 -51 106 -66 171 -65 281 2 108
23 196 71 288 87 165 246 250 344 184z m-2077 -289 c15 -25 -4 -53 -35 -53
-19 0 -25 6 -27 29 -5 45 38 61 62 24z m1114 -387 l2 -191 -65 0 -65 0 0 189
0 189 31 26 31 27 32 -24 31 -25 3 -191z m2 -523 l0 -202 -27 -28 c-15 -15
-32 -28 -38 -28 -6 0 -23 13 -38 28 l-27 28 0 202 0 202 65 0 65 0 0 -202z
m1168 -126 c7 -49 -52 -74 -64 -27 -8 31 12 57 40 53 13 -2 22 -12 24 -26z
m-1168 -484 l0 -188 -65 0 -65 0 0 188 0 187 32 26 32 27 33 -27 33 -26 0
-187z m837 -284 c23 -25 40 -59 56 -111 24 -85 50 -106 90 -78 69 48 144 -15
121 -101 -11 -42 -90 -62 -121 -31 -14 14 -19 14 -45 1 -21 -11 -28 -22 -28
-42 0 -86 -60 -192 -108 -192 -68 0 -151 70 -188 159 -65 155 -6 361 120 416
49 21 66 18 103 -21z m-837 -239 l0 -205 -32 -29 -32 -29 -33 27 -33 26 0 208
0 207 65 0 65 0 0 -205z m-1116 -57 c15 -25 -4 -53 -35 -53 -17 0 -25 6 -27
23 -7 46 38 67 62 30z m1116 -555 l0 -183 -65 0 -65 0 0 185 0 185 33 29 32
30 33 -32 32 -31 0 -183z m-891 -173 c240 -128 369 -541 270 -865 -11 -39 -44
-115 -72 -170 -67 -130 -179 -248 -279 -295 -83 -39 -188 -51 -235 -27 -96 50
-162 212 -183 452 -6 65 -11 119 -13 120 -30 22 -43 21 -76 -5 -134 -104 -329
-40 -376 124 -39 135 51 274 197 301 63 12 142 -18 200 -76 65 -65 86 -64 102
6 17 74 60 196 93 260 50 99 90 151 142 186 42 28 52 30 107 26 44 -3 79 -14
123 -37z m891 -354 l0 -204 -33 -25 -33 -25 -32 25 -32 24 0 205 0 204 65 0
65 0 0 -204z m1151 -96 c22 -12 24 -37 5 -62 -19 -26 -41 -22 -55 8 -10 22 -9
30 5 45 20 22 20 22 45 9z m-1182 -296 l31 -26 0 -189 0 -189 -65 0 -65 0 0
187 0 187 27 28 c15 15 30 28 34 28 4 0 21 -12 38 -26z m31 -737 c0 -198 -1
-204 -22 -224 -41 -36 -48 -37 -79 -7 l-29 28 0 203 0 203 65 0 65 0 0 -203z
m838 -101 c27 -31 50 -87 66 -158 5 -23 19 -34 71 -57 36 -17 65 -34 65 -38 0
-5 -29 -23 -65 -41 -57 -28 -65 -35 -65 -60 0 -40 -29 -132 -51 -164 -25 -35
-49 -42 -97 -29 -48 13 -105 67 -137 131 -78 154 -27 374 99 431 59 27 80 24
114 -15z m-1960 -18 c17 -17 15 -38 -4 -59 -23 -25 -54 -8 -54 30 0 15 3 31 7
34 10 11 38 8 51 -5z m1122 -490 l0 -188 -65 0 -65 0 0 189 0 190 32 24 31 25
34 -26 33 -27 0 -187z m0 -520 l0 -202 -31 -32 -32 -33 -33 27 -34 27 0 208 0
207 65 0 65 0 0 -202z m1274 -67 c33 -36 -18 -83 -52 -49 -17 17 -15 45 6 57
24 14 26 14 46 -8z m-1275 -543 l1 -188 -65 0 -65 0 0 187 0 187 32 27 33 27
32 -27 32 -26 0 -187z m1 -532 l0 -204 -33 -25 -33 -25 -32 25 -32 24 0 205 0
204 65 0 65 0 0 -204z m922 -74 c91 -62 181 -216 245 -415 l38 -118 165 -52
c101 -33 165 -58 165 -66 0 -7 -63 -57 -140 -110 l-140 -98 -7 -149 c-9 -215
-36 -325 -105 -431 -49 -74 -101 -98 -198 -90 -90 8 -161 35 -241 93 -159 113
-304 348 -348 566 -32 153 -15 364 40 522 71 204 220 357 374 384 59 11 98 1
152 -36z m-1824 -157 c140 -59 240 -216 272 -430 21 -140 2 -250 -71 -402 -81
-169 -204 -273 -341 -289 -48 -6 -62 -3 -92 16 -71 43 -118 159 -136 337 -10
85 -16 112 -31 125 -19 16 -22 16 -55 -4 -28 -16 -47 -19 -95 -16 -54 4 -63 8
-90 39 -93 108 -36 259 99 259 51 0 86 -13 115 -42 13 -13 22 -14 44 -6 24 9
31 22 51 92 34 125 93 236 153 290 45 40 57 46 95 46 25 0 61 -7 82 -15z m871
-161 l31 -26 0 -189 0 -189 -65 0 -65 0 0 187 0 187 27 28 c15 15 30 28 34 28
4 0 21 -12 38 -26z m31 -737 c0 -198 -1 -204 -22 -224 -41 -36 -48 -37 -79 -7
l-29 28 0 203 0 203 65 0 65 0 0 -203z m0 -608 l0 -189 -65 0 -65 0 0 189 0
190 32 24 32 25 33 -25 33 -25 0 -189z m-8688 -68 c29 -11 103 -80 94 -88 -3
-3 -1 -12 4 -18 7 -9 -2 -17 -35 -29 -60 -23 -58 -39 3 -21 56 18 55 17 47 5
-3 -5 -2 -10 4 -10 5 0 9 -18 9 -40 0 -38 -2 -39 -27 -33 -14 3 -36 10 -49 14
-29 11 -32 11 -32 0 0 -5 20 -17 44 -26 36 -14 44 -21 40 -38 -4 -22 -74 -88
-85 -81 -3 2 -15 -3 -25 -11 -25 -19 -54 -19 -54 0 0 8 -4 15 -10 15 -5 0 -10
-7 -10 -15 0 -15 -31 -21 -44 -7 -4 4 -11 7 -15 7 -15 0 -81 50 -81 61 0 6 -7
17 -15 24 -23 19 -19 26 25 44 22 9 40 18 40 21 0 3 -22 3 -50 -1 -46 -6 -50
-5 -50 15 0 11 4 21 9 21 5 0 7 10 4 21 -6 20 -3 21 48 15 l54 -6 -35 18 c-64
31 -63 31 -28 70 17 20 34 37 37 37 3 0 12 4 19 9 15 9 99 33 124 35 9 0 27
-3 40 -8z m8688 -453 l0 -202 -31 -32 -32 -33 -33 26 -34 25 0 209 0 209 65 0
65 0 0 -202z m-765 -84 c105 -10 137 -48 180 -218 37 -148 48 -291 42 -549 -7
-296 -36 -496 -99 -697 -37 -116 -91 -222 -130 -255 -27 -23 -37 -25 -135 -25
l-105 0 -38 38 c-61 61 -97 186 -121 412 -15 142 -6 488 16 650 56 409 174
676 290 656 16 -3 62 -8 100 -12z m765 -526 l0 -188 -65 0 -65 0 0 187 0 187
32 26 32 27 33 -26 33 -26 0 -187z m5050 151 c0 -4 9 -9 21 -12 11 -3 23 -15
26 -26 3 -12 10 -21 16 -21 6 0 7 -3 4 -6 -3 -4 -2 -14 3 -24 6 -11 5 -30 0
-52 -32 -115 -206 -112 -234 4 -8 35 19 102 48 121 33 22 116 33 116 16z
m-5052 -685 l-3 -206 -31 -25 -32 -24 -31 27 -31 26 0 204 0 204 65 0 65 0 -2
-206z m-26 -391 l28 -27 0 -188 0 -188 -65 0 -65 0 0 190 0 191 28 24 c34 31
40 31 74 -2z m28 -735 l0 -202 -27 -28 c-15 -15 -32 -28 -38 -28 -6 0 -23 13
-38 28 l-27 28 0 202 0 202 65 0 65 0 0 -202z m-35769 -254 c62 -32 59 37 59
-1354 0 -1076 -2 -1276 -14 -1305 -36 -86 -176 -86 -212 0 -12 29 -14 229 -14
1303 0 918 3 1278 11 1301 22 62 105 89 170 55z m922 -7 c12 -8 169 -230 347
-493 1498 -2211 1400 -2063 1400 -2111 0 -38 -5 -50 -34 -79 -29 -29 -41 -34
-80 -34 -39 0 -52 5 -81 33 -28 27 -352 502 -1598 2344 -147 217 -155 239
-122 303 30 57 110 75 168 37z m1687 8 c63 -32 60 13 60 -967 0 -867 -1 -894
-20 -925 -22 -36 -82 -60 -125 -49 -44 11 -82 57 -90 107 -3 24 -5 432 -3 906
3 857 3 862 24 890 39 52 98 67 154 38z m913 -8 c12 -8 169 -230 347 -493
1498 -2211 1400 -2063 1400 -2111 0 -38 -5 -50 -34 -79 -29 -29 -41 -34 -80
-34 -39 0 -52 5 -81 33 -28 27 -352 502 -1598 2344 -147 217 -155 239 -122
303 30 57 110 75 168 37z m1687 8 c63 -32 60 13 60 -967 0 -867 -1 -894 -20
-925 -22 -36 -82 -60 -125 -49 -44 11 -82 57 -90 107 -3 24 -5 432 -3 906 3
857 3 862 24 890 39 52 98 67 154 38z m1990 1 c290 -44 552 -194 748 -428 131
-157 209 -296 267 -472 49 -150 67 -275 67 -456 0 -366 -102 -649 -334 -928
-196 -234 -458 -384 -748 -428 -393 -59 -764 66 -1045 351 -198 201 -320 428
-381 706 -27 121 -27 477 0 598 61 278 184 507 381 706 282 285 653 410 1045
351z m1632 -13 c12 -10 29 -36 39 -58 24 -54 908 -2448 926 -2507 12 -40 12
-51 -1 -82 -16 -38 -67 -76 -104 -76 -39 0 -90 27 -105 57 -35 67 -947 2554
-947 2581 0 33 40 88 74 103 31 13 94 3 118 -18z m1848 12 c35 -18 60 -62 60
-106 0 -18 -151 -436 -336 -931 -373 -995 -351 -948 -441 -948 -38 0 -50 5
-79 34 -27 27 -34 42 -34 72 0 26 111 337 338 944 322 864 339 905 371 927 39
27 80 29 121 8z m1570 -7 c29 -21 83 -141 577 -1298 393 -918 546 -1285 546
-1312 0 -97 -113 -150 -190 -90 -34 26 -1113 2556 -1113 2610 0 92 102 143
180 90z m3349 -4 c17 -14 35 -41 40 -60 13 -47 -3 -97 -40 -128 l-31 -26 -954
0 c-1059 0 -1001 -4 -1030 65 -18 44 -18 69 1 109 33 70 -36 65 1027 66 l956
0 31 -26z m642 10 c62 -32 59 37 59 -1354 0 -1076 -2 -1276 -14 -1305 -36 -86
-176 -86 -212 0 -12 29 -14 229 -14 1303 0 918 3 1278 11 1301 22 62 105 89
170 55z m741 -11 c12 -10 29 -36 39 -58 24 -54 908 -2448 926 -2507 12 -40 12
-51 -1 -82 -16 -38 -67 -76 -104 -76 -39 0 -90 27 -105 57 -35 67 -947 2554
-947 2581 0 33 40 88 74 103 31 13 94 3 118 -18z m1848 12 c35 -18 60 -62 60
-106 0 -26 -217 -618 -620 -1689 -60 -161 -84 -190 -156 -190 -39 0 -51 5 -80
34 -27 27 -34 42 -34 72 0 26 111 337 338 944 322 864 339 905 371 927 39 27
80 29 121 8z m751 -1 c62 -32 59 38 59 -1359 0 -1402 4 -1317 -60 -1350 -62
-32 -141 -9 -166 50 -12 29 -14 229 -14 1303 0 918 3 1278 11 1301 22 62 105
89 170 55z m1578 1 c16 -8 36 -31 46 -51 25 -52 15 -101 -30 -141 l-35 -33
-655 0 c-720 0 -698 -2 -730 60 -30 59 -10 136 43 164 40 22 1319 23 1361 1z
m14580 -141 l31 -26 0 -189 0 -189 -65 0 -65 0 0 187 0 187 27 28 c15 15 30
28 34 28 4 0 21 -12 38 -26z m800 -195 c373 -117 644 -437 702 -829 15 -108 6
-290 -20 -392 -47 -181 -131 -328 -266 -465 l-92 -93 -99 0 c-112 0 -203 20
-296 65 l-58 27 0 860 0 860 33 -7 c17 -3 61 -15 96 -26z m-199 -94 c0 -63 -3
-115 -7 -115 -10 0 -127 100 -131 112 -2 5 2 16 10 25 19 23 108 93 119 93 5
0 9 -52 9 -115z m-21677 74 c12 -6 30 -21 39 -33 16 -20 18 -95 18 -1143 l0
-1123 -28 -31 c-53 -59 -166 -44 -192 27 -7 17 -9 424 -8 1141 l3 1115 33 29
c35 32 93 39 135 18z m-2607 -143 c28 -28 34 -42 34 -75 0 -56 -867 -2094
-905 -2128 -75 -67 -195 -16 -195 83 0 19 171 431 433 1045 239 558 441 1029
451 1046 20 40 59 62 110 63 30 0 45 -7 72 -34z m24124 -21 l23 -25 -41 0
c-41 0 -41 1 -30 25 6 14 14 25 18 25 4 0 17 -11 30 -25z m-410 -360 l0 -205
-32 -29 -32 -29 -33 25 -33 25 0 209 0 209 65 0 65 0 0 -205z m470 201 c0 -3
-184 -164 -211 -183 -15 -11 -16 -8 -8 35 5 26 16 71 24 100 l16 52 89 0 c50
0 90 -2 90 -4z m100 -517 c0 -389 -3 -489 -12 -483 -14 9 -187 158 -255 220
-41 38 -44 42 -58 134 -8 52 -15 149 -15 215 l0 120 163 142 c89 78 165 142
170 142 4 1 7 -220 7 -490z m-35435 417 c68 -29 65 23 65 -975 l0 -901 -29
-32 c-27 -30 -35 -33 -86 -33 -51 0 -59 3 -86 33 l-29 32 0 908 c0 1004 -4
938 64 968 40 17 59 17 101 0z m2600 0 c68 -29 65 23 65 -975 l0 -901 -29 -32
c-27 -30 -35 -33 -86 -33 -51 0 -59 3 -86 33 l-29 32 0 908 c0 1004 -4 938 64
968 40 17 59 17 101 0z m17434 -381 c16 -14 35 -41 41 -60 15 -46 -1 -96 -41
-130 l-31 -25 -539 0 c-592 0 -582 -1 -614 60 -19 37 -19 83 0 120 31 60 19
59 612 60 l541 0 31 -25z m14831 -325 c0 -212 5 -200 -81 -200 l-49 0 0 194 0
195 32 24 32 25 33 -25 33 -25 0 -188z m411 -198 c-18 -2 -39 -1 -47 2 -14 5
-54 86 -54 108 0 5 30 -17 67 -49 l66 -58 -32 -3z m-23631 63 c79 -41 79 -169
0 -210 -26 -14 -80 -15 -386 -13 l-356 3 -29 33 c-52 58 -33 165 35 192 11 5
175 9 364 9 288 1 348 -1 372 -14z m23215 -399 l0 -208 -32 -25 -31 -24 -32
28 -31 28 0 198 c1 110 4 203 7 208 3 6 31 9 62 7 l57 -3 0 -209z m475 205 c0
-11 -26 -22 -34 -14 -12 12 -5 23 14 23 11 0 20 -4 20 -9z m100 -88 l0 -68
-37 38 -38 38 35 30 c19 16 36 29 37 29 2 0 3 -30 3 -67z m-571 -720 l1 -193
-65 0 -65 0 0 192 0 192 32 27 33 27 32 -27 32 -26 0 -192z m-14578 99 c24
-26 29 -41 29 -82 0 -41 -5 -56 -29 -82 l-29 -33 -674 -3 c-653 -2 -674 -2
-705 17 -22 14 -36 33 -44 61 -17 56 1 114 44 141 31 19 52 19 705 17 l674 -3
29 -33z m14579 -624 l0 -202 -27 -28 c-32 -34 -40 -34 -75 -3 l-28 24 0 206 0
205 65 0 65 0 0 -202z m-28 -395 l28 -27 0 -188 0 -188 -65 0 -65 0 0 190 0
191 28 24 c34 31 40 31 74 -2z m-934 -126 c16 -17 17 -74 20 -833 l2 -815 -29
-30 c-16 -16 -37 -29 -45 -29 -14 0 -16 -60 -18 -572 -3 -536 -4 -573 -20
-576 -17 -3 -18 29 -18 571 l0 575 -25 6 c-14 4 -34 15 -45 26 -20 20 -20 37
-20 835 l0 816 26 26 c23 23 31 25 90 21 43 -3 70 -10 82 -21z m1967 -2 l25
-24 0 -805 c0 -588 -3 -812 -12 -830 -6 -15 -26 -31 -45 -38 l-33 -12 0 -573
c0 -566 0 -573 -20 -573 -20 0 -20 7 -20 574 l0 574 -25 6 c-14 4 -34 15 -45
26 -20 20 -20 37 -20 835 l0 816 25 24 c20 21 34 25 85 25 51 0 65 -4 85 -25z
m-32859 -169 c14 -10 102 -237 299 -771 267 -725 278 -758 264 -783 -8 -15
-27 -31 -42 -36 -61 -22 -57 -30 -353 769 -150 407 -273 752 -274 768 0 54 60
85 106 53z m1092 -2 c14 -10 22 -25 22 -46 0 -47 -407 -1139 -433 -1161 -41
-35 -107 -4 -107 51 0 40 410 1135 432 1155 25 21 57 22 86 1z m671 -10 c12
-15 21 -33 21 -42 0 -33 -393 -1078 -412 -1094 -44 -39 -112 -8 -110 49 2 49
390 1076 413 1096 30 25 64 21 88 -9z m-5881 -1 c32 -27 1022 -1494 1022
-1513 0 -10 -9 -29 -21 -44 -22 -29 -64 -35 -92 -13 -9 6 -241 345 -517 751
-366 542 -500 747 -500 768 0 57 65 87 108 51z m993 -2 l24 -19 3 -514 c1
-282 0 -523 -3 -535 -12 -51 -78 -71 -117 -36 -17 15 -18 45 -18 550 0 520 0
533 20 553 25 25 61 26 91 1z m529 -1 c20 -20 20 -33 20 -780 0 -747 0 -760
-20 -780 -25 -25 -61 -26 -91 -1 l-24 19 0 762 0 762 24 19 c30 25 66 24 91
-1z m918 4 c16 -11 22 -25 22 -54 0 -71 6 -70 -431 -70 l-388 0 -20 26 c-12
15 -21 34 -21 44 0 10 9 29 21 44 l20 26 388 0 c334 0 390 -2 409 -16z m1409
-6 c29 -27 29 -65 1 -95 l-21 -23 -564 0 c-550 0 -563 0 -583 20 -11 11 -20
33 -20 50 0 17 9 39 20 50 20 20 33 20 582 20 l562 0 23 -22z m3208 -13 c193
-64 358 -218 449 -417 55 -119 70 -195 70 -348 0 -153 -15 -229 -70 -348 -120
-264 -355 -433 -622 -449 -301 -18 -562 142 -702 432 -62 128 -80 211 -80 368
0 152 21 244 84 372 104 210 292 364 501 409 106 24 269 15 370 -19z m953 19
l22 -15 0 -769 0 -769 -22 -15 c-12 -9 -32 -16 -43 -16 -11 0 -31 7 -43 16
l-22 15 0 769 0 769 22 15 c12 9 32 16 43 16 11 0 31 -7 43 -16z m663 2 c218
-46 316 -185 307 -432 -3 -93 -8 -118 -32 -171 -48 -105 -148 -179 -276 -203
-29 -5 -151 -10 -271 -10 -206 0 -220 1 -239 20 -23 23 -26 68 -6 96 13 18 32
19 263 24 270 6 296 11 357 68 64 60 90 182 62 293 -20 78 -56 125 -122 159
-48 24 -56 25 -300 30 -280 6 -284 6 -284 71 0 66 12 69 260 69 146 0 236 -5
281 -14z m829 -6 c20 -20 20 -33 20 -780 0 -747 0 -760 -20 -780 -25 -25 -61
-26 -91 -1 l-24 19 0 762 0 762 24 19 c30 25 66 24 91 -1z m842 3 c10 -9 18
-30 18 -47 0 -28 -40 -71 -353 -384 -290 -290 -357 -352 -380 -352 -37 0 -67
33 -67 72 0 30 34 67 348 380 320 321 350 348 381 348 19 0 43 -7 53 -17z
m1925 -5 c29 -27 29 -65 1 -95 l-21 -23 -564 0 c-550 0 -563 0 -583 20 -11 11
-20 33 -20 50 0 17 9 39 20 50 20 20 33 20 582 20 l562 0 23 -22z m383 2 c20
-20 20 -33 20 -780 0 -747 0 -760 -20 -780 -25 -25 -61 -26 -91 -1 l-24 19 0
762 0 762 24 19 c30 25 66 24 91 -1z m918 4 c16 -11 22 -25 22 -54 0 -71 6
-70 -431 -70 l-388 0 -20 26 c-12 15 -21 34 -21 44 0 10 9 29 21 44 l20 26
388 0 c334 0 390 -2 409 -16z m1127 1 c94 -20 236 -91 253 -127 11 -23 11 -33
0 -55 -23 -48 -56 -49 -150 -4 -103 49 -185 66 -287 58 -202 -16 -375 -138
-470 -330 -60 -123 -75 -191 -76 -337 0 -111 3 -135 29 -214 69 -212 227 -364
431 -416 185 -47 358 -7 515 119 36 29 74 51 87 51 32 0 63 -34 63 -69 0 -42
-101 -131 -205 -181 -119 -58 -196 -73 -340 -67 -210 9 -350 70 -496 216 -72
72 -94 102 -133 181 -70 143 -89 227 -89 390 1 166 20 250 94 400 121 245 359
397 624 399 44 0 112 -6 150 -14z m835 -5 c20 -20 20 -33 20 -780 0 -747 0
-760 -20 -780 -29 -29 -74 -26 -99 6 -21 26 -21 33 -21 774 0 741 0 748 21
774 25 32 70 35 99 6z m999 -6 c21 -26 21 -33 21 -777 l0 -751 -22 -23 c-27
-29 -71 -30 -98 -3 -20 20 -20 33 -20 780 0 747 0 760 20 780 29 29 74 26 99
-6z m519 9 c32 -27 1022 -1494 1022 -1513 0 -10 -9 -29 -21 -44 -22 -29 -64
-35 -92 -13 -9 6 -241 345 -517 751 -366 542 -500 747 -500 768 0 57 65 87
108 51z m993 -2 l24 -19 3 -514 c1 -282 0 -523 -3 -535 -12 -51 -78 -71 -117
-36 -17 15 -18 45 -18 550 0 520 0 533 20 553 25 25 61 26 91 1z m1264 -16
c194 -65 358 -217 450 -419 54 -117 69 -194 69 -346 0 -152 -15 -229 -69 -346
-46 -100 -101 -178 -181 -255 -130 -123 -269 -185 -442 -196 -305 -18 -568
146 -708 442 -56 120 -74 205 -74 358 0 152 21 244 84 372 104 210 292 364
501 409 106 24 269 15 370 -19z m955 15 c20 -20 20 -33 20 -784 l0 -765 -22
-15 c-31 -22 -71 -20 -94 5 -18 20 -19 48 -19 781 l0 760 24 19 c30 25 66 24
91 -1z m2006 -14 c227 -73 427 -293 496 -545 17 -61 21 -105 21 -221 0 -116
-4 -160 -21 -221 -68 -252 -267 -470 -496 -546 -71 -24 -97 -27 -216 -27 -155
-1 -208 12 -332 76 -186 96 -343 308 -393 531 -35 155 -14 389 49 531 66 149
208 304 344 374 129 67 197 82 357 77 85 -2 129 -9 191 -29z m1628 14 c91 -23
201 -75 222 -104 29 -42 12 -91 -40 -110 -18 -6 -139 45 -151 64 -3 5 -40 16
-82 26 -354 79 -679 -208 -700 -617 -7 -135 12 -228 73 -349 144 -287 465
-415 732 -290 85 40 162 115 198 193 27 59 29 71 34 245 5 167 7 185 24 198
29 20 70 17 92 -7 17 -19 19 -38 18 -203 0 -146 -4 -192 -18 -236 -52 -160
-173 -276 -356 -346 -68 -25 -87 -28 -205 -28 -120 0 -136 2 -218 31 -123 43
-189 85 -288 184 -76 74 -93 98 -137 190 -72 148 -86 214 -85 384 0 169 20
255 88 390 104 206 254 332 455 384 102 27 243 27 344 1z m864 4 l22 -15 0
-769 0 -769 -22 -15 c-31 -22 -71 -20 -94 5 -18 20 -19 48 -19 779 0 731 1
759 19 779 23 25 63 27 94 5z m530 0 l22 -15 0 -769 0 -769 -22 -15 c-31 -22
-71 -20 -94 5 -18 20 -19 48 -19 779 0 731 1 759 19 779 23 25 63 27 94 5z
m924 -1 c23 -20 24 -80 1 -105 -15 -17 -41 -18 -409 -18 -392 0 -393 0 -414
22 -11 12 -20 34 -20 48 0 14 9 36 20 48 21 22 22 22 412 22 350 0 393 -2 410
-17z m950 6 c191 -40 342 -193 355 -362 5 -56 3 -67 -16 -86 -46 -46 -121 -8
-121 63 0 80 -94 201 -180 231 -110 40 -254 27 -342 -30 -41 -27 -83 -92 -93
-145 -12 -61 -15 -68 -43 -79 -37 -15 -78 0 -94 34 -15 33 1 115 34 181 42 85
147 164 253 190 64 16 179 17 247 3z m15138 -231 c0 -83 -3 -149 -6 -146 -12
13 -34 133 -38 211 -3 81 -3 83 20 85 l24 2 0 -152z m-38990 12 c20 -20 20
-33 20 -675 0 -642 0 -655 -20 -675 -29 -29 -74 -26 -99 6 -21 26 -21 34 -21
669 0 635 0 643 21 669 25 32 70 35 99 6z m8420 0 c20 -20 20 -33 20 -675 0
-642 0 -655 -20 -675 -29 -29 -74 -26 -99 6 -21 26 -21 34 -21 669 0 635 0
643 21 669 25 32 70 35 99 6z m24240 -217 l0 -208 -33 -27 -34 -26 -31 25 -32
24 0 210 0 209 65 0 65 0 0 -207z m-35968 -30 c17 -15 18 -46 18 -554 l0 -538
-22 -15 c-12 -9 -32 -16 -43 -16 -11 0 -31 7 -43 16 l-22 15 0 536 c0 485 2
538 17 555 20 22 70 23 95 1z m17050 0 c17 -15 18 -46 18 -554 l0 -538 -22
-15 c-12 -9 -32 -16 -43 -16 -11 0 -31 7 -43 16 l-22 15 0 536 c0 485 2 538
17 555 20 22 70 23 95 1z m9789 -76 c80 -87 134 -118 309 -177 147 -50 217
-85 283 -141 37 -32 47 -47 47 -71 0 -73 -65 -89 -133 -34 -58 47 -109 71
-261 123 -193 66 -285 122 -367 225 -46 59 -53 107 -17 132 43 31 67 21 139
-57z m-24531 -139 c11 -12 20 -34 20 -48 0 -14 -9 -36 -20 -48 -21 -22 -24
-22 -345 -22 l-324 0 -20 26 c-12 15 -21 34 -21 44 0 10 9 29 21 44 l20 26
324 0 c321 0 324 0 345 -22z m11130 0 c11 -12 20 -34 20 -48 0 -14 -9 -36 -20
-48 -21 -22 -24 -22 -345 -22 l-324 0 -20 26 c-12 15 -21 34 -21 44 0 10 9 29
21 44 l20 26 324 0 c321 0 324 0 345 -22z m2891 4 c15 -13 22 -30 22 -52 0
-22 -7 -39 -22 -52 -22 -17 -47 -18 -352 -18 -316 0 -330 1 -349 20 -11 11
-20 33 -20 50 0 17 9 39 20 50 19 19 33 20 349 20 305 0 330 -1 352 -18z
m9749 -2 c11 -11 20 -33 20 -50 0 -17 -9 -39 -20 -50 -19 -19 -33 -20 -345
-20 -321 0 -324 0 -345 22 -11 12 -20 34 -20 48 0 14 9 36 20 48 21 22 24 22
345 22 312 0 326 -1 345 -20z m-2000 -80 c11 -11 20 -33 20 -50 0 -17 -9 -39
-20 -50 -19 -19 -33 -20 -265 -20 -232 0 -246 1 -265 20 -24 24 -26 77 -3 102
15 16 37 18 265 18 235 0 249 -1 268 -20z m-13927 -388 c369 -369 370 -371
325 -419 -46 -49 -48 -47 -420 324 -299 299 -348 352 -348 377 0 39 26 66 64
66 28 0 71 -40 379 -348z m25789 321 l28 -27 0 -193 0 -193 -65 0 -65 0 0 192
0 192 27 28 c33 35 40 35 75 1z m-30843 -60 c24 -20 251 -592 251 -634 0 -14
-6 -34 -14 -44 -18 -24 -72 -24 -95 1 -28 28 -252 618 -244 641 11 31 35 53
58 53 13 0 32 -8 44 -17z m3622 -288 c178 -167 328 -313 333 -324 22 -51 -28
-105 -80 -85 -14 5 -171 146 -350 313 -285 268 -324 308 -324 335 0 40 26 66
65 66 28 0 71 -37 356 -305z m17890 108 c10 -8 19 -38 23 -76 21 -189 193
-317 425 -317 64 0 168 23 212 46 87 45 159 149 159 230 0 80 65 120 121 75
23 -18 23 -20 11 -100 -40 -278 -316 -431 -659 -366 -159 30 -307 134 -368
259 -34 70 -54 193 -37 231 20 44 74 53 113 18z m9359 -502 l0 -210 -35 -27
-36 -27 -29 28 -30 29 0 208 0 208 65 0 65 0 0 -209z m-33521 93 c12 -15 21
-34 21 -44 0 -10 -9 -29 -21 -44 l-20 -26 -393 0 c-443 0 -436 -1 -436 70 0
71 -7 70 436 70 l393 0 20 -26z m11130 0 c12 -15 21 -34 21 -44 0 -10 -9 -29
-21 -44 l-20 -26 -393 0 c-443 0 -436 -1 -436 70 0 71 -7 70 436 70 l393 0 20
-26z m7601 6 c11 -11 20 -33 20 -50 0 -17 -9 -39 -20 -50 -19 -19 -33 -20
-394 -20 l-375 0 -20 26 c-12 15 -21 34 -21 44 0 10 9 29 21 44 l20 26 375 0
c361 0 375 -1 394 -20z m5043 -12 c22 -29 18 -65 -9 -92 -13 -14 -65 -16 -407
-16 -444 0 -437 -1 -437 70 0 72 -8 71 439 68 l394 -3 20 -27z m9725 -481 c21
-20 22 -26 22 -214 l0 -193 -65 0 -65 0 0 194 0 194 31 26 c32 27 39 26 77 -7z
m7062 -2657 c13 -9 13 -11 0 -20 -22 -15 -30 -12 -30 10 0 22 8 25 30 10z
m5997 -46 c-3 -3 -12 -4 -19 -1 -8 3 -5 6 6 6 11 1 17 -2 13 -5z m60 -26 c-3
-8 -6 -5 -6 6 -1 11 2 17 5 13 3 -3 4 -12 1 -19z m40 -50 c-3 -8 -6 -5 -6 6
-1 11 2 17 5 13 3 -3 4 -12 1 -19z m-6087 -1322 c0 -2 -11 -6 -25 -8 -13 -3
-22 -1 -19 3 5 9 44 13 44 5z m-93 -32 c-3 -3 -12 -4 -19 -1 -8 3 -5 6 6 6 11
1 17 -2 13 -5z m5998 -42 c-3 -3 -11 0 -18 7 -9 10 -8 11 6 5 10 -3 15 -9 12
-12z m50 -12 c8 -13 -5 -13 -25 0 -13 8 -13 10 2 10 9 0 20 -4 23 -10z m2654
-379 c17 -16 39 -32 50 -36 12 -3 21 -11 21 -16 0 -5 6 -9 13 -9 7 0 17 -10
22 -22 6 -12 24 -26 42 -30 18 -5 34 -17 38 -27 3 -11 18 -24 33 -29 15 -5 36
-19 47 -29 12 -11 26 -22 32 -24 8 -3 7 -10 -4 -24 -13 -17 -15 -17 -9 -2 3
11 2 16 -4 12 -6 -3 -10 -13 -10 -21 0 -17 -11 -18 -30 -1 -8 6 -6 2 4 -10 17
-21 15 -28 -7 -24 -5 1 -6 -2 -3 -7 3 -4 -5 -20 -18 -35 l-23 -26 -28 28 c-15
16 -24 34 -21 39 4 6 1 14 -5 18 -8 5 -10 2 -5 -7 4 -8 -4 -1 -18 15 -14 17
-22 34 -19 39 3 6 1 7 -5 3 -13 -8 -35 28 -24 39 4 3 2 5 -5 3 -15 -4 -104
102 -97 114 3 5 0 7 -8 6 -7 -2 -13 4 -13 12 -1 21 -24 60 -36 60 -5 0 -1 -10
11 -22 11 -12 18 -24 15 -26 -5 -6 -44 39 -45 52 0 4 11 5 24 2 14 -3 28 -2
31 4 10 16 22 12 54 -19z m-1141 -78 c-10 -2 -26 -2 -35 0 -10 3 -2 5 17 5 19
0 27 -2 18 -5z m-41 -29 c-3 -3 -12 -4 -19 -1 -8 3 -5 6 6 6 11 1 17 -2 13 -5z
m-114 -11 c-7 -2 -19 -2 -25 0 -7 3 -2 5 12 5 14 0 19 -2 13 -5z m1149 -144
c29 -36 86 -104 126 -152 39 -47 72 -90 72 -95 0 -9 -130 -157 -243 -277 l-66
-70 4 35 c2 19 9 143 15 275 13 297 19 370 30 359 5 -5 33 -39 62 -75z m736 9
c-3 -7 -10 -13 -15 -13 -6 0 -14 -2 -17 -5 -3 -4 5 -6 19 -6 13 0 22 3 19 7
-2 4 0 10 6 14 5 3 10 1 10 -5 0 -6 5 -8 11 -4 8 4 8 0 0 -15 -10 -17 -9 -20
5 -14 14 5 16 1 11 -28 -3 -19 -7 -140 -9 -269 -1 -129 -5 -247 -8 -262 -5
-24 -14 -16 -120 115 -63 77 -130 158 -149 179 l-34 39 24 27 c99 110 177 183
184 172 6 -9 4 -11 -6 -5 -8 5 -7 0 4 -12 19 -22 12 -39 -10 -21 -10 8 -16 8
-24 0 -5 -7 -6 -10 -3 -7 4 3 13 0 21 -7 11 -9 18 -7 31 6 15 15 15 18 2 26
-11 7 -12 10 -2 10 10 0 10 4 -2 16 -20 20 -20 28 0 20 9 -3 12 -2 9 5 -4 6 1
19 11 30 19 21 38 25 32 7z m-10118 -38 c0 -5 -2 -10 -4 -10 -3 0 -8 5 -11 10
-3 6 -1 10 4 10 6 0 11 -4 11 -10z m-31 -33 c0 -9 -2 -8 -6 1 -2 6 -10 9 -15
6 -7 -4 -8 -2 -4 5 9 13 26 5 25 -12z m152 -10 c-10 -9 -11 -8 -5 6 3 10 9 15
12 12 3 -3 0 -11 -7 -18z m-121 -12 c0 -14 -4 -25 -9 -25 -4 0 -6 11 -3 25 2
14 6 25 8 25 2 0 4 -11 4 -25z m-56 -6 c-6 -11 -24 -2 -24 11 0 5 7 7 15 4 8
-4 12 -10 9 -15z m151 -20 c-3 -12 -7 -24 -10 -27 -3 -3 -3 5 -1 19 6 30 5 29
10 29 3 0 3 -10 1 -21z m-29 -21 c3 -4 -1 -5 -10 -4 -8 1 -18 5 -22 8 -3 4 1
5 10 4 8 -1 18 -5 22 -8z m10485 -208 c6 0 7 5 4 10 -3 6 0 10 8 10 8 0 26 9
40 20 15 12 40 20 65 20 34 0 46 -7 88 -49 27 -27 67 -64 89 -81 l40 -32 -42
4 c-24 2 -43 0 -43 -4 0 -5 -22 -8 -50 -8 -53 0 -61 -10 -36 -42 8 -11 28 -19
52 -19 30 -2 33 -3 12 -6 -16 -2 -28 -9 -28 -14 0 -18 29 -21 52 -5 12 9 34
16 49 16 26 0 41 18 35 43 -1 6 -1 9 1 5 3 -5 11 -8 20 -8 8 0 36 -17 61 -37
63 -51 72 -60 72 -72 0 -6 4 -11 9 -11 5 0 17 -7 25 -16 14 -14 16 -109 16
-895 l0 -879 -346 0 -347 0 6 143 c4 78 9 255 12 392 6 259 32 1228 39 1442 2
67 7 126 10 132 4 6 21 -3 42 -24 19 -19 39 -35 45 -35z m-725 -196 c60 -72
125 -151 144 -174 19 -24 56 -69 82 -99 26 -31 48 -61 48 -67 0 -6 -62 -83
-137 -170 -168 -195 -225 -261 -251 -294 -21 -25 -21 -25 -40 -5 -45 47 -392
457 -392 463 0 4 68 81 151 172 83 91 181 197 217 237 36 40 67 71 68 70 0 -1
50 -61 110 -133z m1493 -143 c-6 -1 -17 5 -24 15 -23 31 -17 38 10 13 13 -13
20 -26 14 -28z m80 -80 c-6 -1 -17 5 -24 15 -23 31 -17 38 10 13 13 -13 20
-26 14 -28z m-123 -39 c-11 -32 96 -152 135 -152 11 0 22 7 25 15 4 8 14 15
24 15 9 0 25 9 35 20 10 11 27 20 38 20 14 0 18 -5 14 -20 -4 -16 0 -20 21
-20 20 0 30 -7 40 -29 7 -17 26 -36 43 -43 20 -9 29 -20 29 -35 0 -13 6 -23
14 -23 8 0 18 -9 21 -20 3 -11 9 -20 13 -20 11 0 72 -57 72 -67 0 -5 16 -25
35 -44 77 -76 85 -85 85 -102 0 -13 9 -17 40 -17 32 0 40 4 40 19 0 15 10 19
53 24 56 5 87 -5 87 -28 0 -13 19 -20 43 -16 5 1 6 -3 2 -9 -3 -6 -10 -8 -15
-5 -4 3 -10 1 -12 -4 -1 -5 -21 -11 -43 -14 -22 -3 -47 -8 -55 -11 -8 -3 -28
-7 -45 -10 -16 -3 -55 -10 -85 -16 -30 -5 -82 -16 -115 -24 -67 -16 -200 -43
-412 -84 l-143 -28 0 366 c0 202 3 370 7 373 11 12 15 8 9 -11z m-14766 -1 c0
-5 -7 -11 -14 -14 -10 -4 -13 -1 -9 9 6 15 23 19 23 5z m-350 -161 c0 -5 -5
-10 -11 -10 -5 0 -7 5 -4 10 3 6 8 10 11 10 2 0 4 -4 4 -10z m15860 -10 c0 -5
-4 -10 -10 -10 -5 0 -10 5 -10 10 0 6 5 10 10 10 6 0 10 -4 10 -10z m-15890
-118 c0 -14 -39 -46 -47 -39 -3 4 2 16 12 27 19 21 35 26 35 12z m15870 -2 c0
-5 -2 -10 -4 -10 -3 0 -8 5 -11 10 -3 6 -1 10 4 10 6 0 11 -4 11 -10z m107
-36 c-3 -3 -12 -4 -19 -1 -8 3 -5 6 6 6 11 1 17 -2 13 -5z m-1967 -206 c0
-106 -3 -271 -7 -367 l-6 -174 -26 29 c-14 17 -54 61 -87 99 -34 39 -93 107
-133 153 l-71 84 20 25 c10 14 50 59 88 101 38 43 84 95 103 116 19 22 49 56
66 75 18 20 33 39 33 44 0 4 5 7 10 7 6 0 10 -71 10 -192z m2060 162 c0 -5 -2
-10 -4 -10 -3 0 -8 5 -11 10 -3 6 -1 10 4 10 6 0 11 -4 11 -10z m50 -49 c7
-13 7 -22 0 -26 -5 -3 -10 3 -10 14 0 10 -6 22 -12 24 -10 4 -10 6 -1 6 7 1
17 -8 23 -18z m30 -25 c0 -2 -8 -10 -17 -17 -16 -13 -17 -12 -4 4 13 16 21 21
21 13z m-15 -55 c-8 -14 -25 -14 -25 0 0 5 5 7 10 4 6 -3 10 -1 10 6 0 7 3 10
6 6 3 -3 3 -10 -1 -16z m-16671 -23 c-35 -9 -40 -5 -18 16 13 14 19 14 31 4
13 -11 11 -13 -13 -20z m176 2 c-8 -5 -22 -9 -30 -9 -10 0 -8 3 5 9 27 12 43
12 25 0z m-133 -16 c-3 -3 -12 -4 -19 -1 -8 3 -5 6 6 6 11 1 17 -2 13 -5z m90
-20 c-3 -3 -12 -4 -19 -1 -8 3 -5 6 6 6 11 1 17 -2 13 -5z m13910 -299 c0 -8
-4 -12 -9 -9 -5 3 -6 10 -3 15 9 13 12 11 12 -6z m1803 -75 c0 -12 59 -70 71
-70 5 0 9 -5 9 -11 0 -19 54 -98 72 -104 9 -3 19 -12 22 -21 6 -17 -22 -54
-41 -54 -8 0 -18 -11 -23 -25 -5 -14 -15 -25 -21 -25 -8 0 -7 5 2 17 13 15 12
15 -9 4 -17 -9 -21 -16 -13 -25 8 -10 -20 -45 -119 -147 l-130 -134 0 289 c0
244 2 287 13 272 12 -16 17 -17 38 -6 31 17 50 36 42 44 -4 3 15 6 40 6 26 0
47 -4 47 -10z m-15556 -216 c4 -10 -2 -14 -19 -14 -17 0 -25 6 -25 18 -1 16
-1 16 -14 0 -7 -10 -21 -18 -31 -18 -16 0 -14 5 9 29 27 28 30 29 51 15 13 -8
26 -22 29 -30z m-144 -85 c0 -5 -7 -9 -15 -9 -15 0 -20 12 -9 23 8 8 24 -1 24
-14z m16133 4 c-3 -7 -8 -13 -12 -13 -4 0 -8 6 -8 13 0 8 6 14 13 14 7 0 10
-6 7 -14z m-33 -35 c0 -4 -7 -8 -15 -8 -8 0 -15 4 -15 8 0 5 7 9 15 9 8 0 15
-4 15 -9z m-16160 -23 c0 -8 -4 -15 -9 -15 -13 0 -22 16 -14 24 11 11 23 6 23
-9z m16160 0 c0 -1 -9 -10 -19 -19 -19 -17 -19 -17 -16 1 2 10 4 18 4 19 2 2
31 1 31 -1z m-50 -20 c0 -8 -4 -15 -8 -15 -5 0 -9 7 -9 15 0 8 4 15 9 15 4 0
8 -7 8 -15z m-33 -8 c-3 -8 8 -28 24 -45 17 -18 27 -37 24 -42 -3 -6 3 -10 14
-10 11 0 27 -8 37 -17 13 -13 19 -14 22 -5 5 16 32 16 32 -1 0 -7 -5 -18 -11
-24 -11 -11 -5 -33 10 -33 14 0 11 68 -4 83 -11 12 -12 18 -3 23 6 4 14 2 16
-4 8 -24 31 -12 29 16 -1 18 3 27 13 27 10 0 14 -9 13 -27 -1 -22 3 -28 17
-28 12 0 22 -9 26 -24 3 -14 12 -27 20 -30 23 -9 16 -26 -11 -26 -14 0 -25 -4
-25 -10 0 -5 -18 -10 -40 -10 -30 0 -40 -4 -40 -16 0 -11 6 -14 18 -11 100 33
104 33 205 0 11 -3 17 0 17 11 0 9 6 16 14 16 8 0 16 4 18 8 2 5 18 12 35 15
26 5 37 2 53 -15 11 -12 20 -26 20 -30 0 -8 9 -21 38 -53 12 -13 -41 -15 -430
-15 l-443 0 84 84 c47 47 89 82 94 79 6 -3 7 -1 4 4 -8 13 18 37 31 29 6 -3 9
2 8 12 0 9 5 16 12 15 6 -2 11 3 10 10 -2 6 4 11 12 9 8 -2 12 0 7 4 -4 4 0
16 10 26 19 21 27 23 20 5z m123 -97 c0 -5 -4 -10 -10 -10 -5 0 -10 5 -10 10
0 6 5 10 10 10 6 0 10 -4 10 -10z m-16476 -8 c3 -5 -1 -9 -9 -9 -8 0 -12 4 -9
9 3 4 7 8 9 8 2 0 6 -4 9 -8z m26 -36 c0 -2 -7 -9 -15 -16 -13 -11 -14 -10 -9
4 5 14 24 23 24 12z m14915 -405 c3 -5 1 -12 -5 -16 -5 -3 -10 1 -10 9 0 18 6
21 15 7z m-105 -31 c0 -5 -4 -10 -10 -10 -5 0 -10 5 -10 10 0 6 5 10 10 10 6
0 10 -4 10 -10z m2326 -23 c3 -23 23 -47 39 -47 7 0 15 -10 19 -22 3 -13 6
-261 6 -553 l0 -530 -421 420 c-231 231 -493 495 -581 588 l-160 167 547 -2
c519 -3 548 -4 551 -21z m49 -36 c-6 -5 -25 10 -25 20 0 5 6 4 14 -3 8 -7 12
-15 11 -17z m-3055 -185 c0 -6 5 -5 12 2 7 7 17 12 22 12 6 0 0 -7 -13 -16
-20 -14 -25 -15 -37 -2 -13 13 -13 15 1 15 8 0 15 -5 15 -11z m3535 -56 c3 -5
1 -10 -4 -10 -6 0 -11 5 -11 10 0 6 2 10 4 10 3 0 8 -4 11 -10z m-121 -90 c8
0 16 -8 20 -17 6 -20 27 -55 37 -63 4 -3 8 -14 10 -25 6 -30 43 -31 63 -1 9
15 24 26 34 26 10 0 23 5 29 11 6 6 21 8 33 4 12 -4 19 -9 16 -12 -3 -3 10
-34 29 -69 19 -36 35 -71 35 -79 0 -8 4 -15 8 -15 5 0 23 -30 41 -67 l33 -66
-115 -113 c-63 -63 -118 -110 -122 -106 -5 4 -5 2 -2 -4 3 -6 -34 -51 -84
-100 l-89 -89 1 420 c1 231 4 408 6 393 2 -16 10 -28 17 -28z m436 -150 c0 -5
-5 -10 -11 -10 -5 0 -7 5 -4 10 3 6 8 10 11 10 2 0 4 -4 4 -10z m130 -43 c0
-2 -12 -14 -27 -28 l-28 -24 24 28 c23 25 31 32 31 24z m-190 -51 c0 -3 -4 -8
-10 -11 -5 -3 -10 -1 -10 4 0 6 5 11 10 11 6 0 10 -2 10 -4z m66 -18 c4 -7 4
-10 0 -6 -11 9 -36 -14 -28 -26 3 -5 0 -6 -7 -2 -9 6 -8 13 5 27 20 22 21 23
30 7z m8 -33 c3 -9 -3 -19 -17 -25 -21 -11 -21 -11 -3 4 11 9 14 16 7 16 -7 0
-9 5 -6 10 8 14 12 13 19 -5z m266 -95 c0 -5 -5 -10 -11 -10 -5 0 -7 5 -4 10
3 6 8 10 11 10 2 0 4 -4 4 -10z m-109 -43 c-6 -8 -7 -18 -3 -22 4 -5 1 -5 -6
-1 -10 6 -10 11 -1 22 6 8 14 14 16 14 3 0 0 -6 -6 -13z m19 -37 c0 -5 -5 -10
-11 -10 -5 0 -7 5 -4 10 3 6 8 10 11 10 2 0 4 -4 4 -10z m1325 -248 c4 -20 10
-47 15 -59 10 -24 39 -30 57 -12 6 6 26 14 45 18 20 4 37 15 43 29 10 22 35
31 35 11 0 -6 6 -17 14 -24 7 -8 16 -37 20 -66 4 -31 14 -58 24 -66 15 -11 12
-12 -20 -13 -31 0 -38 -4 -38 -20 0 -23 28 -27 36 -5 4 8 10 15 16 15 13 0 38
-64 38 -100 0 -24 -4 -30 -22 -31 l-23 -2 23 -4 c55 -11 33 -19 -268 -98 -69
-19 -152 -41 -185 -50 -80 -22 -247 -65 -251 -65 -2 0 -4 112 -4 248 l0 248
135 33 c110 27 145 32 183 25 31 -5 39 -9 25 -12 -17 -2 -23 -10 -23 -28 0
-31 27 -30 44 1 6 11 15 23 20 27 5 3 -7 10 -27 13 -43 8 -49 25 -9 25 15 0
34 4 41 9 24 15 50 -6 56 -47z m-820 -122 c-3 -5 -12 -10 -18 -10 -7 0 -6 4 3
10 19 12 23 12 15 0z"/>
<path d="M43580 28060 c0 -5 12 -10 28 -10 21 0 24 2 12 10 -20 13 -40 13 -40
0z"/>
<path d="M43603 28022 c-24 -4 -32 -22 -10 -22 15 0 43 18 37 22 -3 2 -15 2
-27 0z"/>
<path d="M41570 27700 c-12 -8 -11 -10 8 -10 12 0 22 5 22 10 0 13 -11 13 -30
0z"/>
<path d="M41570 27650 c19 -13 30 -13 30 0 0 6 -10 10 -22 10 -19 0 -20 -2 -8
-10z"/>
<path d="M43790 26334 l0 -34 72 0 c39 0 69 2 67 4 -2 2 -34 18 -71 34 l-68
31 0 -35z"/>
<path d="M43818 26273 c-24 -4 -28 -9 -28 -39 l0 -34 70 35 c39 19 70 37 70
40 0 6 -71 4 -112 -2z"/>
<path d="M43590 24440 c0 -5 5 -10 11 -10 5 0 7 5 4 10 -3 6 -8 10 -11 10 -2
0 -4 -4 -4 -10z"/>
<path d="M41277 23123 c-2 -5 0 -21 4 -38 7 -29 7 -29 8 8 1 35 -3 46 -12 30z"/>
<path d="M41270 22972 c0 -12 -4 -22 -9 -22 -5 0 -8 -7 -7 -15 4 -30 14 -25
20 11 4 20 5 39 2 42 -3 3 -6 -4 -6 -16z"/>
<path d="M43582 21838 c3 -7 15 -14 29 -16 23 -2 23 -2 5 13 -24 18 -39 20
-34 3z"/>
<path d="M43587 21793 c-10 -9 -9 -23 1 -23 5 0 17 7 28 15 19 14 19 14 -2 15
-11 0 -24 -3 -27 -7z"/>
<path d="M43884 19232 c3 -18 9 -46 12 -62 7 -35 -12 -34 174 -6 l75 11 -119
38 c-65 21 -125 41 -133 44 -12 5 -14 0 -9 -25z"/>
<path d="M44013 19132 l-103 -15 0 -48 c0 -84 1 -84 113 -7 56 39 106 75 112
79 11 11 8 11 -122 -9z"/>
<path d="M41386 19212 c-3 -5 -1 -22 4 -38 7 -23 8 -25 9 -7 1 12 4 28 7 37 6
16 -11 23 -20 8z"/>
<path d="M41376 19083 c-4 -9 -2 -21 4 -27 7 -7 10 -2 10 17 0 31 -5 34 -14
10z"/>
<path d="M13765 14880 c-318 -48 -607 -268 -765 -580 -91 -181 -125 -352 -117
-589 5 -166 28 -280 80 -410 96 -239 299 -460 522 -571 154 -76 237 -94 430
-94 192 1 268 18 420 93 280 139 494 409 575 727 43 167 45 417 5 590 -84 365
-359 680 -692 795 -126 43 -320 60 -458 39z"/>
<path d="M13404 11125 c-34 -7 -83 -24 -110 -38 -324 -164 -458 -578 -294
-912 152 -312 484 -438 780 -298 59 28 93 54 160 122 141 143 194 272 195 476
0 140 -12 199 -65 310 -126 264 -393 400 -666 340z"/>
<path d="M25654 11125 c-164 -36 -319 -166 -404 -340 -211 -430 82 -963 531
-965 158 0 285 54 405 174 142 143 198 278 199 481 0 140 -12 199 -65 310
-126 264 -393 400 -666 340z"/>
<path d="M28650 11134 c-243 -47 -444 -256 -496 -514 -33 -165 -1 -357 81
-495 74 -124 206 -233 333 -277 96 -33 258 -33 354 0 188 65 350 246 405 452
13 47 18 100 17 190 -1 107 -5 137 -27 205 -36 107 -74 171 -153 254 -119 126
-233 181 -394 186 -52 2 -106 1 -120 -1z"/>
<path d="M58283 4753 c-10 -4 -9 -12 3 -34 14 -28 34 -32 34 -6 0 7 -4 6 -11
-3 -8 -12 -9 -9 -5 12 6 28 -1 38 -21 31z"/>
<path d="M58310 4670 c0 -6 6 -10 13 -10 8 0 22 -9 32 -20 10 -11 20 -18 22
-16 6 6 -30 41 -50 49 -9 3 -17 2 -17 -3z"/>
<path d="M58392 4625 c0 -16 2 -22 5 -12 2 9 2 23 0 30 -3 6 -5 -1 -5 -18z"/>
<path d="M58334 4625 c8 -8 18 -15 22 -15 3 0 1 7 -6 15 -7 8 -17 15 -22 15
-5 0 -3 -7 6 -15z"/>
<path d="M58480 4560 c0 -5 4 -10 9 -10 6 0 13 5 16 10 3 6 -1 10 -9 10 -9 0
-16 -4 -16 -10z"/>
<path d="M58444 4503 c2 -9 11 -17 20 -19 17 -2 17 -2 0 17 -21 23 -23 23 -20
2z"/>
<path d="M58575 4511 c-3 -5 0 -13 6 -17 7 -4 9 -3 5 4 -3 5 0 13 6 15 9 4 10
6 1 6 -6 1 -14 -3 -18 -8z"/>
<path d="M58486 4429 c3 -5 10 -7 15 -4 5 4 9 1 9 -4 0 -6 5 -11 12 -11 9 0 9
3 0 12 -14 14 -44 20 -36 7z"/>
<path d="M58910 4338 c0 -18 18 -34 28 -24 3 4 -2 14 -11 23 -16 16 -17 16
-17 1z"/>
<path d="M59396 4122 c-2 -4 6 -18 20 -31 24 -23 35 -16 12 7 -10 10 -10 15 2
22 12 8 11 10 -7 10 -12 0 -24 -3 -27 -8z"/>
<path d="M60290 3450 c0 -5 5 -10 10 -10 6 0 10 5 10 10 0 6 -4 10 -10 10 -5
0 -10 -4 -10 -10z"/>
<path d="M60500 3376 c0 -2 7 -7 16 -10 8 -3 12 -2 9 4 -6 10 -25 14 -25 6z"/>
<path d="M60398 3318 c5 -5 16 -8 23 -6 8 3 3 7 -10 11 -17 4 -21 3 -13 -5z"/>
<path d="M60790 3151 c-8 -6 -18 -7 -22 -5 -4 3 -8 0 -8 -6 0 -12 30 -6 60 11
13 7 13 8 0 9 -8 0 -22 -4 -30 -9z"/>
<path d="M60200 2590 c0 -5 4 -10 9 -10 6 0 13 5 16 10 3 6 -1 10 -9 10 -9 0
-16 -4 -16 -10z"/>
<path d="M60322 2575 c0 -16 2 -22 5 -12 2 9 2 23 0 30 -3 6 -5 -1 -5 -18z"/>
<path d="M60231 2540 c-1 -23 15 -45 23 -31 4 6 3 11 -3 11 -5 0 -12 8 -14 18
-3 12 -5 13 -6 2z"/>
<path d="M60380 2533 c-14 -3 -29 -9 -34 -13 -5 -5 1 -6 14 -3 18 5 21 3 15
-8 -5 -8 1 -5 13 5 18 16 29 30 20 25 -2 -1 -14 -4 -28 -6z"/>
<path d="M60546 2292 c-3 -5 1 -9 9 -9 8 0 12 4 9 9 -3 4 -7 8 -9 8 -2 0 -6
-4 -9 -8z"/>
<path d="M61058 2103 c12 -2 32 -2 45 0 12 2 2 4 -23 4 -25 0 -35 -2 -22 -4z"/>
<path d="M61285 1735 c23 -8 83 -10 79 -3 -3 4 -24 8 -47 7 -23 0 -37 -2 -32
-4z"/>
<path d="M61395 1700 c-3 -5 -1 -10 4 -10 6 0 11 5 11 10 0 6 -2 10 -4 10 -3
0 -8 -4 -11 -10z"/>
<path d="M63664 708 c-3 -4 2 -8 10 -8 9 0 16 -4 16 -10 0 -18 16 -11 17 8 1
18 -33 26 -43 10z"/>
<path d="M63680 621 c0 -12 5 -21 10 -21 6 0 10 6 10 14 0 8 -4 18 -10 21 -5
3 -10 -3 -10 -14z"/>
<path d="M63820 560 c0 -22 5 -40 10 -40 6 0 10 18 10 40 0 22 -4 40 -10 40
-5 0 -10 -18 -10 -40z"/>
<path d="M63860 420 c0 -11 5 -20 11 -20 7 0 9 -10 6 -26 -4 -21 -1 -25 17
-22 29 4 36 48 7 48 -14 0 -21 6 -21 20 0 11 -4 20 -10 20 -5 0 -10 -9 -10
-20z"/>
<path d="M49120 32230 l0 -4080 115 0 115 0 0 4080 0 4080 -115 0 -115 0 0
-4080z"/>
<path d="M49700 32230 l0 -4080 135 0 135 0 0 4080 0 4080 -135 0 -135 0 0
-4080z"/>
<path d="M50320 32230 l0 -4080 90 0 90 0 0 4080 0 4080 -90 0 -90 0 0 -4080z"/>
<path d="M50833 32230 l-1 -4080 114 0 114 0 0 4080 0 4080 -113 0 -113 0 -1
-4080z"/>
<path d="M54420 32230 l0 -4080 113 0 112 0 -3 4077 -4 4078 -109 3 -109 3 0
-4081z"/>
<path d="M54980 32230 l0 -4080 90 0 90 0 0 4080 0 4080 -90 0 -90 0 0 -4080z"/>
<path d="M55510 32230 l0 -4080 135 0 135 0 0 4080 0 4080 -135 0 -135 0 0
-4080z"/>
<path d="M56130 32230 l0 -4080 113 0 114 0 -1 4080 0 4080 -113 0 -113 0 0
-4080z"/>
<path d="M51410 36211 c0 -11 1318 -1256 1330 -1256 9 0 1324 1238 1336 1257
3 4 -596 8 -1330 8 -735 0 -1336 -4 -1336 -9z"/>
<path d="M51280 34825 l0 -1259 53 50 c28 28 302 286 607 574 305 287 581 548
614 580 l58 57 -638 603 c-352 332 -651 615 -666 628 l-28 26 0 -1259z"/>
<path d="M53532 35454 l-664 -627 34 -33 c18 -18 317 -301 663 -628 l630 -595
3 631 c1 346 1 911 0 1254 l-3 625 -663 -627z"/>
<path d="M52070 34073 l-664 -628 666 -3 c367 -1 967 -1 1335 0 l669 3 -661
624 c-364 344 -665 626 -671 628 -5 2 -309 -279 -674 -624z"/>
<path d="M51406 33231 c5 -4 305 -288 667 -630 362 -341 662 -621 668 -621 5
0 302 277 661 616 359 339 660 623 668 630 12 12 -193 14 -1330 14 -756 0
-1340 -4 -1334 -9z"/>
<path d="M51280 31855 c0 -949 3 -1254 12 -1249 14 9 1312 1235 1316 1244 1 3
-260 253 -580 555 -320 303 -619 585 -665 629 l-83 78 0 -1257z"/>
<path d="M53535 32483 c-363 -343 -660 -627 -660 -631 0 -4 297 -288 660 -631
l660 -624 3 632 c1 348 1 913 0 1255 l-3 623 -660 -624z"/>
<path d="M52067 31097 l-668 -632 671 -3 c368 -1 972 -1 1341 0 l671 3 -667
630 c-367 347 -670 631 -673 632 -4 1 -308 -282 -675 -630z"/>
<path d="M51460 30207 c424 -404 1274 -1202 1280 -1202 8 0 1340 1254 1340
1262 0 1 -604 3 -1342 3 l-1343 -1 65 -62z"/>
<path d="M51280 28875 l0 -1257 83 78 c46 44 345 326 665 629 320 302 581 552
580 555 -4 9 -1302 1235 -1316 1244 -9 5 -12 -300 -12 -1249z"/>
<path d="M53533 29509 c-363 -343 -660 -627 -660 -631 1 -4 299 -288 662 -631
l660 -624 3 629 c1 346 1 911 0 1255 l-3 626 -662 -624z"/>
<path d="M52069 28123 l-665 -628 668 -3 c367 -1 969 -1 1336 0 l669 3 -659
623 c-362 343 -665 625 -672 628 -7 3 -291 -258 -677 -623z"/>
<path d="M51401 27293 c1 -7 1122 -1069 1273 -1207 l65 -58 34 28 c52 44 1302
1227 1305 1236 2 4 -600 8 -1337 8 -738 0 -1341 -3 -1340 -7z"/>
<path d="M51280 25904 l0 -1258 28 26 c104 96 1292 1220 1296 1227 4 6 -765
742 -1256 1200 l-68 63 0 -1258z"/>
<path d="M53555 26554 c-352 -333 -651 -615 -663 -628 l-24 -23 589 -557 588
-556 9 32 c22 79 98 304 121 358 l25 60 -2 959 -3 959 -640 -604z"/>
<path d="M52100 25179 c-349 -330 -651 -615 -670 -634 l-35 -35 1292 0 1292 0
12 43 11 42 -55 50 c-30 28 -312 293 -626 590 -314 297 -575 541 -579 542 -4
1 -293 -268 -642 -598z"/>
<path d="M51430 24287 c32 -31 471 -446 720 -682 58 -55 215 -203 349 -329
l243 -229 76 75 c43 41 284 270 537 508 637 599 565 524 580 614 l11 76 -1275
0 -1276 0 35 -33z"/>
<path d="M51280 22930 l0 -1262 158 149 c86 83 384 365 662 627 278 262 505
480 505 485 0 4 -56 61 -125 126 -69 65 -172 164 -230 219 -58 56 -175 166
-260 246 -167 156 -480 453 -622 589 l-88 84 0 -1263z"/>
<path d="M53379 23413 c-277 -262 -504 -480 -504 -484 0 -8 1027 -981 1031
-976 1 1 -6 90 -16 197 -44 477 -52 1180 -16 1575 8 88 13 161 12 162 -1 2
-229 -212 -507 -474z"/>
<path d="M52072 22177 l-670 -632 1276 -3 c701 -1 1277 0 1280 2 2 3 1 32 -3
64 l-7 60 -603 571 -604 571 -669 -633z"/>
<path d="M51455 21291 c107 -106 1280 -1211 1285 -1211 11 0 1265 1190 1268
1203 2 7 -2 26 -7 40 l-11 27 -1297 0 -1298 0 60 -59z"/>
<path d="M51280 19955 l0 -1257 143 133 c274 257 1187 1121 1187 1124 0 3
-1184 1124 -1282 1214 l-48 44 0 -1258z"/>
<path d="M53495 20549 c-302 -286 -567 -537 -588 -558 l-38 -38 663 -626 663
-627 3 903 c2 898 2 902 -19 972 -12 39 -45 164 -74 278 -29 114 -54 209 -56
211 -2 2 -251 -230 -554 -515z"/>
<path d="M52295 19414 c-242 -229 -541 -511 -664 -628 l-224 -211 666 -3 c367
-1 967 -1 1334 0 l667 3 -664 628 c-365 345 -666 627 -670 627 -3 0 -203 -187
-445 -416z"/>
<path d="M51415 18351 c11 -10 314 -296 673 -635 l653 -616 102 98 c56 54 188
179 293 278 105 98 357 336 560 528 203 192 373 353 378 358 6 4 -595 8 -1334
8 -1313 0 -1344 0 -1325 -19z"/>
<path d="M51280 16986 l0 -1259 27 24 c72 64 958 899 1216 1147 l89 85 -34 32
c-18 18 -283 268 -588 555 -305 288 -590 557 -632 599 l-78 76 0 -1259z"/>
<path d="M53815 17875 c-619 -584 -705 -665 -811 -768 -56 -54 -110 -104 -120
-112 -13 -9 -16 -17 -9 -23 6 -5 305 -288 665 -628 l655 -618 3 627 c1 345 1
909 0 1254 l-3 626 -380 -358z"/>
<path d="M52729 16853 c-4 -8 -917 -874 -1219 -1155 -57 -54 -101 -100 -99
-103 3 -3 605 -4 1338 -3 l1331 3 -666 630 c-367 347 -670 631 -674 633 -5 2
-10 -1 -11 -5z"/>
<path d="M51400 15396 c0 -2 105 -102 233 -222 127 -120 266 -251 307 -290 41
-40 89 -85 105 -100 39 -35 320 -301 455 -430 58 -55 135 -129 172 -163 l68
-64 83 79 c45 43 314 297 597 564 283 267 548 518 590 557 l75 73 -1342 0
c-739 0 -1343 -2 -1343 -4z"/>
<path d="M51280 14011 c0 -708 4 -1251 9 -1249 5 2 304 282 665 623 l657 620
-73 70 c-40 39 -152 144 -248 235 -184 174 -300 284 -465 441 -135 128 -483
457 -517 488 l-28 25 0 -1253z"/>
<path d="M54039 15112 c-86 -81 -385 -363 -663 -626 l-507 -480 28 -27 c15
-14 197 -185 403 -379 206 -195 425 -401 485 -459 61 -58 179 -171 263 -249
l152 -144 0 1256 c0 691 -1 1256 -2 1255 -2 0 -73 -66 -159 -147z"/>
<path d="M52071 13252 l-663 -627 666 -3 c366 -1 966 -1 1333 0 l667 3 -249
236 c-835 789 -1080 1019 -1085 1019 -3 0 -304 -283 -669 -628z"/>
<path d="M51485 12342 c133 -129 1164 -1104 1212 -1146 l44 -39 32 30 c77 71
791 746 877 828 52 50 163 155 245 232 83 77 156 148 164 157 12 15 -86 16
-1320 16 l-1334 0 80 -78z"/>
<path d="M55388 12413 c7 -3 16 -2 19 1 4 3 -2 6 -13 5 -11 0 -14 -3 -6 -6z"/>
<path d="M55498 12403 c7 -3 16 -2 19 1 4 3 -2 6 -13 5 -11 0 -14 -3 -6 -6z"/>
<path d="M51280 11980 l0 -310 30 0 c17 0 30 -4 30 -10 0 -5 6 -10 13 -10 7 0
13 -18 14 -49 l3 -50 -44 -6 -43 -7 4 -101 c2 -65 8 -104 16 -109 8 -5 7 -8
-5 -8 -15 0 -18 -10 -18 -65 l0 -65 44 0 c39 0 45 -3 52 -27 4 -16 6 -34 5
-41 -1 -8 3 -20 10 -28 8 -10 8 -14 0 -14 -6 0 -11 -13 -11 -30 0 -16 -7 -55
-16 -87 -21 -76 -28 -122 -16 -105 8 11 10 11 15 0 5 -14 -18 -94 -40 -133 -5
-11 -8 -25 -6 -31 2 -7 -5 -27 -16 -45 -20 -33 -21 -49 -21 -453 l0 -419 63
59 c34 32 134 127 222 209 181 170 349 329 615 581 41 39 155 146 253 238 97
93 177 169 177 170 0 1 -96 92 -212 201 -117 110 -416 393 -665 628 l-453 428
0 -311z m114 -1007 c-3 -21 -10 -42 -15 -47 -5 -6 -9 -19 -9 -30 0 -10 -3 -17
-6 -13 -6 6 26 127 33 127 2 0 1 -17 -3 -37z"/>
<path d="M54022 12118 c-96 -89 -231 -217 -302 -283 -138 -130 -601 -567 -715
-676 -38 -36 -85 -79 -104 -96 l-33 -29 503 -474 c277 -261 554 -522 614 -580
61 -57 134 -127 163 -155 l53 -50 -1 273 c-2 227 -4 272 -16 272 -8 0 -14 5
-14 11 0 5 5 7 10 4 6 -3 10 -1 10 4 0 6 -4 11 -10 11 -18 0 -57 111 -45 130
4 6 18 4 36 -5 29 -15 29 -15 29 14 0 24 -9 36 -44 61 -39 26 -46 36 -52 78
-3 26 -15 70 -26 97 -15 39 -21 85 -25 213 -4 103 -2 162 4 162 5 0 18 -9 28
-20 24 -26 38 -26 30 1 -4 12 -8 31 -10 44 -1 13 -14 38 -29 56 l-27 32 7 211
c3 116 9 215 11 219 3 5 11 6 19 3 8 -3 14 1 14 9 0 11 13 15 50 15 l50 0 0
149 c0 146 0 150 -22 153 -21 3 -21 3 -2 22 16 16 19 37 22 125 7 187 22 187
-176 -1z"/>
<path d="M54420 12141 c0 -66 5 -114 14 -136 14 -32 19 -35 54 -35 l40 0 -50
133 c-28 72 -52 134 -54 136 -2 2 -4 -42 -4 -98z"/>
<path d="M52274 10470 c-258 -244 -512 -484 -564 -534 -52 -51 -141 -135 -197
-189 l-101 -97 1329 0 1330 0 -118 113 c-65 62 -327 311 -583 552 -256 241
-502 474 -546 518 l-82 79 -468 -442z"/>
<path d="M51307 10753 c-4 -3 -7 -13 -7 -22 1 -13 3 -13 11 2 11 19 8 33 -4
20z"/>
<path d="M50788 10465 c-25 -25 -49 -45 -53 -45 -3 0 -13 -6 -20 -14 -12 -11
-5 -14 43 -20 31 -3 108 -6 171 -5 83 0 117 -4 122 -13 5 -7 9 20 9 65 l0 77
-113 0 -114 0 -45 -45z"/>
<path d="M54191 10374 c0 -11 3 -14 6 -6 3 7 2 16 -1 19 -3 4 -6 -2 -5 -13z"/>
<path d="M51040 10334 c0 -8 -4 -13 -9 -10 -9 6 -40 -24 -39 -39 0 -5 -14 -16
-31 -25 -17 -8 -31 -18 -31 -22 0 -5 29 -8 65 -8 l65 0 0 60 c0 33 -4 60 -10
60 -5 0 -10 -7 -10 -16z"/>
<path d="M54420 10245 c0 -11 11 -15 39 -15 25 0 41 5 45 15 4 12 -4 15 -39
15 -33 0 -45 -4 -45 -15z"/>
<path d="M50678 10067 c-21 -6 -38 -14 -38 -19 0 -4 -49 -8 -110 -8 l-110 0 0
-1290 0 -1290 320 0 320 0 0 1310 0 1310 -172 -1 c-95 -1 -190 -6 -210 -12z"/>
<path d="M54420 8770 l0 -1310 180 0 c126 0 180 3 180 11 0 8 4 8 14 0 9 -8
55 -11 137 -9 l124 3 3 1068 2 1067 -49 0 c-37 0 -50 4 -55 17 -6 15 -9 15
-16 3 -13 -21 -18 14 -27 170 l-8 135 -120 7 c-66 4 -136 9 -155 11 -48 4
-150 66 -151 92 0 20 0 20 -9 0 -6 -13 -9 -15 -9 -5 -1 13 -2 13 -11 0 -8 -12
-10 -10 -10 8 0 16 4 21 13 16 8 -5 8 -2 -2 9 -7 9 -17 17 -22 17 -5 0 -9
-582 -9 -1310z m367 -1272 c-3 -7 -5 -2 -5 12 0 14 2 19 5 13 2 -7 2 -19 0
-25z"/>
<path d="M51415 9431 c70 -65 615 -578 680 -640 45 -42 208 -197 364 -345 155
-147 284 -266 286 -265 2 2 48 47 102 100 54 52 177 169 273 259 96 90 220
207 275 260 87 83 653 618 679 642 6 4 -595 8 -1334 8 -1311 0 -1344 0 -1325
-19z"/>
<path d="M51280 8054 l0 -1259 88 85 c160 156 325 313 572 545 325 305 413
389 552 522 l117 112 -617 584 c-339 320 -638 602 -664 626 l-48 44 0 -1259z"/>
<path d="M53944 9072 c-137 -130 -436 -412 -663 -626 l-413 -390 22 -18 c24
-19 380 -356 674 -635 l160 -153 104 0 103 0 58 -55 c32 -30 61 -55 64 -55 4
0 7 25 7 55 l0 55 70 0 70 0 0 1030 c0 567 -1 1030 -2 1030 -2 0 -116 -107
-254 -238z"/>
<path d="M41756 8163 c-3 -10 -82 -283 -176 -608 -182 -625 -247 -849 -256
-877 -5 -17 28 -18 605 -18 l611 0 0 182 0 182 32 26 32 27 33 -26 33 -26 0
-182 0 -183 213 0 212 1 -33 27 c-35 30 -38 38 -19 55 20 20 32 15 91 -35 34
-31 64 -48 80 -48 l26 0 0 115 c0 104 2 115 20 125 11 6 20 20 20 31 0 11 5
17 10 14 6 -4 10 -63 10 -146 l0 -139 294 0 294 0 -64 218 c-35 119 -134 461
-221 759 l-158 543 -400 0 c-310 0 -396 -3 -387 -12 9 -9 12 -69 12 -210 l0
-198 -65 0 -65 0 0 198 c0 141 3 201 12 210 9 9 -77 12 -389 12 -374 0 -402
-1 -407 -17z m914 -732 l0 -209 -35 -26 -35 -27 -30 23 -29 23 0 213 -1 212
65 0 65 0 0 -209z m620 -404 l-5 -62 -3 58 c-2 31 -8 57 -13 57 -6 0 -8 4 -4
10 3 5 11 7 18 4 8 -3 11 -23 7 -67z m-38 -79 c2 -20 0 -34 -4 -32 -4 3 -8 24
-7 47 1 47 6 41 11 -15z m-431 -1 c-10 -9 -11 -8 -5 6 3 10 9 15 12 12 3 -3 0
-11 -7 -18z m166 -121 c4 -4 8 -13 8 -19 1 -7 7 -11 15 -9 12 3 12 1 3 -9 -14
-14 -23 -9 -28 18 -2 10 -4 20 -4 22 -1 6 -31 -21 -31 -28 0 -11 57 -41 64
-34 3 3 6 1 6 -6 0 -6 -8 -11 -17 -9 -23 4 -63 38 -63 54 0 8 -6 11 -14 8 -8
-3 -17 0 -21 6 -4 7 4 9 25 5 19 -3 29 -2 26 4 -7 11 20 9 31 -3z"/>
<path d="M52685 7883 c-27 -26 -138 -130 -246 -232 -389 -370 -535 -508 -574
-544 l-40 -36 104 -1 104 0 -104 -100 c-57 -55 -108 -100 -112 -100 -5 0 -7
41 -5 90 2 50 0 90 -3 90 -7 0 -399 -369 -399 -376 0 -2 90 -4 200 -4 l200 0
0 75 0 75 370 0 370 0 0 -75 0 -75 95 0 95 0 0 75 0 75 483 0 482 0 -90 88
c-49 48 -147 142 -217 210 -71 67 -128 125 -128 127 0 2 41 4 91 4 50 0 93 2
95 4 3 2 -58 62 -134 133 -76 71 -237 222 -357 337 -120 114 -221 207 -224
207 -3 0 -28 -21 -56 -47z"/>
<path d="M50420 7192 l0 -128 70 4 70 4 2 -141 c1 -78 2 -153 2 -168 l1 -28
-73 4 -73 3 3 -53 3 -54 69 1 68 1 -4 -86 c-5 -100 -26 -153 -89 -225 l-41
-46 -129 0 -129 0 0 -95 0 -95 75 0 75 0 0 -385 0 -385 160 3 160 2 0 -42 0
-43 -42 -2 c-24 -1 -66 -1 -94 1 -40 2 -51 -1 -51 -13 0 -9 6 -16 14 -16 7 0
13 4 13 9 0 5 9 7 20 4 35 -9 15 -14 -66 -17 -44 -1 -69 -1 -56 1 12 3 22 8
22 13 0 8 -35 20 -62 20 -14 0 -18 -9 -18 -40 0 -41 7 -49 27 -29 6 6 39 12
72 13 33 0 61 4 61 9 0 4 18 4 40 1 28 -5 40 -3 40 6 0 8 15 10 53 6 l52 -5
-55 13 -55 14 58 -3 c32 -1 59 -4 61 -6 2 -2 6 -620 9 -1372 3 -753 7 -1370 9
-1372 2 -2 51 3 108 10 58 8 111 15 118 15 7 0 10 5 7 11 -5 7 7 8 39 4 25 -4
57 -4 71 -1 l25 6 0 2400 0 2400 -320 0 -320 0 0 -128z m259 -1836 c-12 -10
-59 -15 -59 -6 0 5 14 10 32 10 17 0 29 -2 27 -4z m-176 -23 c-7 -2 -21 -2
-30 0 -10 3 -4 5 12 5 17 0 24 -2 18 -5z m172 -3 c3 -6 -1 -7 -9 -4 -18 7 -21
14 -7 14 6 0 13 -4 16 -10z"/>
<path d="M54420 7285 l0 -35 175 0 c110 0 175 4 175 10 0 6 26 10 58 10 40 0
53 -3 42 -10 -11 -7 1 -10 40 -10 34 0 50 -4 42 -9 -9 -5 0 -10 29 -15 33 -5
46 -3 62 11 19 18 18 18 -34 24 l-54 6 53 1 c28 1 52 7 52 12 0 6 -6 10 -12
10 -9 0 -8 4 2 10 10 7 -30 10 -128 9 -79 -1 -146 2 -149 5 -4 3 -84 6 -180 6
l-173 0 0 -35z"/>
<path d="M53450 7229 c0 -5 5 -7 10 -4 6 3 10 8 10 11 0 2 -4 4 -10 4 -5 0
-10 -5 -10 -11z"/>
<path d="M54560 6931 c0 -182 -3 -241 -12 -244 -10 -4 -10 -6 -1 -6 9 -1 12
-52 12 -203 0 -391 14 -1287 20 -1286 14 1 51 -15 51 -22 0 -4 17 -11 38 -15
20 -4 42 -10 47 -14 6 -4 30 -13 55 -20 75 -22 134 -42 152 -52 24 -12 68 -12
68 1 0 6 11 10 25 10 14 0 25 6 25 13 0 12 24 28 63 43 9 3 17 10 17 15 0 5 9
9 20 9 20 0 20 7 20 489 0 268 3 508 6 532 l6 44 -44 18 c-104 42 -196 168
-206 282 -4 45 -2 55 11 55 8 0 18 -6 21 -12 3 -7 4 -4 3 7 -2 21 23 31 51 20
14 -5 14 -8 2 -15 -19 -12 4 -40 34 -40 16 0 18 3 7 9 -11 7 -11 9 0 14 12 5
12 6 0 6 -11 1 -11 4 -1 16 9 10 9 15 1 15 -6 0 -11 9 -11 20 0 16 -7 20 -34
20 -19 0 -46 -4 -60 -10 -26 -9 -26 -9 -26 45 l0 55 33 0 c18 0 37 -4 43 -9
14 -13 64 -23 64 -12 0 31 -12 36 -75 33 l-65 -4 0 216 0 216 -180 0 -180 0 0
-239z m173 -1648 c-7 -2 -21 -2 -30 0 -10 3 -4 5 12 5 17 0 24 -2 18 -5z m-98
-53 c-3 -5 -10 -10 -16 -10 -5 0 -9 5 -9 10 0 6 7 10 16 10 8 0 12 -4 9 -10z
m352 -66 c-3 -3 -12 -4 -19 -1 -8 3 -5 6 6 6 11 1 17 -2 13 -5z m-224 -11 c-7
-2 -21 -2 -30 0 -10 3 -4 5 12 5 17 0 24 -2 18 -5z m67 -23 c-19 -13 -30 -13
-30 0 0 6 10 10 23 10 18 0 19 -2 7 -10z"/>
<path d="M49765 7040 c3 -5 8 -10 11 -10 2 0 4 5 4 10 0 6 -5 10 -11 10 -5 0
-7 -4 -4 -10z"/>
<path d="M50434 7016 c1 -11 9 -20 19 -22 9 -1 15 2 11 7 -3 5 -9 7 -14 4 -5
-3 -10 3 -13 12 -3 15 -4 15 -3 -1z"/>
<path d="M54030 6680 c0 -5 9 -8 20 -7 21 1 18 10 -5 13 -8 1 -15 -2 -15 -6z"/>
<path d="M49765 6509 c-4 -6 -4 -13 -1 -16 3 -4 6 -1 6 6 0 7 5 9 12 5 7 -4 8
-3 4 4 -9 15 -13 15 -21 1z"/>
<path d="M51400 6476 c0 -2 91 -89 203 -193 l202 -189 103 -1 c118 -2 119 -3
242 -127 l64 -66 -47 -48 c-26 -26 -47 -50 -47 -53 0 -3 30 -32 66 -64 l66
-58 48 48 c54 53 52 53 120 -11 25 -23 65 -60 90 -82 l45 -40 1 -105 1 -104
83 -79 c45 -43 86 -80 91 -82 7 -3 15 137 12 215 -1 7 4 10 10 6 5 -3 15 0 21
8 6 8 27 27 46 43 19 16 69 61 110 100 42 39 127 118 190 176 132 121 423 394
525 492 l70 68 -487 0 -488 0 0 70 0 70 -95 0 -95 0 0 -70 0 -70 -370 0 -370
0 0 75 0 75 -205 0 c-113 0 -205 -2 -205 -4z"/>
<path d="M49801 6467 c2 -1 13 -9 24 -17 19 -14 19 -14 6 3 -7 9 -18 17 -24
17 -6 0 -8 -1 -6 -3z"/>
<path d="M55062 6440 c0 -16 3 -32 8 -35 4 -3 6 5 3 17 -6 23 -6 23 23 -2 l29
-25 -30 35 c-16 19 -30 36 -31 38 -1 1 -1 -11 -2 -28z"/>
<path d="M55661 6456 c-8 -10 -8 -16 2 -24 10 -9 13 -6 13 13 0 29 0 29 -15
11z"/>
<path d="M49726 6413 c-6 -14 -5 -15 5 -6 7 7 10 15 7 18 -3 3 -9 -2 -12 -12z"/>
<path d="M55626 6406 c4 -10 13 -15 20 -12 7 3 16 1 19 -4 4 -6 -1 -10 -9 -10
-8 0 -17 -4 -20 -8 -2 -4 5 -8 18 -8 16 0 22 6 22 22 0 14 -5 21 -15 19 -9 -1
-22 2 -29 8 -9 7 -11 6 -6 -7z"/>
<path d="M49846 6393 c-6 -14 -5 -15 5 -6 7 7 10 15 7 18 -3 3 -9 -2 -12 -12z"/>
<path d="M55088 6373 c6 -2 18 -2 25 0 6 3 1 5 -13 5 -14 0 -19 -2 -12 -5z"/>
<path d="M55696 6352 c-2 -4 -1 -14 3 -21 6 -10 10 -9 14 3 6 16 -8 32 -17 18z"/>
<path d="M51280 5649 l0 -693 52 49 c28 28 62 61 74 75 l23 25 1 -125 0 -126
-49 -48 -49 -48 -23 48 -24 47 -3 -43 c-2 -25 2 -46 8 -50 9 -6 9 -9 1 -15 -9
-5 -9 -11 1 -23 10 -12 10 -16 1 -19 -8 -3 -13 -22 -13 -44 l0 -40 55 2 c42 2
55 6 51 16 -11 28 5 11 22 -24 14 -28 19 -64 20 -142 1 -57 5 -107 8 -112 3
-5 26 -9 52 -8 39 1 43 2 22 9 -23 8 -23 8 7 7 31 -1 37 -17 18 -47 -8 -13
-95 -13 -95 0 0 6 20 10 44 10 25 0 47 3 49 8 3 4 -19 5 -49 4 -45 -3 -54 -7
-52 -20 3 -14 17 -17 76 -17 l73 0 32 -60 c18 -33 35 -60 39 -60 4 0 41 33 82
74 l76 73 1 452 0 451 37 30 c20 17 33 24 28 18 -5 -9 -2 -11 8 -7 9 3 13 10
10 15 -3 5 -1 9 4 9 6 0 13 -7 16 -16 3 -8 2 -12 -4 -9 -6 3 -10 1 -10 -5 0
-11 266 -14 283 -3 12 8 -104 108 -125 108 -10 0 -17 5 -15 10 1 6 6 9 10 7 5
-1 6 2 2 8 -3 5 -12 10 -19 10 -27 0 -9 42 37 89 l47 48 -69 61 -69 62 -20
-24 c-10 -14 -33 -37 -51 -52 l-32 -27 -35 34 -34 33 -1 105 0 106 -151 140
c-83 77 -202 189 -264 249 l-114 108 0 -693z m736 -272 c-2 -7 -5 -4 -5 6 -1
9 -5 17 -11 17 -5 0 -9 -3 -9 -7 3 -21 -2 -33 -12 -27 -8 4 -7 9 2 15 8 5 10
9 5 9 -5 0 -3 7 5 16 11 14 13 14 21 -1 5 -9 7 -21 4 -28z m34 -21 c0 -2 3
-11 6 -20 9 -23 -9 -20 -24 4 -10 17 -10 20 3 20 8 0 15 -2 15 -4z m-114 -28
c4 -7 4 -10 -1 -6 -4 4 -15 2 -24 -5 -14 -11 -14 -10 -2 6 16 20 18 21 27 5z
m92 -3 c3 -3 -4 -5 -16 -5 -11 0 -23 4 -27 9 -6 10 33 6 43 -4z m104 -19 c10
-19 8 -19 -17 4 -21 19 -27 21 -22 8 4 -10 2 -18 -3 -18 -11 0 -14 23 -4 33
10 10 34 -4 46 -27z m42 -24 c3 -5 -1 -9 -9 -9 -8 0 -15 4 -15 9 0 4 4 8 9 8
6 0 12 -4 15 -8z m-694 -912 c0 -5 -6 -10 -14 -10 -8 0 -18 5 -21 10 -3 6 3
10 14 10 12 0 21 -4 21 -10z"/>
<path d="M41380 6204 c0 -16 94 -154 100 -147 13 15 97 128 104 141 6 9 -17
12 -98 12 -58 0 -106 -3 -106 -6z"/>
<path d="M41740 6184 c-1 -16 -3 -99 -6 -184 -15 -513 -85 -3642 -81 -3646 6
-6 30 -7 160 -5 l87 1 0 884 c0 634 3 885 11 888 6 2 11 22 11 43 l1 40 12
-30 c11 -25 13 -27 18 -10 2 11 5 -82 6 -208 1 -240 5 -256 44 -194 10 16 22
25 29 21 6 -4 8 -3 5 3 -3 5 106 121 244 259 193 193 249 254 249 274 0 20
-62 87 -280 305 -154 154 -280 286 -280 292 0 9 15 13 43 13 42 0 44 -1 282
-240 131 -132 240 -240 242 -240 2 0 3 110 3 245 l0 245 65 0 65 0 0 -252 0
-251 243 246 c241 246 242 247 285 247 l42 0 0 65 0 65 -42 0 c-42 1 -47 5
-283 235 l-240 234 -3 -234 -2 -235 -65 0 -65 0 0 237 0 237 32 33 32 33 -24
25 c-12 13 -26 22 -31 20 -4 -3 -10 3 -13 13 -4 10 -57 69 -119 130 -139 137
-114 114 -232 227 -77 74 -99 101 -97 118 10 58 21 51 171 -96 80 -80 175
-172 211 -205 l65 -61 3 207 c1 114 0 212 -2 219 -4 10 -56 13 -227 13 -186 0
-220 -2 -216 -14 7 -18 -28 -52 -38 -36 -3 5 -11 7 -17 4 -7 -4 -8 -2 -4 5 4
6 12 9 17 6 5 -4 9 -1 9 5 0 7 7 9 16 6 8 -3 13 -2 10 3 -3 5 -23 9 -43 9 -21
0 -98 4 -170 7 l-133 7 0 -28z"/>
<path d="M42670 5989 l0 -223 -32 -33 -31 -32 24 -20 c13 -11 27 -20 32 -21 4
0 7 -4 7 -10 0 -9 351 -358 508 -504 l62 -59 0 559 0 559 -285 4 -285 3 0
-223z"/>
<path d="M43306 6202 c-2 -4 -2 -569 1 -1254 l6 -1247 109 1 109 1 -6 151 c-5
141 -28 1101 -40 1691 -3 143 -8 351 -11 463 l-6 202 -79 0 c-43 0 -80 -3 -83
-8z"/>
<path d="M43627 6197 c4 -8 30 -44 58 -80 l49 -67 48 72 c26 40 47 76 48 81 0
4 -47 7 -105 7 -86 0 -104 -3 -98 -13z"/>
<path d="M42105 6159 c-4 -6 -5 -12 -2 -15 2 -3 7 2 10 11 7 17 1 20 -8 4z"/>
<path d="M42125 6131 c-3 -5 -1 -12 5 -16 6 -4 7 -12 4 -18 -4 -7 -4 -9 1 -5
4 4 15 2 24 -4 9 -7 6 -1 -7 13 -12 14 -19 29 -15 32 3 4 4 7 0 7 -3 0 -8 -4
-12 -9z"/>
<path d="M41338 5981 c-2 -61 -2 -111 -2 -111 1 0 20 24 42 53 l40 54 -30 49
c-17 27 -34 53 -38 58 -5 5 -10 -41 -12 -103z"/>
<path d="M41564 6029 l-41 -54 37 -59 38 -59 7 95 c10 137 8 142 -41 77z"/>
<path d="M43600 5972 c0 -62 3 -112 8 -112 7 1 72 103 72 115 0 6 -46 69 -72
100 -4 5 -8 -41 -8 -103z"/>
<path d="M43822 6029 l-33 -50 38 -52 38 -52 3 50 c1 28 -1 73 -5 102 l-8 52
-33 -50z"/>
<path d="M53996 5945 c-27 -25 -139 -131 -249 -237 -110 -106 -222 -214 -248
-240 -27 -25 -49 -50 -49 -54 0 -4 5 -3 12 4 18 18 33 15 17 -4 -7 -8 -21 -13
-31 -11 -20 6 -34 -8 -18 -18 5 -3 10 -15 10 -26 0 -11 -4 -18 -10 -14 -5 3
-7 12 -3 20 12 32 -25 13 -72 -37 -28 -29 -40 -44 -29 -35 17 14 23 15 26 5 4
-10 13 -11 45 -2 22 6 48 7 59 3 15 -6 13 -8 -11 -9 -20 -2 -23 -4 -10 -6 11
-2 43 -9 71 -15 38 -9 56 -8 72 0 15 8 22 8 22 1 0 -5 11 -10 24 -10 13 0 26
-5 28 -10 2 -6 40 -17 85 -25 73 -12 89 -12 133 1 27 8 50 20 50 27 0 12 24
28 63 43 9 3 17 10 17 15 0 5 6 6 13 4 36 -13 37 3 35 343 l-3 331 -49 -44z
m-430 -525 c19 0 34 -5 34 -11 0 -6 -22 -9 -54 -8 -42 2 -53 6 -49 16 3 8 12
12 20 9 8 -3 30 -6 49 -6z m-141 -98 c-6 -7 -35 18 -35 31 0 5 9 2 20 -8 11
-10 18 -20 15 -23z m-25 -2 c0 -5 -12 -10 -27 -9 -25 0 -26 1 -8 9 27 12 35
12 35 0z m183 -17 c-13 -2 -33 -2 -45 0 -13 2 -3 4 22 4 25 0 35 -2 23 -4z
m-36 -19 c-3 -3 -12 -4 -19 -1 -8 3 -5 6 6 6 11 1 17 -2 13 -5z"/>
<path d="M41405 5818 c-33 -45 -64 -87 -68 -95 -6 -9 10 -38 49 -89 l58 -76
23 29 c13 15 43 53 68 84 l45 57 -51 78 c-28 44 -54 82 -58 86 -3 4 -33 -29
-66 -74z"/>
<path d="M43681 5809 c-33 -52 -49 -85 -43 -92 5 -7 35 -45 66 -84 l58 -73 60
76 59 75 -66 90 c-37 49 -71 89 -75 89 -4 0 -31 -36 -59 -81z"/>
<path d="M41547 5550 l-47 -60 42 -55 43 -55 7 108 c4 59 7 110 5 114 -1 4
-23 -19 -50 -52z"/>
<path d="M43611 5538 c0 -40 3 -91 7 -112 l7 -39 38 46 c20 25 37 51 37 57 0
6 -20 36 -45 67 l-45 55 1 -74z"/>
<path d="M41320 5525 c0 -27 -3 -68 -6 -90 l-6 -40 41 45 c22 25 40 47 41 50
0 3 -16 23 -35 45 l-34 40 -1 -50z"/>
<path d="M43852 5532 l-34 -42 34 -42 33 -42 3 42 c2 23 2 61 0 84 l-3 42 -33
-42z"/>
<path d="M41376 5335 c-45 -56 -64 -89 -59 -98 4 -7 35 -48 68 -91 l59 -79 34
39 c19 22 52 60 73 86 l39 46 -61 79 c-34 43 -67 84 -73 91 -10 10 -26 -5 -80
-73z"/>
<path d="M43691 5329 l-71 -91 39 -47 c22 -25 54 -63 73 -84 l33 -37 67 89 68
89 -66 84 c-37 46 -68 84 -69 86 -1 1 -34 -39 -74 -89z"/>
<path d="M52560 5080 l0 -44 22 22 22 22 -22 22 -22 22 0 -44z"/>
<path d="M41297 5034 c-4 -42 -7 -92 -7 -111 l0 -35 49 58 49 58 -36 45 c-20
25 -39 50 -42 54 -4 4 -10 -27 -13 -69z"/>
<path d="M43863 5057 l-41 -53 47 -56 48 -56 -4 102 c-3 55 -5 104 -6 109 -1
4 -21 -17 -44 -46z"/>
<path d="M43627 5003 c3 -54 6 -99 7 -99 1 -1 18 20 38 46 l37 47 -44 52 -45
52 7 -98z"/>
<path d="M41537 5044 l-39 -44 39 -52 38 -53 3 53 c2 29 2 72 0 96 l-3 44 -38
-44z"/>
<path d="M49698 5073 c12 -2 32 -2 45 0 12 2 2 4 -23 4 -25 0 -35 -2 -22 -4z"/>
<path d="M52642 4864 c-66 -61 -82 -81 -82 -104 0 -27 3 -29 43 -33 l42 -4
-42 -1 -42 -2 -1 -225 0 -225 79 0 c54 0 81 -4 84 -12 2 -7 8 48 12 122 7 141
4 560 -5 560 -3 0 -42 -34 -88 -76z m43 -144 c-10 -11 -23 -20 -29 -20 -6 0
-4 5 4 10 8 5 11 10 5 10 -12 0 16 20 29 20 5 0 1 -9 -9 -20z"/>
<path d="M41361 4840 c-41 -48 -77 -92 -79 -98 -5 -15 149 -206 158 -195 108
119 140 160 140 181 0 20 -115 183 -138 195 -4 2 -41 -35 -81 -83z"/>
<path d="M43698 4841 c-43 -56 -68 -99 -68 -115 0 -18 22 -49 69 -102 38 -41
73 -75 78 -74 14 3 143 172 143 188 0 14 -33 55 -121 155 l-34 37 -67 -89z"/>
<path d="M49590 4901 c-7 -13 -7 -22 0 -26 5 -3 10 3 10 14 0 10 6 22 13 24 9
4 9 6 0 6 -7 1 -17 -8 -23 -18z"/>
<path d="M42954 4624 c-153 -157 -280 -292 -282 -300 -2 -7 125 -143 282 -301
l285 -288 1 588 c0 323 -2 587 -4 587 -2 0 -129 -129 -282 -286z"/>
<path d="M49658 4893 c7 -3 16 -2 19 1 4 3 -2 6 -13 5 -11 0 -14 -3 -6 -6z"/>
<path d="M56365 4780 c-3 -5 -1 -10 4 -10 6 0 11 5 11 10 0 6 -2 10 -4 10 -3
0 -8 -4 -11 -10z"/>
<path d="M56400 4709 c0 -8 -17 -10 -50 -7 -76 8 -82 -12 -14 -45 61 -30 99
-34 108 -12 3 8 12 15 21 15 8 0 15 6 15 13 0 8 8 13 18 13 26 -1 26 18 0 26
-39 10 -98 9 -98 -3z m-30 -39 c8 -5 11 -10 5 -10 -5 0 -17 5 -25 10 -8 5 -10
10 -5 10 6 0 17 -5 25 -10z m63 3 c-7 -2 -19 -2 -25 0 -7 3 -2 5 12 5 14 0 19
-2 13 -5z"/>
<path d="M47192 4685 c-7 -8 -9 -15 -4 -15 5 0 15 7 22 15 16 19 -1 19 -18 0z"/>
<path d="M46850 4640 c-13 -8 -13 -10 2 -10 9 0 18 -6 21 -12 3 -7 4 -3 4 10
-1 24 -5 26 -27 12z"/>
<path d="M47098 4633 c7 -3 16 -2 19 1 4 3 -2 6 -13 5 -11 0 -14 -3 -6 -6z"/>
<path d="M46823 4620 c2 -8 12 -16 23 -17 13 -2 15 -1 4 4 -8 3 -19 11 -23 17
-6 7 -7 6 -4 -4z"/>
<path d="M56450 4615 c0 -3 9 -14 19 -24 15 -15 26 -18 48 -11 l28 8 -28 1
c-15 1 -30 8 -33 16 -6 14 -34 22 -34 10z"/>
<path d="M47033 4603 c-15 -5 -17 -23 -4 -23 5 0 11 7 15 15 3 8 4 15 3 14 -1
0 -8 -3 -14 -6z"/>
<path d="M56653 4586 c18 -14 67 -10 67 5 0 5 -19 9 -42 9 -38 -1 -41 -2 -25
-14z"/>
<path d="M41276 4553 c-3 -21 -6 -72 -6 -113 l0 -74 41 39 c64 63 64 66 15
129 l-43 56 -7 -37z"/>
<path d="M43904 4561 c-11 -14 -31 -41 -44 -58 l-23 -32 51 -55 52 -55 -1 62
c-1 34 -4 85 -7 113 l-7 51 -21 -26z"/>
<path d="M46888 4573 c7 -3 16 -2 19 1 4 3 -2 6 -13 5 -11 0 -14 -3 -6 -6z"/>
<path d="M56570 4570 c-13 -9 -13 -10 0 -9 8 1 26 5 40 9 l25 8 -25 1 c-14 0
-32 -4 -40 -9z"/>
<path d="M41526 4513 l-38 -42 38 -53 39 -53 3 53 c2 29 2 72 0 95 l-3 42 -39
-42z"/>
<path d="M43640 4461 l0 -93 41 52 41 52 -41 42 -41 41 0 -94z"/>
<path d="M51280 4157 l0 -328 115 108 c63 59 115 111 115 115 0 4 -44 89 -99
190 -54 101 -105 197 -114 213 -15 28 -16 8 -17 -298z"/>
<path d="M46580 4460 c0 -5 7 -10 16 -10 8 0 12 5 9 10 -3 6 -10 10 -16 10 -5
0 -9 -4 -9 -10z"/>
<path d="M46675 4420 c3 -5 10 -10 16 -10 5 0 9 5 9 10 0 6 -7 10 -16 10 -8 0
-12 -4 -9 -10z"/>
<path d="M41346 4315 c-52 -57 -76 -91 -72 -101 3 -9 34 -54 68 -101 l62 -86
78 84 c44 48 77 93 78 105 0 18 -116 183 -130 184 -3 0 -41 -38 -84 -85z"/>
<path d="M43710 4314 c-36 -46 -66 -89 -68 -93 -5 -14 160 -193 168 -184 4 4
35 47 69 95 56 78 61 89 49 106 -20 29 -142 162 -148 162 -3 -1 -34 -39 -70
-86z"/>
<path d="M46488 4353 c6 -2 18 -2 25 0 6 3 1 5 -13 5 -14 0 -19 -2 -12 -5z"/>
<path d="M46567 4349 c7 -7 15 -10 18 -7 3 3 -2 9 -12 12 -14 6 -15 5 -6 -5z"/>
<path d="M46380 4276 c0 -2 7 -7 16 -10 8 -3 12 -2 9 4 -6 10 -25 14 -25 6z"/>
<path d="M42286 3950 c-236 -238 -238 -240 -280 -240 l-42 0 4 -57 c2 -32 5
-59 6 -60 0 0 19 -4 41 -7 36 -5 61 -27 278 -247 l237 -241 1 113 c1 63 3 170
5 239 2 68 4 128 4 132 0 4 29 8 65 8 l65 0 0 -249 0 -248 242 244 c228 229
269 273 252 273 -3 0 -1 7 7 16 10 12 10 17 0 23 -9 6 -9 11 3 20 16 14 32 -2
20 -21 -4 -7 -3 -8 5 -4 7 4 10 13 8 19 -2 7 2 17 10 22 10 8 7 10 -12 11 -14
1 -25 -1 -25 -5 0 -4 -115 108 -255 249 l-255 255 0 -248 0 -248 -67 3 -68 3
3 243 c1 133 -1 242 -6 242 -4 0 -115 -108 -246 -240z m713 -283 c97 -1 131
-5 131 -14 0 -7 4 -13 10 -13 5 0 7 7 4 15 -4 8 -1 15 6 15 6 0 8 5 4 11 -4 7
-9 7 -13 2 -6 -10 -25 -10 -186 -3 -87 4 -86 4 50 10 139 6 176 0 155 -25 -6
-7 -6 -15 1 -22 7 -7 4 -14 -7 -24 -12 -9 -15 -10 -10 -1 4 6 2 12 -3 12 -6 0
-11 -9 -11 -21 0 -20 -4 -20 -170 -17 -93 2 -170 6 -170 11 0 4 38 7 85 7 68
0 85 3 85 15 0 11 18 15 78 18 42 2 6 3 -80 3 -122 0 -158 -3 -158 -13 0 -7
-6 -13 -14 -13 -8 0 -16 -5 -18 -11 -2 -7 -10 -10 -16 -8 -9 3 -7 10 7 24 35
34 45 41 64 37 16 -3 18 0 12 20 -7 22 -7 22 12 5 17 -14 42 -18 152 -20z"/>
<path d="M43058 3623 c12 -2 32 -2 45 0 12 2 2 4 -23 4 -25 0 -35 -2 -22 -4z"/>
<path d="M42978 3603 c12 -2 32 -2 45 0 12 2 2 4 -23 4 -25 0 -35 -2 -22 -4z"/>
<path d="M41249 4013 c0 -37 -2 -89 -5 -115 -2 -27 -3 -48 -1 -48 2 0 25 25
51 56 l48 55 -37 55 c-21 30 -42 57 -46 60 -5 3 -9 -25 -10 -63z"/>
<path d="M41506 4012 l-49 -52 38 -55 c21 -31 41 -58 46 -61 13 -8 20 54 17
141 l-3 80 -49 -53z"/>
<path d="M43906 4020 c-20 -28 -36 -54 -36 -58 0 -4 20 -28 45 -52 l45 -44 0
96 c0 53 -4 99 -9 102 -5 3 -25 -16 -45 -44z"/>
<path d="M51767 4042 l-27 -28 31 -57 c17 -31 32 -57 35 -57 2 0 4 38 4 85 0
47 -4 85 -8 85 -5 0 -20 -13 -35 -28z"/>
<path d="M43650 3946 c0 -64 2 -116 4 -116 2 0 25 28 50 61 l45 62 -40 48
c-23 27 -45 51 -50 55 -5 3 -9 -44 -9 -110z"/>
<path d="M41318 3806 c-43 -47 -78 -92 -78 -102 0 -14 143 -204 154 -204 2 0
38 40 80 89 l76 90 -76 105 c-42 58 -77 106 -78 106 0 0 -36 -38 -78 -84z"/>
<path d="M43735 3784 l-77 -105 35 -42 c20 -23 55 -63 79 -90 l43 -47 74 92
c41 51 76 99 78 108 2 8 -31 52 -76 102 l-80 87 -76 -105z"/>
<path d="M51502 3790 l-93 -90 146 0 c80 0 145 2 145 5 0 9 -94 175 -99 175
-3 -1 -48 -41 -99 -90z"/>
<path d="M43310 2974 l0 -614 125 0 125 0 0 33 c0 17 -7 284 -15 592 -8 308
-15 569 -15 580 0 19 -7 20 -110 22 l-110 1 0 -614z"/>
<path d="M41225 3468 c-4 -51 -5 -110 -3 -130 l3 -38 50 61 c28 33 52 64 53
70 3 7 -27 49 -89 122 -4 5 -10 -33 -14 -85z"/>
<path d="M43932 3504 c-23 -30 -45 -59 -47 -66 -3 -7 20 -41 50 -76 l55 -63
-1 48 c-1 26 -4 84 -7 129 l-7 80 -43 -52z"/>
<path d="M41964 3253 c3 -164 6 -426 6 -583 l0 -285 280 280 c165 165 280 287
280 298 0 19 -545 587 -563 587 -6 0 -7 -111 -3 -297z"/>
<path d="M42951 3264 c-155 -158 -281 -291 -281 -297 0 -6 128 -140 285 -297
l285 -285 0 583 c0 320 -2 582 -4 582 -2 0 -130 -129 -285 -286z"/>
<path d="M41498 3483 l-47 -56 42 -54 42 -54 8 93 c11 134 9 136 -45 71z"/>
<path d="M43661 3455 c1 -44 4 -91 8 -104 6 -23 8 -22 44 24 20 27 37 51 37
54 0 3 -20 29 -45 56 l-44 50 0 -80z"/>
<path d="M51525 3384 c66 -64 155 -147 198 -186 l77 -70 2 98 c1 104 1 188 -1
242 l-1 32 -197 0 -198 -1 120 -115z"/>
<path d="M41325 3283 c-38 -43 -77 -88 -87 -99 -19 -21 -18 -22 52 -120 40
-55 73 -100 75 -102 4 -5 175 195 175 206 0 7 -119 163 -144 190 -2 1 -34 -33
-71 -75z"/>
<path d="M43746 3272 c-39 -47 -70 -93 -70 -102 -1 -10 37 -60 83 -113 l84
-95 73 101 73 101 -62 69 c-34 37 -73 81 -87 97 l-25 28 -69 -86z"/>
<path d="M51280 3031 l0 -331 49 0 49 0 0 -58 0 -59 -49 5 c-47 4 -49 4 -49
-22 0 -24 4 -26 39 -26 22 0 42 5 44 13 4 10 6 10 6 0 1 -8 14 -13 31 -13 l30
0 0 -60 c0 -55 2 -60 23 -61 20 0 20 -1 3 -8 -18 -7 -18 -8 -2 -14 24 -9 154
-9 159 1 2 4 1 33 -1 64 l-4 57 -46 4 -47 3 55 2 c40 2 51 5 40 12 -10 7 14
10 78 10 l92 0 2 -57 1 -58 7 65 c4 36 8 136 9 222 1 124 -2 159 -13 165 -7 4
-98 89 -202 189 -104 99 -215 204 -246 233 l-58 54 0 -332z"/>
<path d="M44648 3103 c7 -3 16 -2 19 1 4 3 -2 6 -13 5 -11 0 -14 -3 -6 -6z"/>
<path d="M41200 2941 c0 -48 -3 -110 -7 -137 l-6 -49 56 65 c31 36 57 69 57
73 0 9 -89 137 -96 137 -2 0 -4 -40 -4 -89z"/>
<path d="M43949 2956 l-46 -62 53 -59 54 -60 -1 100 c-1 150 -5 155 -60 81z"/>
<path d="M41471 2950 l-53 -61 36 -52 c20 -29 45 -63 56 -77 l20 -25 0 138 c0
75 -1 137 -3 137 -1 0 -26 -27 -56 -60z"/>
<path d="M43674 2975 c3 -22 6 -83 6 -135 l1 -95 24 30 c14 17 38 48 54 71
l30 41 -60 64 -60 64 5 -40z"/>
<path d="M45305 2950 c11 -5 29 -8 40 -8 16 0 15 2 -5 8 -34 11 -60 11 -35 0z"/>
<path d="M58279 2874 c-10 -13 -10 -17 2 -25 19 -12 29 -11 29 1 0 6 -4 9 -9
8 -5 -2 -8 2 -7 7 0 6 5 9 9 7 5 -1 6 2 2 8 -8 13 -10 13 -26 -6z"/>
<path d="M42671 2598 l-1 -248 128 1 c70 1 175 4 235 8 l107 6 -234 240 -235
240 0 -247z"/>
<path d="M42285 2590 l-240 -240 243 0 242 0 0 240 c0 132 -1 240 -3 240 -1 0
-110 -108 -242 -240z"/>
<path d="M41272 2723 l-82 -95 82 -90 82 -90 78 80 79 80 -76 106 c-42 58 -77
106 -78 106 -1 -1 -39 -44 -85 -97z"/>
<path d="M58219 2803 c-8 -9 -9 -14 -2 -10 6 4 13 1 16 -5 3 -7 4 -3 4 10 -1
26 -1 26 -18 5z"/>
<path d="M43823 2783 c-10 -15 -42 -61 -71 -101 l-54 -73 76 -77 76 -77 84 85
85 85 -80 90 c-44 50 -84 91 -89 93 -5 2 -17 -9 -27 -25z"/>
<path d="M45182 2743 c8 -10 15 -10 32 -1 33 17 32 18 -6 16 -27 -2 -34 -6
-26 -15z"/>
<path d="M58325 2752 c2 -3 0 -14 -6 -25 -8 -14 -8 -18 0 -13 6 4 11 2 11 -4
0 -6 5 -8 12 -4 8 5 9 1 4 -12 -6 -17 -5 -17 15 2 24 24 18 54 -7 33 -8 -6
-18 -8 -22 -4 -4 4 -1 10 6 12 17 6 15 20 -3 20 -8 0 -13 -2 -10 -5z"/>
<path d="M45127 2689 c5 -19 3 -21 -16 -16 -18 4 -20 3 -11 -8 9 -11 16 -12
31 -2 23 14 24 21 5 36 -12 10 -13 8 -9 -10z"/>
<path d="M45044 2611 c0 -11 5 -17 13 -14 10 4 11 9 2 19 -15 18 -15 18 -15
-5z"/>
<path d="M41175 2386 c-4 -64 -6 -119 -3 -121 2 -3 32 24 66 58 l62 63 -59 58
-59 58 -7 -116z"/>
<path d="M43967 2442 l-57 -58 65 -64 65 -65 -6 120 c-4 66 -8 121 -8 122 -1
1 -28 -23 -59 -55z"/>
<path d="M41467 2437 l-45 -53 49 -54 48 -55 1 108 c0 59 -2 107 -4 107 -2 0
-24 -24 -49 -53z"/>
<path d="M43690 2383 l0 -97 50 49 50 49 -47 48 c-26 26 -49 48 -50 48 -2 0
-3 -44 -3 -97z"/>
<path d="M41653 2325 c0 -8 4 -12 9 -9 4 3 8 9 8 15 0 5 -4 9 -8 9 -5 0 -9 -7
-9 -15z"/>
<path d="M41269 2227 l-87 -93 72 -87 71 -88 92 98 c51 54 93 100 93 103 0 3
-35 40 -78 83 l-77 77 -86 -93z"/>
<path d="M50710 2308 c0 -4 14 -8 30 -8 17 0 30 2 30 4 0 2 -13 6 -30 8 -16 3
-30 1 -30 -4z"/>
<path d="M41660 2300 c-11 -8 -7 -9 15 -4 37 8 45 14 19 14 -10 0 -26 -5 -34
-10z"/>
<path d="M43770 2234 l-73 -75 43 -44 c24 -25 48 -41 57 -38 11 4 11 9 1 22
-10 13 -10 14 2 4 10 -9 18 -10 29 -2 9 7 3 -1 -13 -15 l-28 -27 36 -36 c44
-44 81 -56 45 -15 -13 15 -20 24 -15 20 5 -4 15 -3 22 3 8 7 14 6 20 -2 4 -7
3 -9 -4 -5 -6 3 -13 2 -17 -4 -3 -5 1 -10 9 -10 14 0 40 34 41 53 0 14 37 37
47 30 6 -3 5 4 -1 16 -10 17 -9 20 4 15 8 -4 15 -11 15 -17 0 -6 7 -4 16 5 14
14 15 19 3 33 -30 38 -153 165 -159 165 -4 0 -40 -34 -80 -76z m163 -84 c3
-11 1 -18 -4 -14 -5 3 -9 12 -9 20 0 20 7 17 13 -6z m7 -34 c0 -3 -4 -8 -10
-11 -5 -3 -10 -1 -10 4 0 6 5 11 10 11 6 0 10 -2 10 -4z"/>
<path d="M41673 2271 c-19 -16 -20 -20 -7 -25 9 -3 17 1 21 12 4 9 11 20 17
24 7 5 7 8 1 8 -5 -1 -20 -9 -32 -19z"/>
<path d="M41645 2225 c-3 -11 -26 -1029 -25 -1147 l0 -78 140 0 140 0 0 614 0
615 -126 3 c-79 2 -128 -1 -129 -7z"/>
<path d="M42225 2058 c92 -95 199 -204 237 -241 l68 -68 0 240 0 241 -237 0
-236 0 168 -172z"/>
<path d="M42670 1988 l0 -243 240 240 c132 132 240 241 240 242 0 2 -108 3
-240 3 l-240 0 0 -242z"/>
<path d="M43317 2224 c-10 -10 -8 -984 2 -984 5 0 11 8 15 18 8 24 29 56 44
65 6 4 12 14 12 21 0 7 11 23 25 36 14 13 25 31 25 41 0 9 7 19 15 23 8 3 15
18 15 34 0 15 5 33 12 40 14 14 48 16 48 4 0 -5 7 -17 15 -28 13 -17 13 -16 2
14 -12 33 -1 69 20 65 10 -2 17 143 7 159 -4 6 -6 88 -5 182 1 94 -1 203 -4
241 l-7 70 -117 3 c-64 2 -120 0 -124 -4z m155 -546 c-6 -6 -7 0 -4 19 5 21 7
23 10 9 2 -10 0 -22 -6 -28z m85 -20 c-2 -13 -4 -3 -4 22 0 25 2 35 4 23 2
-13 2 -33 0 -45z m-40 -14 c-3 -3 -12 -4 -19 -1 -8 3 -5 6 6 6 11 1 17 -2 13
-5z m-87 -8 c0 -3 -4 -8 -10 -11 -5 -3 -10 -1 -10 4 0 6 5 11 10 11 6 0 10 -2
10 -4z m128 -31 c-3 -3 -9 2 -12 12 -6 14 -5 15 5 6 7 -7 10 -15 7 -18z m-161
-27 c-3 -8 -6 -5 -6 6 -1 11 2 17 5 13 3 -3 4 -12 1 -19z"/>
<path d="M44426 2188 c3 -5 10 -6 15 -3 13 9 11 12 -6 12 -8 0 -12 -4 -9 -9z"/>
<path d="M41970 1615 l0 -580 280 280 c154 154 280 288 280 297 0 10 -126 145
-280 300 l-279 283 -1 -580z"/>
<path d="M42953 1908 c-156 -156 -283 -288 -283 -293 0 -6 97 -107 215 -225
118 -118 215 -208 215 -200 0 13 1 13 10 0 7 -11 10 -7 10 18 0 22 5 32 15 32
8 0 15 6 15 13 0 6 12 26 26 42 15 18 23 23 20 12 -6 -20 20 -35 35 -20 5 5 8
186 7 456 l-3 447 -282 -282z"/>
<path d="M44199 2103 c-8 -10 -9 -14 -2 -10 6 4 14 3 18 -3 3 -5 12 -10 18
-10 7 0 4 6 -5 14 -10 7 -15 16 -11 19 3 4 4 7 1 7 -3 0 -12 -8 -19 -17z"/>
<path d="M48440 1907 c0 -117 4 -207 8 -202 4 6 48 30 97 55 50 25 92 47 95
51 13 14 132 69 150 69 11 0 20 4 20 9 0 20 34 21 52 2 10 -11 18 -23 18 -26
0 -4 14 -20 30 -37 27 -27 35 -29 68 -23 20 4 48 13 62 20 14 7 50 24 80 39
l55 26 12 78 c7 50 11 61 10 31 -2 -39 1 -45 16 -41 9 2 17 0 17 -6 0 -15 28
-23 57 -16 16 5 21 9 13 14 -7 4 10 7 38 7 31 -1 58 5 69 14 33 26 92 52 107
46 9 -3 18 -2 21 2 9 16 -20 30 -70 34 l-50 3 53 2 c28 1 52 7 52 12 0 6 5 10
11 10 8 0 8 -5 -1 -15 -7 -8 -11 -15 -9 -16 36 -7 38 -6 37 23 -1 24 -5 29
-20 25 -10 -3 -18 -2 -18 3 0 4 -100 8 -222 9 -123 1 -366 3 -540 6 l-318 4 0
-212z m853 176 c-7 -2 -19 -2 -25 0 -7 3 -2 5 12 5 14 0 19 -2 13 -5z m88 -2
c-11 -7 -10 -11 5 -20 18 -10 18 -10 -1 -11 -18 0 -21 -6 -19 -37 l3 -38 -7
35 c-10 48 -3 80 17 80 13 0 13 -2 2 -9z m-106 -21 c8 -13 -5 -13 -25 0 -13 8
-13 10 2 10 9 0 20 -4 23 -10z m-128 -87 c-2 -16 -4 -5 -4 22 0 28 2 40 4 28
2 -13 2 -35 0 -50z m20 5 c-2 -13 -4 -3 -4 22 0 25 2 35 4 23 2 -13 2 -33 0
-45z m-47 43 c0 -9 -34 -21 -60 -20 -8 0 -1 6 15 14 37 16 45 18 45 6z m-124
-50 c-3 -5 -16 -11 -28 -14 -22 -6 -22 -5 -4 8 22 17 40 20 32 6z m-56 -31 c0
-5 -12 -10 -27 -9 -25 0 -26 1 -8 9 27 12 35 12 35 0z"/>
<path d="M44325 2100 c-3 -6 1 -7 9 -4 18 7 21 14 7 14 -6 0 -13 -4 -16 -10z"/>
<path d="M43937 2074 c-3 -5 -2 -16 2 -22 6 -10 11 -9 22 4 8 10 9 15 2 11 -6
-4 -13 -2 -15 5 -3 7 -7 8 -11 2z"/>
<path d="M44205 2060 c2 -27 10 -33 12 -10 1 11 -2 22 -6 24 -4 3 -7 -4 -6
-14z"/>
<path d="M44237 2033 c-4 -3 -7 -13 -7 -22 0 -14 2 -14 11 -1 8 11 12 12 16 3
2 -7 11 -13 19 -13 10 0 9 5 -6 20 -22 22 -24 23 -33 13z"/>
<path d="M43911 2007 c-13 -21 -12 -21 5 -5 10 10 16 20 13 22 -3 3 -11 -5
-18 -17z"/>
<path d="M41156 1967 c-3 -29 -6 -86 -5 -127 l0 -75 54 59 c30 33 55 63 55 69
0 5 -22 35 -49 67 l-48 59 -7 -52z"/>
<path d="M41447 1957 c-38 -43 -56 -71 -51 -79 4 -7 29 -39 55 -70 l48 -58 6
43 c3 23 5 84 3 136 l-3 95 -58 -67z"/>
<path d="M44180 2013 c0 -6 14 -22 31 -34 30 -21 30 -21 18 -1 -7 11 -16 19
-20 16 -4 -2 -12 4 -18 13 -6 10 -11 13 -11 6z"/>
<path d="M43700 1973 c0 -28 3 -34 10 -23 6 9 10 10 10 3 0 -6 -4 -14 -9 -17
-4 -3 -8 -42 -8 -86 l1 -81 20 24 c12 12 17 16 11 7 -9 -13 -8 -13 7 -2 10 8
14 20 11 29 -5 12 -3 14 8 8 11 -7 11 -5 -1 10 -9 11 -10 16 -2 11 7 -4 14 -1
18 8 3 8 11 13 18 10 27 -10 9 36 -28 73 -22 21 -35 31 -31 23 5 -9 4 -12 -1
-7 -5 5 -10 13 -10 18 -1 5 -2 14 -3 19 0 6 -5 10 -11 10 -5 0 -10 -17 -10
-37z"/>
<path d="M44020 1980 c-9 -6 -10 -10 -3 -10 6 0 15 5 18 10 8 12 4 12 -15 0z"/>
<path d="M58937 1967 c-3 -8 0 -14 7 -14 7 0 13 6 13 14 0 7 -4 13 -8 13 -4 0
-9 -6 -12 -13z"/>
<path d="M44041 1954 c0 -11 3 -14 6 -6 3 7 2 16 -1 19 -3 4 -6 -2 -5 -13z"/>
<path d="M43999 1932 c-1 -4 -1 -11 0 -16 1 -5 -5 -6 -13 -3 -9 4 -20 -1 -25
-12 -7 -13 -6 -18 4 -18 7 0 11 7 7 15 -3 10 -1 13 6 8 7 -4 21 -1 32 7 18 12
18 15 5 20 -8 4 -16 3 -16 -1z"/>
<path d="M49196 1924 c-8 -22 -6 -23 27 -17 25 5 39 23 18 23 -5 0 -16 3 -24
6 -8 3 -17 -2 -21 -12z"/>
<path d="M57701 1814 c0 -11 3 -14 6 -6 3 7 2 16 -1 19 -3 4 -6 -2 -5 -13z"/>
<path d="M41235 1725 l-87 -95 24 -29 c59 -75 134 -160 139 -160 3 -1 43 42
89 94 l82 95 -77 95 c-43 52 -79 95 -80 95 -1 0 -42 -43 -90 -95z"/>
<path d="M43851 1733 c-7 -8 -20 -12 -28 -9 -9 4 -11 2 -6 -7 11 -18 12 -36 2
-43 -5 -3 -9 2 -9 10 0 18 -8 20 -28 8 -7 -5 -10 -16 -7 -24 5 -11 1 -16 -11
-15 -11 1 -19 -6 -21 -18 -1 -15 -1 -16 3 -2 7 23 11 22 38 -10 16 -18 25 -23
30 -14 5 7 2 10 -6 9 -7 -2 -12 3 -10 10 1 8 -2 11 -9 6 -9 -5 -10 -2 -6 10 4
10 7 25 7 34 0 14 2 15 9 2 6 -8 7 -19 4 -25 -4 -5 3 -2 15 9 12 10 19 22 17
27 -3 4 4 17 17 28 12 12 20 23 17 25 -2 2 -10 -3 -18 -11z"/>
<path d="M59070 1685 c0 -8 7 -15 15 -15 8 0 15 7 15 15 0 8 -7 15 -15 15 -8
0 -15 -7 -15 -15z"/>
<path d="M48461 1664 c0 -11 3 -14 6 -6 3 7 2 16 -1 19 -3 4 -6 -2 -5 -13z"/>
<path d="M58220 1585 c5 -7 6 -16 2 -21 -4 -5 -3 -5 2 -1 15 12 15 34 0 34 -9
0 -11 -4 -4 -12z"/>
<path d="M43566 1513 c-6 -14 -5 -15 5 -6 7 7 10 15 7 18 -3 3 -9 -2 -12 -12z"/>
<path d="M41130 1435 c0 -44 -3 -111 -6 -150 l-6 -70 42 45 c22 25 52 60 67
78 l26 32 -53 63 c-30 34 -57 66 -62 72 -4 5 -8 -27 -8 -70z"/>
<path d="M41433 1439 l-61 -73 56 -66 57 -66 8 101 c4 55 6 117 5 139 l-3 39
-62 -74z"/>
<path d="M42445 1397 c-44 -45 -150 -153 -235 -240 l-154 -158 237 3 237 3 0
238 c0 130 -1 237 -2 237 -2 0 -39 -37 -83 -83z"/>
<path d="M42670 1247 l0 -237 160 0 159 0 16 29 c20 39 32 46 50 27 17 -16 20
-30 6 -21 -5 3 -13 0 -17 -7 -4 -7 -3 -10 1 -5 5 4 17 0 27 -10 14 -13 18 -13
18 -2 0 11 2 11 10 -1 8 -13 10 -12 10 3 0 9 -6 17 -14 17 -13 0 -31 27 -28
43 1 4 -4 6 -10 5 -7 -2 -12 2 -11 8 1 6 -83 96 -188 200 l-189 189 0 -238z"/>
<path d="M58249 1393 c-13 -16 -12 -17 4 -4 16 13 21 21 13 21 -2 0 -10 -8
-17 -17z"/>
<path d="M58159 1303 c-13 -16 -12 -17 4 -4 16 13 21 21 13 21 -2 0 -10 -8
-17 -17z"/>
<path d="M41221 1196 l-92 -106 77 -90 c43 -49 81 -90 84 -90 3 0 48 43 100
95 86 87 93 96 79 112 -8 10 -44 52 -79 93 -35 41 -67 79 -70 83 -4 4 -48 -39
-99 -97z"/>
<path d="M43181 1254 c0 -11 3 -14 6 -6 3 7 2 16 -1 19 -3 4 -6 -2 -5 -13z"/>
<path d="M43138 1153 c6 -2 10 -9 6 -14 -3 -5 0 -9 5 -9 6 0 11 7 11 15 0 8
-8 15 -17 14 -11 0 -13 -3 -5 -6z"/>
<path d="M43187 1141 c-4 -17 -3 -21 5 -13 5 5 8 16 6 23 -3 8 -7 3 -11 -10z"/>
<path d="M43168 1108 c5 -5 16 -8 23 -6 8 3 3 7 -10 11 -17 4 -21 3 -13 -5z"/>
<path d="M41106 893 c-3 -42 -6 -101 -6 -132 l0 -56 60 63 c33 34 60 65 60 68
0 6 -100 134 -104 134 -2 0 -6 -34 -10 -77z"/>
<path d="M41418 903 l-67 -68 45 -55 c89 -107 82 -110 83 34 1 69 4 133 7 141
10 24 2 18 -68 -52z"/>
<path d="M41610 768 c0 -67 4 -107 10 -103 5 3 7 13 4 23 -5 14 -4 15 5 2 7
-10 6 -19 -5 -31 -28 -31 -6 -55 26 -26 12 10 12 9 1 -5 -7 -10 -20 -18 -27
-18 -8 0 -14 -8 -14 -17 0 -12 3 -14 8 -7 5 9 11 8 21 -3 11 -12 11 -14 0 -12
-38 5 -39 0 -39 -111 0 -96 3 -114 19 -131 11 -12 24 -18 30 -14 18 10 13 25
-9 25 -11 0 -20 5 -20 10 0 15 30 12 47 -6 15 -14 17 -14 25 0 5 9 15 16 21
16 9 0 12 13 10 38 -1 20 0 29 3 19 5 -16 8 -15 25 7 10 13 19 28 19 33 1 10
55 119 68 136 5 7 12 23 15 37 4 14 15 35 27 47 17 19 20 35 20 108 l0 85
-112 1 c-62 1 -128 2 -145 4 l-33 2 0 -109z m17 -50 c-3 -8 -6 -5 -6 6 -1 11
2 17 5 13 3 -3 4 -12 1 -19z m154 -36 c-7 -2 -18 1 -23 6 -8 8 -4 9 13 5 13
-4 18 -8 10 -11z m-141 -147 c-7 -8 -18 -15 -24 -15 -6 0 -2 7 8 15 25 19 32
19 16 0z m47 -167 c-3 -8 -6 -5 -6 6 -1 11 2 17 5 13 3 -3 4 -12 1 -19z"/>
<path d="M42074 863 c4 -5 68 -70 142 -145 129 -132 137 -138 195 -153 33 -9
64 -13 69 -10 5 3 11 1 15 -5 3 -5 12 -10 20 -10 11 0 14 33 14 165 l2 165
-232 0 c-128 0 -229 -3 -225 -7z"/>
<path d="M42670 859 c0 -5 6 -7 13 -3 9 6 8 3 -1 -8 -7 -9 -12 -28 -10 -41 3
-22 5 -20 24 19 l22 44 -24 0 c-13 0 -24 -5 -24 -11z"/>
<path d="M42730 866 c0 -11 52 -56 65 -56 9 0 18 -7 21 -15 9 -21 32 -19 39 5
3 11 10 20 14 20 4 0 13 11 19 25 l12 25 -85 0 c-47 0 -85 -2 -85 -4z"/>
<path d="M41970 758 c0 -83 1 -88 23 -93 94 -23 182 -43 184 -42 0 1 -45 52
-102 112 l-104 110 -1 -87z"/>
<path d="M41189 667 l-96 -103 90 -108 91 -108 19 23 c20 26 65 80 121 147 20
24 36 47 36 52 0 12 -28 32 -38 26 -5 -3 -9 1 -9 9 0 8 5 11 11 8 9 -5 -58 76
-119 144 -8 10 -33 -11 -106 -90z"/>
<path d="M42980 756 c0 -2 7 -7 16 -10 8 -3 12 -2 9 4 -6 10 -25 14 -25 6z"/>
<path d="M42980 720 c-9 -6 -10 -10 -3 -10 6 0 15 5 18 10 8 12 4 12 -15 0z"/>
<path d="M41077 273 c-4 -86 -5 -158 -4 -160 5 -4 137 154 137 163 0 7 -108
142 -120 149 -4 2 -10 -66 -13 -152z"/>
<path d="M41425 364 c0 -12 2 -20 4 -18 2 2 11 -2 20 -8 13 -10 14 -10 4 2
-10 11 -10 17 2 30 13 14 12 16 -8 16 -16 0 -22 -6 -22 -22z"/>
<path d="M41399 353 c-1 -5 -1 -11 0 -15 0 -5 -4 -8 -9 -8 -6 0 -21 -12 -34
-27 l-23 -27 60 -71 c33 -38 63 -74 68 -80 5 -5 9 32 9 88 l0 97 -36 15 c-19
8 -33 19 -29 25 3 5 4 10 1 10 -3 0 -7 -3 -7 -7z"/>
<path d="M41596 182 c-3 -54 -6 -116 -6 -139 l0 -43 155 0 155 0 0 99 0 99
-102 26 c-57 14 -124 32 -149 40 l-46 14 -7 -96z"/>
<path d="M41192 105 l-82 -100 85 -3 c47 -1 122 -1 166 0 l79 3 -82 100 -83
101 -83 -101z"/>
<path d="M41970 89 l0 -89 65 0 c52 0 65 3 65 16 0 20 29 49 38 39 4 -4 1 -10
-5 -12 -18 -7 -16 -43 2 -43 8 0 15 9 15 20 0 17 7 20 45 20 42 0 50 -6 46
-33 0 -4 4 -7 9 -7 6 0 10 5 10 11 0 5 4 8 9 5 5 -4 7 3 4 13 -3 14 -17 21
-50 26 -25 3 -47 4 -50 1 -10 -10 -31 21 -35 49 -3 27 -9 30 -85 51 l-83 22 0
-89z"/>
<path d="M63020 70 c-9 -6 -10 -10 -3 -10 6 0 15 5 18 10 8 12 4 12 -15 0z"/>
<path d="M63060 55 c0 -8 5 -15 10 -15 6 0 10 7 10 15 0 8 -4 15 -10 15 -5 0
-10 -7 -10 -15z"/>
<path d="M62968 43 c7 -3 16 -2 19 1 4 3 -2 6 -13 5 -11 0 -14 -3 -6 -6z"/>
</g>
</svg>
