<?xml version="1.0" standalone="no"?>
<!DOCTYPE svg PUBLIC "-//W3C//DTD SVG 20010904//EN"
 "http://www.w3.org/TR/2001/REC-SVG-20010904/DTD/svg10.dtd">
<svg version="1.0" xmlns="http://www.w3.org/2000/svg"
 width="64.000000pt" height="64.000000pt" viewBox="0 0 64.000000 64.000000"
 preserveAspectRatio="xMidYMid meet">

<g transform="translate(0.000000,64.000000) scale(0.100000,-0.100000)"
fill="#000000" stroke="none">
<path d="M97 490 c-65 -76 -74 -213 -21 -310 30 -56 61 -81 70 -57 3 8 -6 31
-20 52 -57 83 -59 192 -7 277 17 27 31 54 31 59 0 19 -29 8 -53 -21z"/>
<path d="M490 510 c0 -6 11 -27 24 -48 57 -89 60 -189 7 -274 -33 -53 -36 -64
-22 -73 16 -9 60 47 81 103 35 92 21 194 -36 269 -24 32 -54 44 -54 23z"/>
<path d="M152 443 c-31 -44 -45 -101 -38 -151 10 -73 69 -148 90 -114 3 5 -7
26 -22 46 -38 54 -38 138 0 192 15 20 25 41 22 46 -10 16 -33 8 -52 -19z"/>
<path d="M438 464 c-3 -3 8 -32 24 -64 26 -49 29 -65 24 -103 -4 -24 -18 -59
-31 -77 -25 -34 -25 -50 0 -50 20 0 52 50 67 104 10 37 10 55 0 92 -20 73 -61
121 -84 98z"/>
<path d="M215 400 c-11 -12 -20 -41 -23 -73 -4 -46 -1 -57 21 -83 20 -23 28
-26 38 -17 9 9 8 17 -5 37 -20 32 -21 80 0 111 26 40 1 61 -31 25z"/>
<path d="M384 405 c-3 -8 1 -24 10 -37 9 -12 16 -34 16 -48 0 -14 -7 -36 -16
-48 -16 -23 -13 -52 6 -52 18 0 50 64 50 100 0 36 -32 100 -50 100 -6 0 -13
-7 -16 -15z"/>
<path d="M280 360 c-11 -11 -20 -29 -20 -40 0 -26 34 -60 60 -60 26 0 60 34
60 60 0 11 -9 29 -20 40 -11 11 -29 20 -40 20 -11 0 -29 -9 -40 -20z"/>
</g>
</svg>
