<?xml version="1.0" standalone="no"?>
<!DOCTYPE svg PUBLIC "-//W3C//DTD SVG 20010904//EN"
 "http://www.w3.org/TR/2001/REC-SVG-20010904/DTD/svg10.dtd">
<svg version="1.0" xmlns="http://www.w3.org/2000/svg"
 width="64.000000pt" height="64.000000pt" viewBox="0 0 64.000000 64.000000"
 preserveAspectRatio="xMidYMid meet">

<g transform="translate(0.000000,64.000000) scale(0.100000,-0.100000)"
fill="#000000" stroke="none">
<path d="M165 587 c-4 -13 -5 -46 -3 -73 3 -42 6 -49 26 -52 19 -3 22 -9 22
-47 0 -24 4 -47 10 -50 5 -3 24 17 42 44 l33 50 115 3 115 3 0 70 0 70 -177 3
-178 2 -5 -23z m335 -57 l0 -40 -109 0 c-108 0 -110 0 -130 -27 l-20 -28 -1
28 c0 20 -5 27 -20 27 -17 0 -20 7 -20 40 l0 40 150 0 150 0 0 -40z"/>
<path d="M75 493 c-66 -34 -83 -76 -51 -126 7 -12 17 -42 20 -65 8 -56 38
-113 85 -165 20 -23 44 -54 54 -69 9 -14 26 -30 38 -33 26 -9 119 32 119 51 0
8 -10 34 -22 59 -22 45 -39 54 -68 35 -29 -18 -91 62 -109 140 -9 42 -8 46 16
65 l25 21 -28 52 c-16 28 -33 52 -39 51 -5 0 -23 -7 -40 -16z m50 -50 c17 -25
17 -27 -5 -43 -19 -15 -21 -22 -15 -61 11 -66 38 -121 81 -163 31 -30 43 -36
65 -31 21 5 30 2 38 -14 17 -30 14 -39 -18 -56 -34 -17 -58 -12 -67 17 -3 11
-24 39 -46 61 -48 50 -75 101 -84 159 -3 23 -13 53 -20 65 -22 34 -17 61 14
77 36 20 37 20 57 -11z"/>
<path d="M277 384 c-4 -4 -7 -38 -7 -76 l0 -68 115 0 115 0 31 -47 c16 -27 35
-48 42 -48 7 0 13 19 15 48 3 39 6 47 23 47 18 0 20 6 17 73 l-3 72 -171 3
c-93 1 -173 -1 -177 -4z m323 -74 c0 -33 -3 -40 -20 -40 -15 0 -20 -7 -20 -27
l-1 -28 -22 28 c-22 26 -25 27 -130 27 l-107 0 0 40 0 40 150 0 150 0 0 -40z"/>
</g>
</svg>
