<?xml version="1.0" standalone="no"?>
<!DOCTYPE svg PUBLIC "-//W3C//DTD SVG 20010904//EN"
 "http://www.w3.org/TR/2001/REC-SVG-20010904/DTD/svg10.dtd">
<svg version="1.0" xmlns="http://www.w3.org/2000/svg"
 width="64.000000pt" height="64.000000pt" viewBox="0 0 64.000000 64.000000"
 preserveAspectRatio="xMidYMid meet">

<g transform="translate(0.000000,64.000000) scale(0.100000,-0.100000)"
fill="#000000" stroke="none">
<path d="M245 581 c-76 -34 -125 -122 -110 -198 7 -37 124 -303 144 -327 18
-21 64 -20 83 2 29 33 148 317 148 352 0 19 -9 53 -19 75 -45 98 -151 139
-246 96z m124 -75 c47 -25 63 -83 37 -135 -35 -66 -137 -66 -172 0 -47 91 44
182 135 135z"/>
</g>
</svg>
